<?xml version="1.0" encoding="utf-8"?>
<!-- Generator: Adobe Illustrator 25.2.0, SVG Export Plug-In . SVG Version: 6.00 Build 0)  -->
<svg version="1.1" id="mainello_1_" xmlns="http://www.w3.org/2000/svg" xmlns:xlink="http://www.w3.org/1999/xlink" x="0px"
	 y="0px" viewBox="0 0 820 240" style="enable-background:new 0 0 820 240;" xml:space="preserve">
<g id="mainello" transform="translate(2270.321 -43.578) rotate(90)">
	<path id="m" d="M131.3,2100.7c0-23.4,13.2-33.2,44.8-33.2h37c4.9,0,7.7,2.9,7.7,8.1v2c0,5.2-2.8,8.1-7.7,8.1h-35.6
		c-22.4,0-31.3,6.2-31.3,21.6c0,15.9,9.2,22.6,31,22.6h35.9c4.9,0,7.7,2.9,7.7,8.1v2c0,5.2-2.8,8.1-7.7,8.1h-35.4
		c-23,0-31.3,5.5-31.3,20.7c0,15.8,10,22.6,32.5,22.6h34.2c4.9,0,7.7,2.9,7.7,8.1v2c0,5.2-2.8,8.1-7.7,8.1h-72.4
		c-4.9,0-7.7-2.9-7.7-8.1v-2c0-5.2,2.8-8.1,7.7-8.1h8.9c-9.8-3.3-18.1-13.8-18.1-28.3c0-15.6,5.5-23.3,20.9-28.3
		C140.5,2130.4,131.3,2118.1,131.3,2100.7L131.3,2100.7z"/>
	<path id="a" d="M176.9,2051.2c-30.2,0-45.6-19.5-45.6-42.6c0-14.6,6.8-27.7,18.9-33h-9.5c-4.9,0-7.7-2.9-7.7-8.1v-2
		c0-5.2,2.8-8.1,7.7-8.1h72.3c4.9,0,7.7,2.9,7.7,8.1v2c0,5.2-2.8,8.1-7.7,8.1H204c11.8,5.2,18.7,18.4,18.7,32.9
		C222.7,2031.5,207.2,2051.2,176.9,2051.2z M176.9,1975.1c-19.2,0-31,11.9-31,29.1c0,17.1,11.7,28.8,31,28.8
		c19.5,0,31.1-11.7,31.1-29.1C208,1986.8,196.2,1975.1,176.9,1975.1L176.9,1975.1z"/>
	<path id="i" d="M111.9,1936.6c-5.8,0-9.2-4.6-9.2-10.7c0-5.7,3.4-10.7,9.2-10.7s9.2,5,9.2,10.7
		C121.2,1932.1,117.8,1936.6,111.9,1936.6z M213.1,1935.1h-72.4c-4.9,0-7.7-2.9-7.7-8v-2.1c0-5.1,2.8-8,7.7-8h72.4
		c4.9,0,7.7,2.9,7.7,8v2.1C220.7,1932.2,218,1935.1,213.1,1935.1L213.1,1935.1z"/>
	<path id="n" d="M173.2,1809h39.9c4.9,0,7.7,2.9,7.7,8.1v2c0,5.2-2.8,8.1-7.7,8.1h-38.5c-19.2,0-28.2,7.8-28.2,25
		c0,17.6,10.9,24.7,30.2,24.7h36.5c4.9,0,7.7,2.9,7.7,8.1v2c0,5.2-2.8,8.1-7.7,8.1h-72.4c-4.9,0-7.7-2.9-7.7-8.1v-2
		c0-5.2,2.8-8.1,7.7-8.1h8.7c-10.2-4.2-17.9-14.8-17.9-30.4C131.4,1820.9,145.4,1809,173.2,1809z"/>
	<path id="e" d="M176.8,1792.8c-27,0-45.6-19.2-45.6-47c0-27,17-44.2,42.3-45.4c5.1-0.2,7.7,2.9,7.7,8.1v66
		c17-0.7,26.7-11.9,26.7-29.9c0-10.1-2.5-16.4-7.4-22.3c-2.9-3.6-5.4-5.9-4.3-10.4l0.5-2c1.4-5.7,4.3-6.8,8.6-3.7
		c11.4,8.1,17,21.3,17,38.7C222.4,1773.9,204.3,1792.8,176.8,1792.8z M167.8,1717.6c-14,1.3-22.9,11.4-22.9,27.8
		c0,15.6,7.7,26.5,22.9,28.6V1717.6z"/>
	<path id="l_1_" d="M213.1,1682.1h-101c-4.9,0-7.7-2.9-7.7-8.1v-2.1c0-5.2,2.8-8.1,7.7-8.1h101c4.9,0,7.7,2.9,7.7,8.1v2.1
		C220.7,1679.2,218,1682.1,213.1,1682.1z"/>
	<path id="l" d="M213.1,1642.3h-101c-4.9,0-7.7-2.9-7.7-8.1v-2.1c0-5.2,2.8-8.1,7.7-8.1h101c4.9,0,7.7,2.9,7.7,8.1v2.1
		C220.7,1639.4,218,1642.3,213.1,1642.3z"/>
	<path id="o" d="M176.8,1605.7c-31.6,0-45.6-23.3-45.6-47s14-47.2,45.6-47.2c31.9,0,45.9,23.3,45.9,47
		C222.7,1582.4,208.8,1605.7,176.8,1605.7z M176.8,1529.7c-19.2,0-31,11.7-31,29c0,17.2,11.7,28.8,31,28.8c19.5,0,31.1-11.5,31.1-29
		C208,1541.3,196.2,1529.7,176.8,1529.7z"/>
</g>
<g id="lines">
	<g id="m-y">
		<path id="_x31__5_" d="M60.7,198.1c-0.6,0-1-0.4-1-1V67.7c0-0.6,0.4-1,1-1s1,0.4,1,1v129.4C61.7,197.7,61.3,198.1,60.7,198.1z"/>
		<path id="_x32__8_" d="M202.9,198.1c-0.6,0-1-0.4-1-1V67.7c0-0.6,0.4-1,1-1s1,0.4,1,1v129.4C203.9,197.7,203.4,198.1,202.9,198.1z
			"/>
	</g>
	<g id="a-y">
		<path id="_x31__3_" d="M219.1,198.1c-0.6,0-1-0.4-1-1V67.7c0-0.6,0.4-1,1-1s1,0.4,1,1v129.4C220.1,197.7,219.7,198.1,219.1,198.1z
			"/>
		<path id="_x32__7_" d="M313,198.1c-0.6,0-1-0.4-1-1V67.7c0-0.6,0.4-1,1-1s1,0.4,1,1v129.4C314,197.7,313.5,198.1,313,198.1z"/>
	</g>
	<g id="i-y">
		<path id="_x31__8_" d="M335.2,198.1c-0.6,0-1-0.4-1-1V51c0-0.6,0.4-1,1-1s1,0.4,1,1v146.1C336.2,197.7,335.8,198.1,335.2,198.1z"
			/>
		<path id="_x32__6_" d="M353.3,198.1c-0.6,0-1-0.4-1-1V51c0-0.6,0.4-1,1-1s1,0.4,1,1v146.1C354.3,197.7,353.8,198.1,353.3,198.1z"
			/>
	</g>
	<g id="n-y">
		<path id="_x31__2_" d="M375.1,198.1c-0.6,0-1-0.4-1-1V67.7c0-0.6,0.4-1,1-1s1,0.4,1,1v129.4C376.1,197.7,375.7,198.1,375.1,198.1z
			"/>
		<path id="_x32__2_" d="M461.3,198.1c-0.6,0-1-0.4-1-1V67.7c0-0.6,0.4-1,1-1s1,0.4,1,1v129.4C462.3,197.7,461.8,198.1,461.3,198.1z
			"/>
	</g>
	<g id="e-y">
		<path id="_x31__6_" d="M477.6,198.1c-0.6,0-1-0.4-1-1V67.7c0-0.6,0.4-1,1-1s1,0.4,1,1v129.4C478.6,197.7,478.1,198.1,477.6,198.1z
			"/>
		<path id="_x32__4_" d="M569.9,198.1c-0.6,0-1-0.4-1-1V67.7c0-0.6,0.4-1,1-1s1,0.4,1,1v129.4C570.9,197.7,570.5,198.1,569.9,198.1z
			"/>
	</g>
	<g id="l1-y">
		<path id="_x31__7_" d="M588.1,198.1c-0.6,0-1-0.4-1-1V52c0-0.6,0.4-1,1-1s1,0.4,1,1v145.1C589.1,197.7,588.7,198.1,588.1,198.1z"
			/>
		<path id="_x32__5_" d="M606.5,198.1c-0.6,0-1-0.4-1-1V52c0-0.6,0.4-1,1-1s1,0.4,1,1v145.1C607.5,197.7,607.1,198.1,606.5,198.1z"
			/>
	</g>
	<g id="l2-y">
		<path id="_x31__1_" d="M628,198.1c-0.6,0-1-0.4-1-1V52c0-0.6,0.4-1,1-1s1,0.4,1,1v145.1C629,197.7,628.5,198.1,628,198.1z"/>
		<path id="_x32_" d="M646.4,198.1c-0.6,0-1-0.4-1-1V52c0-0.6,0.4-1,1-1s1,0.4,1,1v145.1C647.4,197.7,646.9,198.1,646.4,198.1z"/>
	</g>
	<g id="o-y">
		<path id="_x31_" d="M664.6,198.1c-0.6,0-1-0.4-1-1V67.7c0-0.6,0.4-1,1-1s1,0.4,1,1v129.4C665.6,197.7,665.1,198.1,664.6,198.1z"/>
		<path id="_x32__1_" d="M758.7,198.1c-0.6,0-1-0.4-1-1V67.7c0-0.6,0.4-1,1-1s1,0.4,1,1v129.4C759.7,197.7,759.3,198.1,758.7,198.1z
			"/>
	</g>
	<path id="x5" d="M778.7,178.2h-738c-0.6,0-1-0.4-1-1s0.4-1,1-1h738c0.6,0,1,0.4,1,1S779.3,178.2,778.7,178.2z"/>
	<path id="x3" d="M778.7,88.7h-738c-0.6,0-1-0.4-1-1s0.4-1,1-1h738c0.6,0,1,0.4,1,1S779.3,88.7,778.7,88.7z"/>
	<path id="x2" d="M657.3,62.6h-80c-0.6,0-1-0.4-1-1s0.4-1,1-1h80c0.6,0,1,0.4,1,1S657.8,62.6,657.3,62.6z"/>
	<path id="x1b" d="M363.3,75.7h-38c-0.6,0-1-0.4-1-1s0.4-1,1-1h38c0.6,0,1,0.4,1,1S363.8,75.7,363.3,75.7z"/>
	<path id="x1a" d="M363.3,62.6h-38c-0.6,0-1-0.4-1-1s0.4-1,1-1h38c0.6,0,1,0.4,1,1S363.8,62.6,363.3,62.6z"/>
</g>
<g id="Guides">
</g>
</svg>
