<?xml version="1.0" encoding="utf-8"?>
<!-- Generator: Adobe Illustrator 25.2.0, SVG Export Plug-In . SVG Version: 6.00 Build 0)  -->
<svg version="1.1" id="mainello_1_" xmlns="http://www.w3.org/2000/svg" xmlns:xlink="http://www.w3.org/1999/xlink" x="0px"
	 y="0px" viewBox="0 0 698.1 120" style="enable-background:new 0 0 698.1 120;" xml:space="preserve">
<g id="mainello" transform="translate(2270.321 -43.578) rotate(90)">
	<path id="m" d="M72.2,2161.4c0-23.4,13.2-33.2,44.8-33.2h37c4.9,0,7.7,2.9,7.7,8.1v2c0,5.2-2.8,8.1-7.7,8.1h-35.6
		c-22.4,0-31.3,6.2-31.3,21.6c0,15.9,9.2,22.6,31,22.6H154c4.9,0,7.7,2.9,7.7,8.1v2c0,5.2-2.8,8.1-7.7,8.1h-35.4
		c-23,0-31.3,5.5-31.3,20.7c0,15.8,10,22.6,32.5,22.6H154c4.9,0,7.7,2.9,7.7,8.1v2c0,5.2-2.8,8.1-7.7,8.1H81.6
		c-4.9,0-7.7-2.9-7.7-8.1v-2c0-5.2,2.8-8.1,7.7-8.1h8.9c-9.8-3.3-18.1-13.8-18.1-28.3c0-15.6,5.5-23.3,20.9-28.3
		C81.4,2191.1,72.2,2178.8,72.2,2161.4L72.2,2161.4z"/>
	<path id="a" d="M117.8,2111.9c-30.2,0-45.6-19.5-45.6-42.6c0-14.6,6.8-27.7,18.9-33h-9.5c-4.9,0-7.7-2.9-7.7-8.1v-2
		c0-5.2,2.8-8.1,7.7-8.1h72.3c4.9,0,7.7,2.9,7.7,8.1v2c0,5.2-2.8,8.1-7.7,8.1h-9c11.8,5.2,18.7,18.4,18.7,32.9
		C163.6,2092.2,148.1,2111.9,117.8,2111.9z M117.8,2035.8c-19.2,0-31,11.9-31,29.1c0,17.1,11.7,28.8,31,28.8
		c19.5,0,31.1-11.7,31.1-29.1C148.9,2047.5,137.1,2035.8,117.8,2035.8L117.8,2035.8z"/>
	<path id="i" d="M52.8,1997.3c-5.8,0-9.2-4.6-9.2-10.7c0-5.7,3.4-10.7,9.2-10.7s9.2,5,9.2,10.7C62.1,1992.8,58.7,1997.3,52.8,1997.3
		z M154,1995.8H81.6c-4.9,0-7.7-2.9-7.7-8v-2.1c0-5.1,2.8-8,7.7-8H154c4.9,0,7.7,2.9,7.7,8v2.1
		C161.6,1992.9,158.9,1995.8,154,1995.8L154,1995.8z"/>
	<path id="n" d="M114.1,1869.7H154c4.9,0,7.7,2.9,7.7,8.1v2c0,5.2-2.8,8.1-7.7,8.1h-38.5c-19.2,0-28.2,7.8-28.2,25
		c0,17.6,10.9,24.7,30.2,24.7H154c4.9,0,7.7,2.9,7.7,8.1v2c0,5.2-2.8,8.1-7.7,8.1H81.6c-4.9,0-7.7-2.9-7.7-8.1v-2
		c0-5.2,2.8-8.1,7.7-8.1h8.7c-10.2-4.2-17.9-14.8-17.9-30.4C72.3,1881.6,86.3,1869.7,114.1,1869.7z"/>
	<path id="e" d="M117.7,1853.5c-27,0-45.6-19.2-45.6-47c0-27,17-44.2,42.3-45.4c5.1-0.2,7.7,2.9,7.7,8.1v66
		c17-0.7,26.7-11.9,26.7-29.9c0-10.1-2.5-16.4-7.4-22.3c-2.9-3.6-5.4-5.9-4.3-10.4l0.5-2c1.4-5.7,4.3-6.8,8.6-3.7
		c11.4,8.1,17,21.3,17,38.7C163.3,1834.6,145.2,1853.5,117.7,1853.5z M108.7,1778.3c-14,1.3-22.9,11.4-22.9,27.8
		c0,15.6,7.7,26.5,22.9,28.6V1778.3z"/>
	<path id="l_1_" d="M154,1742.8H53c-4.9,0-7.7-2.9-7.7-8.1v-2.1c0-5.2,2.8-8.1,7.7-8.1h101c4.9,0,7.7,2.9,7.7,8.1v2.1
		C161.6,1739.9,158.9,1742.8,154,1742.8z"/>
	<path id="l" d="M154,1703H53c-4.9,0-7.7-2.9-7.7-8.1v-2.1c0-5.2,2.8-8.1,7.7-8.1h101c4.9,0,7.7,2.9,7.7,8.1v2.1
		C161.6,1700.1,158.9,1703,154,1703z"/>
	<path id="o" d="M117.7,1666.4c-31.6,0-45.6-23.3-45.6-47s14-47.2,45.6-47.2c31.9,0,45.9,23.3,45.9,47
		C163.6,1643.1,149.7,1666.4,117.7,1666.4z M117.7,1590.4c-19.2,0-31,11.7-31,29c0,17.2,11.7,28.8,31,28.8c19.5,0,31.1-11.5,31.1-29
		C148.9,1602,137.1,1590.4,117.7,1590.4z"/>
</g>
<g id="Guides">
</g>
</svg>
