<svg width="21" height="28" viewBox="0 0 21 28" fill="none" xmlns="http://www.w3.org/2000/svg">
<path d="M13.7143 14.4286C13.7143 16.317 12.1741 17.8571 10.2857 17.8571C8.39732 17.8571 6.85714 16.317 6.85714 14.4286C6.85714 12.5402 8.39732 11 10.2857 11C12.1741 11 13.7143 12.5402 13.7143 14.4286ZM15.5625 14.4286C15.5625 11.5089 13.2054 9.15178 10.2857 9.15178C7.36607 9.15178 5.00893 11.5089 5.00893 14.4286C5.00893 17.3482 7.36607 19.7054 10.2857 19.7054C13.2054 19.7054 15.5625 17.3482 15.5625 14.4286ZM17.0089 8.9375C17.0089 8.25446 16.4598 7.70536 15.7768 7.70536C15.0938 7.70536 14.5446 8.25446 14.5446 8.9375C14.5446 9.62053 15.0938 10.1696 15.7768 10.1696C16.4598 10.1696 17.0089 9.62053 17.0089 8.9375ZM10.2857 5.99107C11.7857 5.99107 15 5.87053 16.3527 6.40625C16.8214 6.59375 17.1696 6.82143 17.5313 7.18303C17.8929 7.54464 18.1205 7.89286 18.308 8.36161C18.8438 9.71428 18.7232 12.9286 18.7232 14.4286C18.7232 15.9286 18.8438 19.1429 18.308 20.4955C18.1205 20.9643 17.8929 21.3125 17.5313 21.6741C17.1696 22.0357 16.8214 22.2634 16.3527 22.4509C15 22.9866 11.7857 22.8661 10.2857 22.8661C8.78571 22.8661 5.57143 22.9866 4.21875 22.4509C3.75 22.2634 3.40179 22.0357 3.04018 21.6741C2.67857 21.3125 2.45089 20.9643 2.26339 20.4955C1.72768 19.1429 1.84821 15.9286 1.84821 14.4286C1.84821 12.9286 1.72768 9.71428 2.26339 8.36161C2.45089 7.89286 2.67857 7.54464 3.04018 7.18303C3.40179 6.82143 3.75 6.59375 4.21875 6.40625C5.57143 5.87053 8.78571 5.99107 10.2857 5.99107ZM20.5714 14.4286C20.5714 13.0089 20.5848 11.6027 20.5045 10.183C20.4241 8.53571 20.0491 7.07589 18.8438 5.87053C17.6384 4.66518 16.1786 4.29018 14.5312 4.20982C13.1116 4.12946 11.7054 4.14286 10.2857 4.14286C8.86607 4.14286 7.45982 4.12946 6.04018 4.20982C4.39286 4.29018 2.93304 4.66518 1.72768 5.87053C0.522321 7.07589 0.147321 8.53571 0.0669643 10.183C-0.0133929 11.6027 0 13.0089 0 14.4286C0 15.8482 -0.0133929 17.2545 0.0669643 18.6741C0.147321 20.3214 0.522321 21.7812 1.72768 22.9866C2.93304 24.192 4.39286 24.567 6.04018 24.6473C7.45982 24.7277 8.86607 24.7143 10.2857 24.7143C11.7054 24.7143 13.1116 24.7277 14.5312 24.6473C16.1786 24.567 17.6384 24.192 18.8438 22.9866C20.0491 21.7812 20.4241 20.3214 20.5045 18.6741C20.5848 17.2545 20.5714 15.8482 20.5714 14.4286Z" fill="white"/>
</svg>
