<svg width="142" height="73" viewBox="0 0 142 73" fill="none" xmlns="http://www.w3.org/2000/svg">
<path d="M34.9995 5.58523L35.0034 5.58134C38.1514 2.3783 41.5329 0.703636 45.0239 0.750977C48.507 0.798209 51.8592 2.55669 54.9626 5.71388C55.2779 6.03102 55.621 6.36468 55.9728 6.70668C56.5647 7.28222 57.1829 7.88319 57.7411 8.47676C58.6591 9.45288 59.541 10.533 60.1777 11.7767L60.1838 11.7885C60.4314 12.2868 60.4204 12.811 60.3357 13.2346C60.2501 13.6631 60.0712 14.085 59.8593 14.4724C59.6577 14.8409 59.4059 15.2145 59.1221 15.5787C58.8081 15.9819 58.4546 16.3737 58.0861 16.7349C57.3846 17.4226 56.5713 18.0558 55.7782 18.4641C55.3822 18.668 54.9518 18.8364 54.5157 18.9094C54.0817 18.9821 53.562 18.9721 53.0731 18.7163L53.063 18.7111C52.8028 18.5714 52.5524 18.4174 52.311 18.252C51.4714 17.6773 50.7392 16.9664 50.0758 16.2516C49.6866 15.8323 49.3071 15.3958 48.9415 14.9752L48.8302 14.8473C48.4257 14.3825 48.0361 13.9382 47.6386 13.522C46.556 12.4022 45.6747 11.9787 44.9435 11.9572C44.2352 11.9364 43.3627 12.2863 42.2701 13.4467L42.2628 13.4544C39.5692 16.261 36.8674 19.054 34.1675 21.845L34.1399 21.8734C32.3168 23.758 30.4944 25.6417 28.6759 27.5284C25.0737 31.2655 21.4866 35.0138 17.9379 38.802C16.6354 40.1925 15.3379 41.5884 14.0468 42.9913C9.66671 47.7676 10.1194 54.3529 14.6732 58.814C19.1833 63.166 25.8676 63.261 30.8078 58.476C35.0667 54.3534 39.3193 50.2095 43.57 46.0544C47.5032 42.2096 51.4346 38.3552 55.3676 34.4994C64.7073 25.343 74.0559 16.1777 83.4576 7.11105C84.1384 6.44691 84.8724 5.79112 85.649 5.16741C87.465 3.70889 89.5139 2.4258 91.6595 1.62162C96.1797 -0.119492 100.493 1.45323 103.847 4.68503L103.849 4.68675C106.662 7.40957 109.483 10.1202 112.302 12.8296L112.304 12.8312C119.996 20.2231 127.677 27.6056 135.176 35.2005C143.567 43.7153 143.478 56.8379 135.681 65.5329L135.678 65.5353C128.065 73.9768 115.249 75.1686 105.973 68.101C102.829 65.7621 99.974 63.0226 97.2915 60.3231C96.1718 59.1965 95.4054 58.9182 94.845 58.946C94.2606 58.9748 93.5275 59.3506 92.5145 60.4336C90.2854 62.8127 87.9792 65.066 85.4642 67.1866C76.9058 74.4566 65.3469 74.6074 56.7694 67.6043C55.7648 66.7883 55.7235 65.4644 55.9033 64.4618C56.0956 63.3891 56.6034 62.2396 57.256 61.2522C57.9041 60.2717 58.7672 59.3419 59.7491 58.8057C60.7636 58.2517 62.0451 58.0672 63.1951 58.9191C66.4306 61.2957 69.1351 62.2676 71.6679 62.0907C74.2071 61.9136 76.8059 60.5659 79.7931 57.789C80.2009 57.408 80.6089 57.0284 81.0165 56.6496C81.3548 56.3353 81.693 56.0216 82.031 55.7082L82.0607 55.6805C85.0645 52.8945 88.0404 50.1342 90.8508 47.1997C91.9917 45.9831 93.2139 45.0505 94.6511 44.9654C96.1244 44.8782 97.4386 45.6967 98.713 46.979C102.635 50.9255 106.762 54.677 110.968 58.3724L110.97 58.3744C113.807 60.8795 116.909 62.0313 119.822 61.9706C122.727 61.91 125.542 60.6426 127.829 58.124C132.165 53.3367 131.624 46.4784 126.272 41.217C117.04 32.3308 107.869 23.439 98.8301 14.3433C97.2244 12.7274 96.0425 12.1648 95.0294 12.1764C94.0034 12.1882 92.7954 12.7908 91.1463 14.4175C83.7558 21.7363 76.3382 28.9924 68.9243 36.245C64.4371 40.6343 59.9512 45.0225 55.4736 49.4223C50.449 54.3599 45.4345 59.3123 40.44 64.2981L40.439 64.2991C33.9166 70.7935 26.4421 74.4112 16.973 71.8529C6.70992 69.1632 0.5 60.8369 0.5 50.1841C0.5 44.2915 2.69754 39.2427 6.69281 35.08C16.0615 25.181 25.497 15.3495 34.9995 5.58523Z" fill="#141414"/>
</svg>
