<svg xmlns="http://www.w3.org/2000/svg" viewBox="0 0 698.12 120"><defs><style>.cls-1{fill:#fff;}</style></defs><g id="Layer_2" data-name="Layer 2"><g id="mainello"><g id="mainello-sketch-inverse"><g id="mainello-2" data-name="mainello"><path id="m" class="cls-1" d="M109,28.55c23.43,0,33.19,13.19,33.19,44.8v37c0,4.91-2.93,7.68-8.14,7.68h-2c-5.2,0-8.13-2.77-8.13-7.68V74.73c0-22.4-6.18-31.3-21.64-31.3-15.94,0-22.61,9.21-22.61,31v35.9c0,4.91-2.92,7.68-8.13,7.68h-2c-5.21,0-8.13-2.77-8.13-7.68V74.88c0-23-5.53-31.31-20.66-31.31-15.78,0-22.61,10-22.61,32.53v34.22c0,4.91-2.93,7.68-8.14,7.68H8.13C2.93,118,0,115.23,0,110.32V37.88C0,33,2.93,30.2,8.13,30.2h1.93c5.21,0,8.14,2.77,8.14,7.68v8.9C21.48,37,32.06,28.7,46.52,28.7c15.62,0,23.26,5.52,28.3,20.87,4.4-11.82,16.76-21,34.16-21Z"/><path id="a" class="cls-1" d="M158.43,74.12c0-30.23,19.52-45.58,42.61-45.58,14.64,0,27.66,6.76,33,18.88V37.88c0-4.91,2.92-7.67,8.13-7.67h2c5.21,0,8.14,2.76,8.14,7.67v72.3c0,4.91-2.93,7.67-8.14,7.67h-2c-5.2,0-8.13-2.76-8.13-7.67v-8.9C228.83,113.09,215.66,120,201.18,120,178.11,120,158.43,104.5,158.43,74.12Zm76.12,0c0-19.18-11.87-31-29.12-31-17.08,0-28.79,11.66-28.79,31s11.71,31.15,29.12,31.15C222.84,105.27,234.55,93.45,234.55,74.12Z"/><path id="i" class="cls-1" d="M273,9.21C273,3.38,277.55,0,283.73,0c5.69,0,10.73,3.38,10.73,9.21s-5,9.21-10.73,9.21C277.55,18.42,273,15,273,9.21Zm1.54,101.12V37.88c0-4.91,2.87-7.67,8-7.67h2.08c5.11,0,8,2.76,8,7.67v72.43c0,4.91-2.87,7.67-8,7.67h-2.08c-5.11,0-8-2.76-8-7.67Z"/><path id="n" class="cls-1" d="M400.63,70.44v39.89c0,4.91-2.93,7.67-8.14,7.67h-1.95c-5.2,0-8.13-2.76-8.13-7.67V71.82c0-19.18-7.81-28.24-25.05-28.24-17.57,0-24.73,10.9-24.73,30.23v36.52c0,4.91-2.92,7.68-8.13,7.68h-1.95c-5.21,0-8.13-2.77-8.13-7.68V37.88c0-4.91,2.92-7.67,8.13-7.67h1.95c5.21,0,8.13,2.76,8.13,7.67v8.73c4.24-10.18,14.8-17.94,30.42-17.94C388.75,28.7,400.63,42.66,400.63,70.44Z"/><path id="e" class="cls-1" d="M416.89,74.12c0-27,19.19-45.58,47-45.58,27,0,44.25,17,45.38,42.35.17,5.07-2.92,7.68-8.13,7.68h-66c.65,17,11.87,26.7,29.93,26.7,10.08,0,16.43-2.46,22.28-7.37,3.58-2.92,5.86-5.37,10.41-4.3l2,.46c5.7,1.39,6.84,4.3,3.75,8.6-8.14,11.35-21.31,17-38.72,17C435.76,119.69,416.89,101.59,416.89,74.12Zm75.17-9.06c-1.3-14-11.39-22.86-27.82-22.86-15.61,0-26.51,7.67-28.63,22.86Z"/><path id="l" class="cls-1" d="M527.49,110.33V9.33c0-4.91,2.93-7.67,8.14-7.67h2.11c5.21,0,8.13,2.76,8.13,7.67v101c0,4.91-2.92,7.67-8.13,7.67h-2.11C530.42,118,527.49,115.24,527.49,110.33Z"/><path id="l-2" class="cls-1" d="M567.34,110.33V9.33c0-4.91,2.93-7.67,8.14-7.67h2.11c5.21,0,8.14,2.76,8.14,7.67v101c0,4.91-2.93,7.67-8.14,7.67h-2.11C570.27,118,567.34,115.24,567.34,110.33Z"/><path id="o" class="cls-1" d="M603.94,74.12c0-31.61,23.26-45.58,47-45.58s47.18,14,47.18,45.58c0,31.92-23.26,45.88-47,45.88C627.2,120,603.94,106,603.94,74.12Zm76,0c0-19.18-11.72-31-29-31s-28.79,11.66-28.79,31,11.55,31.15,29,31.15,28.81-11.82,28.81-31.15Z"/></g></g></g></g></svg>