<svg xmlns="http://www.w3.org/2000/svg" viewBox="0 0 740.01 148.11"><defs><style>.cls-1{fill:none;stroke:#cccccb;stroke-linecap:round;stroke-miterlimit:10;stroke-width:2px;}.cls-2{fill:#231f20;}</style></defs><g id="Layer_2" data-name="Layer 2"><g id="mainello"><g id="mainello-sketch"><g id="lines"><g id="m-y"><line id="_1" data-name=" 1" class="cls-1" x1="21" y1="17.67" x2="21" y2="147.11"/><line id="_2" data-name=" 2" class="cls-1" x1="163.14" y1="17.67" x2="163.14" y2="147.11"/></g><g id="a-y"><line id="_1-2" data-name=" 1-2" class="cls-1" x1="179.4" y1="17.67" x2="179.4" y2="147.11"/><line class="cls-1" x1="273.24" y1="17.67" x2="273.24" y2="147.11"/></g><g id="i-y"><line id="_1-3" data-name=" 1-3" class="cls-1" x1="295.47" y1="1" x2="295.47" y2="147.11"/><line class="cls-1" x1="313.51" y1="1" x2="313.51" y2="147.11"/></g><g id="n-y"><line id="_1-4" data-name=" 1-4" class="cls-1" x1="335.36" y1="17.67" x2="335.36" y2="147.11"/><line id="_2-2" data-name=" 2-2" class="cls-1" x1="421.56" y1="17.67" x2="421.56" y2="147.11"/></g><g id="e-y"><line id="_1-5" data-name=" 1-5" class="cls-1" x1="437.82" y1="17.67" x2="437.82" y2="147.11"/><line id="_2-3" data-name=" 2-3" class="cls-1" x1="530.2" y1="17.67" x2="530.2" y2="147.11"/></g><g id="l1-y"><line id="_1-6" data-name=" 1-6" class="cls-1" x1="548.4" y1="1.99" x2="548.4" y2="147.11"/><line id="_2-4" data-name=" 2-4" class="cls-1" x1="566.78" y1="1.99" x2="566.78" y2="147.11"/></g><g id="l2-y"><line id="_1-7" data-name=" 1-7" class="cls-1" x1="588.25" y1="1.99" x2="588.25" y2="147.11"/><line id="_2-5" data-name=" 2-5" class="cls-1" x1="606.62" y1="1.99" x2="606.62" y2="147.11"/></g><g id="o-y"><line id="_1-8" data-name=" 1-8" class="cls-1" x1="624.84" y1="17.67" x2="624.84" y2="147.11"/><line id="_2-6" data-name=" 2-6" class="cls-1" x1="719.01" y1="17.67" x2="719.01" y2="147.11"/></g><line id="x4" class="cls-1" x1="1" y1="127.13" x2="739.01" y2="127.13"/><line id="x3" class="cls-1" x1="1" y1="37.66" x2="739.01" y2="37.66"/><line id="x2" class="cls-1" x1="323.51" y1="24.62" x2="285.47" y2="24.62"/><line id="x1b" class="cls-1" x1="537.53" y1="11.58" x2="617.53" y2="11.58"/><line id="x1a" class="cls-1" x1="323.51" y1="11.58" x2="285.47" y2="11.58"/></g><g id="mainello-2" data-name="mainello"><path id="m" class="cls-2" d="M129.92,37.67c23.43,0,33.19,13.19,33.19,44.8v37c0,4.91-2.93,7.68-8.14,7.68h-2c-5.2,0-8.13-2.77-8.13-7.68V83.85c0-22.4-6.18-31.3-21.64-31.3-15.94,0-22.61,9.21-22.61,31v35.9c0,4.91-2.92,7.68-8.13,7.68h-2c-5.21,0-8.13-2.77-8.13-7.68V84c0-23-5.53-31.31-20.66-31.31-15.78,0-22.61,10-22.61,32.53v34.22c0,4.91-2.93,7.68-8.14,7.68H29.07c-5.2,0-8.13-2.77-8.13-7.68V47c0-4.91,2.93-7.68,8.13-7.68H31c5.21,0,8.14,2.77,8.14,7.68v8.9C42.42,46.1,53,37.82,67.46,37.82c15.62,0,23.26,5.52,28.3,20.87,4.4-11.82,16.76-21,34.16-21Z"/><path id="a" class="cls-2" d="M179.37,83.24c0-30.23,19.52-45.58,42.61-45.58,14.64,0,27.66,6.76,33,18.88V47c0-4.91,2.92-7.67,8.13-7.67h1.95c5.21,0,8.14,2.76,8.14,7.67v72.3c0,4.91-2.93,7.67-8.14,7.67h-1.95c-5.2,0-8.13-2.76-8.13-7.67v-8.9c-5.21,11.81-18.38,18.72-32.86,18.72C199.05,129.12,179.37,113.62,179.37,83.24Zm76.12,0c0-19.18-11.87-31-29.12-31-17.08,0-28.79,11.66-28.79,31,0,19.49,11.71,31.15,29.12,31.15C243.78,114.39,255.49,102.57,255.49,83.24Z"/><path id="i" class="cls-2" d="M293.93,18.33c0-5.83,4.56-9.21,10.74-9.21,5.69,0,10.73,3.38,10.73,9.21s-5,9.21-10.73,9.21C298.49,27.54,293.93,24.16,293.93,18.33Zm1.54,101.12V47c0-4.91,2.87-7.67,8-7.67h2.08c5.11,0,8,2.76,8,7.67v72.43c0,4.91-2.87,7.67-8,7.67h-2.08c-5.11,0-8-2.76-8-7.67Z"/><path id="n" class="cls-2" d="M421.57,79.56v39.89c0,4.91-2.93,7.67-8.14,7.67h-1.95c-5.2,0-8.13-2.76-8.13-7.67V80.94c0-19.18-7.81-28.24-25.05-28.24-17.57,0-24.73,10.9-24.73,30.23v36.52c0,4.91-2.92,7.68-8.13,7.68h-1.95c-5.21,0-8.13-2.77-8.13-7.68V47c0-4.91,2.92-7.67,8.13-7.67h1.95c5.21,0,8.13,2.76,8.13,7.67v8.73c4.24-10.18,14.8-17.94,30.42-17.94C409.69,37.82,421.57,51.78,421.57,79.56Z"/><path id="e" class="cls-2" d="M437.83,83.24c0-27,19.19-45.58,47-45.58,27,0,44.25,17,45.38,42.35.17,5.07-2.92,7.68-8.13,7.68h-66c.65,17,11.87,26.7,29.93,26.7,10.08,0,16.43-2.46,22.28-7.37,3.58-2.92,5.86-5.37,10.41-4.3l2,.46c5.7,1.39,6.84,4.3,3.75,8.6-8.14,11.35-21.31,17-38.72,17C456.7,128.81,437.83,110.71,437.83,83.24ZM513,74.18c-1.3-14-11.39-22.86-27.82-22.86-15.61,0-26.51,7.67-28.63,22.86Z"/><path id="l" class="cls-2" d="M548.43,119.45v-101c0-4.91,2.93-7.67,8.14-7.67h2.11c5.21,0,8.13,2.76,8.13,7.67v101c0,4.91-2.92,7.67-8.13,7.67h-2.11C551.36,127.12,548.43,124.36,548.43,119.45Z"/><path id="l-2" class="cls-2" d="M588.28,119.45v-101c0-4.91,2.93-7.67,8.14-7.67h2.11c5.21,0,8.14,2.76,8.14,7.67v101c0,4.91-2.93,7.67-8.14,7.67h-2.11C591.21,127.12,588.28,124.36,588.28,119.45Z"/><path id="o" class="cls-2" d="M624.88,83.24c0-31.61,23.26-45.58,47-45.58s47.18,14,47.18,45.58c0,31.92-23.26,45.88-47,45.88C648.14,129.12,624.88,115.16,624.88,83.24Zm76,0c0-19.18-11.72-31-29-31s-28.79,11.66-28.79,31,11.55,31.15,28.95,31.15,28.81-11.82,28.81-31.15Z"/></g></g></g></g></svg>