<?xml version="1.0" encoding="utf-8"?>
<!-- Generator: Adobe Illustrator 25.4.0, SVG Export Plug-In . SVG Version: 6.00 Build 0)  -->
<svg version="1.1" id="Layer_1" xmlns="http://www.w3.org/2000/svg" xmlns:xlink="http://www.w3.org/1999/xlink" x="0px" y="0px"
	 viewBox="0 0 48 48" style="enable-background:new 0 0 48 48;" xml:space="preserve">
<style type="text/css">
	.st0{fill:#FFFFFF;}
</style>
<g>
	<g>
		<path d="M38.7,36c-1.7,0-3.3-0.6-4.7-1.6c-1.1-0.8-2-1.7-2.7-2.4l-1.1,1.1l-1,1c-1.8,1.3-3.5,1.9-5.3,1.9c-1.9,0-3.5-0.6-4.9-1.8
			c-0.4-0.3-0.8-0.9-0.6-2c0.1-0.5,0.2-0.9,0.6-1.4c0.2-0.3,0.6-0.7,1.1-1.1c0.3-0.2,0.7-0.3,1.1-0.3c0.5,0,0.9,0.2,1.2,0.5
			c0.6,0.4,1.3,0.7,1.7,0.7h0.1c0.4,0,0.9-0.3,1.8-1.1l0.6-0.6c1-0.9,1.8-1.7,2.7-2.6c0.4-0.4,1-1,1.9-1c0.8,0,1.3,0.3,2,0.9
			c1,1,2.1,2.1,3.7,3.4c0.7,0.6,1.3,0.9,1.9,0.9c0.7,0,1.2-0.2,1.8-0.8c1-1,0.8-2.5-0.4-3.7c-2.7-2.6-5.6-5.4-8.4-8.2
			c-0.2-0.2-0.3-0.3-0.4-0.4c-0.1,0-0.2,0.2-0.5,0.4c-1.1,1.1-2.2,2.2-3.3,3.3c-1.1,1.1-2.3,2.2-3.4,3.3c-0.7,0.7-1.4,1.3-2,2
			c-0.7,0.7-1.4,1.4-2.1,2c-1.5,1.5-3,3-4.6,4.5c-1.9,1.9-3.9,2.8-6,2.8c-0.7,0-1.4-0.1-2.1-0.3c-3.5-0.9-5.7-3.9-5.7-7.6
			c0-2.1,0.7-3.8,2.2-5.3c2.8-3,5.7-6,8.6-9c1.2-1.2,2.5-1.8,3.8-1.8c1.4,0,2.7,0.7,3.8,1.9l0.3,0.3c0.1,0.1,0.1,0.1,0.2,0.2
			c0.1,0.1,0.3,0.2,0.4,0.4c0.5,0.5,0.7,0.8,0.9,1.3c0.2,0.3,0.2,0.7,0.2,1c0,0.3-0.1,0.5-0.2,0.6l-0.1,0.2l-0.1,0.1
			c0,0-0.1,0.1-0.1,0.1c-0.1,0.1-0.2,0.2-0.2,0.3c0,0-0.1,0.1-0.1,0.1c-0.1,0.1-0.2,0.2-0.2,0.3c-0.2,0.2-0.5,0.5-1,0.7
			c-0.1,0.1-0.2,0.1-0.3,0.1c-0.1,0-0.1,0-0.2,0.1l-0.1,0.1h-0.3c-0.3,0-0.6,0-0.9-0.3c-0.1,0-0.2-0.1-0.3-0.2
			c-0.3-0.2-0.5-0.4-0.8-0.6L16.4,18c-0.1-0.1-0.2-0.2-0.4-0.5c0,0,0,0,0,0c0,0,0,0-0.1,0.1c-0.8,0.8-4.2,4.3-4.2,4.3
			c-0.5,0.6-1.1,1.1-1.6,1.7c-0.5,0.6-1.1,1.1-1.6,1.7C8.3,25.5,8.2,25.7,8,26c-0.2,0.2-0.4,0.4-0.6,0.7c-0.9,1-0.8,2.4,0.2,3.4
			c0.5,0.5,1.1,0.7,1.7,0.7c0.6,0,1.3-0.3,1.8-0.8c0.7-0.7,1.3-1.3,2-1.9c0.6-0.6,1.3-1.2,1.9-1.9l3.5-3.5c1.5-1.4,2.9-2.8,4.3-4.2
			c1.4-1.4,2.9-2.8,4.3-4.2c0.2-0.2,0.5-0.5,0.8-0.7c0.7-0.6,1.4-1,2.1-1.2c0.5-0.2,1-0.2,1.4-0.2c1.2,0,2.3,0.5,3.3,1.4
			c0.4,0.4,0.9,0.8,1.3,1.2c0.4,0.4,0.9,0.8,1.3,1.2c2.3,2.2,4.7,4.5,7,6.9c2.9,3,3,7.6,0.2,10.7C43,35.1,40.9,36,38.7,36z"/>
		<path class="st0" d="M16,12.3c1.2,0,2.4,0.5,3.4,1.7l0.3,0.3c0.2,0.2,0.4,0.3,0.5,0.5c0.4,0.4,0.6,0.8,0.9,1.2
			c0.1,0.2,0.1,0.5,0.1,0.8c0,0.2-0.1,0.3-0.2,0.5c-0.1,0.1-0.2,0.3-0.3,0.4c-0.1,0.1-0.2,0.3-0.3,0.4c-0.2,0.2-0.4,0.4-0.9,0.6
			c-0.2,0.1-0.3,0.1-0.5,0.2c-0.1,0-0.1,0-0.2,0c-0.2,0-0.4,0-0.5-0.1c-0.1-0.1-0.2-0.1-0.3-0.2c-0.3-0.2-0.5-0.4-0.8-0.6
			c-0.1-0.1-0.4-0.4-0.4-0.4c-0.1-0.1-0.2-0.2-0.3-0.4c-0.3-0.3-0.4-0.3-0.4-0.3c-0.1,0-0.2,0.1-0.4,0.3c-0.8,0.8-4.2,4.3-4.2,4.3
			c-1.1,1.2-2.1,2.3-3.2,3.4c-0.4,0.4-0.8,0.9-1.2,1.3c-1.1,1.2-1.1,2.9,0.2,4.1c0.5,0.5,1.3,0.9,2,0.9c0.8,0,1.5-0.3,2.1-1
			c1.3-1.3,2.6-2.5,3.9-3.8l3.5-3.5c2.9-2.8,5.7-5.6,8.6-8.4c0.2-0.2,0.4-0.4,0.8-0.6c0.6-0.5,1.3-1,1.9-1.2
			c0.4-0.2,0.9-0.2,1.3-0.2c1.1,0,2,0.4,2.9,1.3s1.7,1.6,2.6,2.5c2.4,2.3,4.7,4.5,7,6.9c2.7,2.8,2.8,7.1,0.2,10
			c-1.4,1.5-3.3,2.4-5.4,2.4c-1.6,0-3.1-0.5-4.4-1.5c-1-0.8-1.9-1.6-2.7-2.5c-0.2-0.2-0.3-0.2-0.3-0.2s-0.1,0-0.3,0.3
			c-0.8,0.8-1.5,1.5-2.1,2.1c-1.5,1.1-3.1,1.7-4.9,1.7c-1.7,0-3.2-0.5-4.6-1.7c-0.4-0.3-0.5-0.9-0.4-1.5c0.1-0.4,0.2-0.8,0.5-1.2
			c0.2-0.3,0.5-0.6,1-1c0.2-0.1,0.5-0.2,0.8-0.2c0.3,0,0.6,0.1,0.9,0.3c0.8,0.5,1.5,0.9,2,0.9h0.1c0.6,0,1.3-0.4,2.1-1.2l0.6-0.6
			c1-0.9,1.8-1.7,2.7-2.6c0.3-0.3,0.9-0.9,1.5-0.9c0.6,0,1.1,0.2,1.6,0.8c1.1,1.1,2.1,2.1,3.8,3.4c0.8,0.6,1.5,1,2.3,1
			c0.9,0,1.5-0.3,2.1-1c1.2-1.3,1-3-0.4-4.4c-2.7-2.6-5.6-5.4-8.4-8.2c-0.3-0.3-0.6-0.5-0.8-0.5c-0.1,0-0.3,0.1-0.9,0.5
			c-2.3,2.3-4.5,4.4-6.8,6.7c-1.4,1.3-2.7,2.7-4.1,4c-1.5,1.5-3,3-4.6,4.5c-1.8,1.8-3.7,2.7-5.7,2.7c-0.6,0-1.3-0.1-1.9-0.3
			C4,34.1,2,31.3,2,27.9c0-1.9,0.6-3.5,2-4.9c2.8-3,5.7-6,8.6-9C13.7,12.8,14.9,12.3,16,12.3 M16,11.3c-1.5,0-2.9,0.7-4.1,1.9
			c-2.9,3-5.8,6-8.6,9.1C1.7,23.8,1,25.6,1,27.9c0,3.9,2.4,7.1,6.1,8.1c0.7,0.2,1.5,0.4,2.2,0.4c2.3,0,4.4-1,6.4-3
			c1-0.9,1.9-1.8,2.9-2.8c-0.4,0.6-0.6,1-0.7,1.5l0,0l0,0c-0.2,1.4,0.4,2.1,0.8,2.4c1.6,1.3,3.3,1.9,5.2,1.9c1.9,0,3.7-0.6,5.5-1.9
			l0.1,0l0.1-0.1l1.8-1.8c0.7,0.7,1.5,1.4,2.4,2.1c1.5,1.1,3.2,1.7,5,1.7c2.3,0,4.5-1,6.1-2.7c2.9-3.3,2.8-8.2-0.2-11.4
			c-2.3-2.4-4.7-4.7-7-6.9c-0.4-0.4-0.9-0.8-1.3-1.2c-0.4-0.4-0.8-0.8-1.3-1.2c-1.1-1.1-2.3-1.6-3.6-1.6c-0.5,0-1.1,0-1.7,0.3
			c-0.7,0.2-1.4,0.7-2.2,1.3c-0.4,0.3-0.6,0.5-0.9,0.7c-1.4,1.4-2.9,2.8-4.3,4.2c-1.4,1.4-2.8,2.8-4.3,4.2l-3.6,3.6
			c-0.6,0.6-1.3,1.3-1.9,1.9c-0.6,0.6-1.3,1.2-1.9,1.9c-0.4,0.4-0.9,0.7-1.4,0.7c-0.5,0-1-0.2-1.3-0.6c-0.9-0.8-0.9-1.9-0.2-2.7
			c0.2-0.2,0.4-0.4,0.6-0.7c0.2-0.2,0.3-0.4,0.5-0.6c0.6-0.6,1.1-1.2,1.6-1.7c0.5-0.6,1.1-1.1,1.6-1.7c0,0,2.7-2.8,3.8-3.9
			c0,0,0.1,0.1,0.1,0.1l0.4,0.4c0.2,0.2,0.5,0.5,0.8,0.7c0.1,0.1,0.2,0.2,0.3,0.2c0.4,0.3,0.9,0.3,1.2,0.3h0.2h0.2l0.2-0.1
			c0.1,0,0.1,0,0.1-0.1c0.1,0,0.2-0.1,0.4-0.2c0.6-0.3,0.9-0.6,1.1-0.8c0.1-0.1,0.2-0.3,0.3-0.4c0,0,0-0.1,0.1-0.1
			c0.1-0.1,0.2-0.2,0.3-0.3c0,0,0-0.1,0.1-0.1l0.1-0.1l0-0.1c0,0,0-0.1,0.1-0.1c0.1-0.2,0.3-0.5,0.3-0.9c0-0.3,0-0.8-0.2-1.2
			c-0.2-0.4-0.5-0.9-1-1.4c-0.2-0.2-0.3-0.4-0.5-0.5c0,0-0.1-0.1-0.2-0.1l-0.3-0.3C19,12,17.6,11.3,16,11.3L16,11.3z M31.1,18.2
			c0.1,0,0.1-0.1,0.2-0.1c0,0,0.1,0.1,0.1,0.1c2.8,2.8,5.7,5.6,8.4,8.2c0.4,0.4,1.5,1.7,0.4,3c-0.5,0.5-0.9,0.6-1.4,0.6
			c-0.5,0-1-0.2-1.6-0.7c-1.6-1.3-2.6-2.3-3.7-3.4c-0.7-0.7-1.4-1-2.3-1c-1.1,0-1.8,0.7-2.2,1.2c-0.8,0.8-1.7,1.7-2.6,2.5l0,0l0,0
			l-0.6,0.6c-0.5,0.4-1.1,0.9-1.5,0.9H24c-0.2,0-0.7-0.1-1.4-0.6c-0.4-0.3-0.9-0.5-1.5-0.5c-0.4,0-0.9,0.2-1.2,0.3l-0.1,0
			c0.2-0.2,0.3-0.3,0.5-0.5c0.7-0.6,1.4-1.3,2-2c0.7-0.7,1.3-1.3,2-2c1.2-1.2,2.3-2.3,3.4-3.4C28.9,20.4,30,19.3,31.1,18.2
			L31.1,18.2z"/>
	</g>
</g>
</svg>
