<svg width="27" height="27" viewBox="0 0 27 27" fill="none" xmlns="http://www.w3.org/2000/svg">
<path d="M13.3945 25.9453C20.2679 25.9453 25.8398 20.3734 25.8398 13.5C25.8398 6.62664 20.2679 1.05469 13.3945 1.05469M13.3945 25.9453C6.52117 25.9453 0.949219 20.3734 0.949219 13.5M13.3945 25.9453C16.8895 25.9453 19.7227 20.3734 19.7227 13.5C19.7227 6.62664 16.8895 1.05469 13.3945 1.05469M13.3945 25.9453C9.8996 25.9453 7.06641 20.3734 7.06641 13.5C7.06641 6.62664 9.8996 1.05469 13.3945 1.05469M0.949219 13.5C0.949219 6.62664 6.52117 1.05469 13.3945 1.05469M0.949219 13.5H26.0508M5.58984 3.69141C5.58984 3.69141 13.8515 7.48828 21.1992 3.69141M21.1992 23.3086C21.1992 23.3086 12.9376 19.5117 5.58984 23.3086" stroke="#1D1E2C"/>
</svg>
