<svg width="300" height="301" viewBox="0 0 300 301" fill="none" xmlns="http://www.w3.org/2000/svg">
<rect width="300" height="301" fill="white"/>
<g clip-path="url(#clip0)">
<path d="M0 250.05H300M0 206.76H300M0 170.68H300M0 140.61H300M0 115.56H300M0 94.68H300M0 77.28H300M0 62.79H300M0 50.7H300M0 40.63H300M0 32.24H300M0 25.25H300M0 19.43H300M0 14.57H300M0 10.52H300M0 7.15H300M0 4.34H300M0 2H300V302H0V2Z" stroke="#72B4AE" stroke-miterlimit="10"/>
</g>
<defs>
<clipPath id="clip0">
<rect width="300" height="300" fill="white" transform="translate(0 1)"/>
</clipPath>
</defs>
</svg>
