<?xml version="1.0" encoding="utf-8"?>
<!-- Generator: Adobe Illustrator 25.4.0, SVG Export Plug-In . SVG Version: 6.00 Build 0)  -->
<svg version="1.1" id="Layer_1" xmlns="http://www.w3.org/2000/svg" xmlns:xlink="http://www.w3.org/1999/xlink" x="0px" y="0px"
	 viewBox="0 0 142 73" style="enable-background:new 0 0 142 73;" xml:space="preserve">
<style type="text/css">
	.st0{fill:#FFFFFF;}
</style>
<path class="st0" d="M35,5.6L35,5.6c3.2-3.2,6.5-4.9,10-4.8c3.5,0,6.8,1.8,9.9,5c0.3,0.3,0.7,0.7,1,1c0.6,0.6,1.2,1.2,1.8,1.8
	c0.9,1,1.8,2.1,2.4,3.3l0,0c0.2,0.5,0.2,1,0.2,1.4c-0.1,0.4-0.3,0.9-0.5,1.2c-0.2,0.4-0.5,0.7-0.7,1.1c-0.3,0.4-0.7,0.8-1,1.2
	c-0.7,0.7-1.5,1.3-2.3,1.7c-0.4,0.2-0.8,0.4-1.3,0.4c-0.4,0.1-1,0.1-1.4-0.2l0,0c-0.3-0.1-0.5-0.3-0.8-0.5c-0.8-0.6-1.6-1.3-2.2-2
	c-0.4-0.4-0.8-0.9-1.1-1.3l-0.1-0.1c-0.4-0.5-0.8-0.9-1.2-1.3c-1.1-1.1-2-1.5-2.7-1.6c-0.7,0-1.6,0.3-2.7,1.5l0,0
	c-2.7,2.8-5.4,5.6-8.1,8.4l0,0c-1.8,1.9-3.6,3.8-5.5,5.7c-3.6,3.7-7.2,7.5-10.7,11.3c-1.3,1.4-2.6,2.8-3.9,4.2
	c-4.4,4.8-3.9,11.4,0.6,15.8c4.5,4.4,11.2,4.4,16.1-0.3c4.3-4.1,8.5-8.3,12.8-12.4c3.9-3.8,7.9-7.7,11.8-11.6
	c9.3-9.2,18.7-18.3,28.1-27.4c0.7-0.7,1.4-1.3,2.2-1.9c1.8-1.5,3.9-2.7,6-3.5c4.5-1.7,8.8-0.2,12.2,3.1l0,0c2.8,2.7,5.6,5.4,8.5,8.1
	l0,0c7.7,7.4,15.4,14.8,22.9,22.4c8.4,8.5,8.3,21.6,0.5,30.3l0,0c-7.6,8.4-20.4,9.6-29.7,2.6c-3.1-2.3-6-5.1-8.7-7.8
	c-1.1-1.1-1.9-1.4-2.4-1.4c-0.6,0-1.3,0.4-2.3,1.5c-2.2,2.4-4.5,4.6-7.1,6.8c-8.6,7.3-20.1,7.4-28.7,0.4c-1-0.8-1-2.1-0.9-3.1
	c0.2-1.1,0.7-2.2,1.4-3.2c0.6-1,1.5-1.9,2.5-2.4c1-0.6,2.3-0.7,3.4,0.1c3.2,2.4,5.9,3.3,8.5,3.2c2.5-0.2,5.1-1.5,8.1-4.3
	c0.4-0.4,0.8-0.8,1.2-1.1c0.3-0.3,0.7-0.6,1-0.9l0,0c3-2.8,6-5.5,8.8-8.5c1.1-1.2,2.4-2.1,3.8-2.2c1.5-0.1,2.8,0.7,4.1,2
	c3.9,3.9,8,7.7,12.3,11.4l0,0c2.8,2.5,5.9,3.7,8.9,3.6c2.9-0.1,5.7-1.3,8-3.8c4.3-4.8,3.8-11.6-1.6-16.9
	c-9.2-8.9-18.4-17.8-27.4-26.9c-1.6-1.6-2.8-2.2-3.8-2.2c-1,0-2.2,0.6-3.9,2.2C83.8,21.7,76.3,29,68.9,36.2
	c-4.5,4.4-9,8.8-13.5,13.2c-5,4.9-10,9.9-15,14.9l0,0c-6.5,6.5-14,10.1-23.5,7.6C6.7,69.2,0.5,60.8,0.5,50.2
	c0-5.9,2.2-10.9,6.2-15.1C16.1,25.2,25.5,15.3,35,5.6z"/>
</svg>
