<svg xmlns="http://www.w3.org/2000/svg" viewBox="0 0 607.09 127.08"><g id="Layer_2" data-name="Layer 2"><g id="mainello"><path d="M108.88,30.22c23.4,0,33.15,14,33.15,47.46v39.16c0,5.2-2.92,8.13-8.12,8.13H132c-5.21,0-8.13-2.93-8.13-8.13V79.14c0-23.73-6.18-33.15-21.61-33.15-15.93,0-22.59,9.75-22.59,32.82v38c0,5.2-2.93,8.13-8.13,8.13h-2c-5.2,0-8.12-2.93-8.12-8.13V79.3c0-24.37-5.53-33.15-20.64-33.15C25,46.15,18.2,56.71,18.2,80.6v36.24c0,5.2-2.92,8.13-8.12,8.13h-2C2.92,125,0,122,0,116.84V40.14C0,34.94,2.92,32,8.12,32h2c5.2,0,8.12,2.93,8.12,8.13v9.42C21.46,39.16,32,30.39,46.47,30.39c15.6,0,23.24,5.85,28.28,22.1C79.14,40,91.49,30.23,108.88,30.23Zm49.39,48.27c0-32,19.5-48.26,42.58-48.26,14.62,0,27.62,7.15,33,20V40.14c0-5.2,2.92-8.13,8.12-8.13h1.95c5.2,0,8.13,2.93,8.13,8.13v76.54c0,5.2-2.93,8.13-8.13,8.13H242c-5.2,0-8.12-2.93-8.12-8.13v-9.43c-5.2,12.52-18.37,19.83-32.83,19.83C177.93,127.08,158.27,110.67,158.27,78.49Zm76,0c0-20.31-11.86-32.83-29.09-32.83-17.06,0-28.76,12.35-28.76,32.83,0,20.64,11.7,33,29.09,33C222.62,111.48,234.32,99,234.32,78.49ZM272.73,9.75c0-6.17,4.55-9.75,10.72-9.75,5.69,0,10.73,3.58,10.73,9.75s-5,9.75-10.73,9.75C277.28,19.5,272.73,15.93,272.73,9.75Zm1.53,107.09V40.14c0-5.2,2.87-8.13,8-8.13h2.07c5.1,0,8,2.93,8,8.13v76.7c0,5.2-2.88,8.13-8,8.13h-2.07C277.13,125,274.26,122,274.26,116.84ZM362.7,30.39c25.67,0,37.54,14.79,37.54,44.2v42.25c0,5.2-2.93,8.13-8.13,8.13h-1.95C385,125,382,122,382,116.84V76.05c0-20.31-7.81-29.9-25-29.9-17.55,0-24.7,11.54-24.7,32v38.67c0,5.2-2.93,8.13-8.13,8.13h-1.95c-5.2,0-8.12-2.93-8.12-8.13V40.14c0-5.2,2.92-8.13,8.12-8.13h1.95c5.2,0,8.13,2.93,8.13,8.13v9.24c4.23-10.78,14.78-19,30.38-19ZM495.78,32c5.2,0,8.12,2.92,8.12,8.12v76.7c0,5.2-2.92,8.13-8.12,8.13h-1.95c-5.2,0-8.13-2.93-8.13-8.13V107.6c-4.23,10.78-14.78,19-30.38,19-25.68,0-37.54-14.79-37.54-44.2V40.14c0-5.2,2.92-8.13,8.12-8.13h2c5.2,0,8.13,2.93,8.13,8.13V80.93c0,20.31,7.8,29.9,25,29.9,17.56,0,24.71-11.54,24.71-32V40.14c0-5.2,2.92-8.13,8.12-8.13h1.95Zm26.81,83,30.39-39L526.65,41.93c-4.22-5.53-2.76-9.92,3.09-9.92h4.55c4.23,0,7.31,1.3,9.91,4.88l19.51,26.16,19.33-26A11.26,11.26,0,0,1,593,32H596c6.83,0,9.1,4.39,4.88,9.92L574.43,76.05l30.23,39c4.22,5.53,2.76,9.92-2.93,9.92h-4.39c-4.22,0-7.31-1.3-9.91-4.88L563.87,88.4l-24,31.69c-2.6,3.58-5.69,4.88-9.92,4.88h-4.38C519.83,125,518.37,120.58,522.59,115.05Z"/></g></g></svg>