<?xml version="1.0" encoding="utf-8"?>
<!-- Generator: Adobe Illustrator 25.4.0, SVG Export Plug-In . SVG Version: 6.00 Build 0)  -->
<svg version="1.1" id="Layer_1" xmlns="http://www.w3.org/2000/svg" xmlns:xlink="http://www.w3.org/1999/xlink" x="0px" y="0px"
	 viewBox="0 0 320 80" style="enable-background:new 0 0 320 80;" xml:space="preserve">
<style type="text/css">
	.st0{opacity:0.6;fill:#FFFFFF;}
</style>
<g>
	<path d="M18.5,44.7c0-6.5,4.4-9.8,8.7-9.8c5.4,0,7.5,4,7.5,9.6v29.1h13.1V44.7c0-6.5,4.4-9.8,8.7-9.8c5.4,0,7.5,4,7.5,9.6v29.1
		h13.1V40.6c0-10.8-6.6-17.9-16.7-17.9c-7.6,0-12.3,3.7-15.3,6.8c-2.7-4.3-7.3-6.8-13.3-6.8c-6.4,0-10.8,2.8-13.4,6.1v-5.1H5.3v49.8
		h13.1V44.7z M101.3,74.3c6.5,0,11.5-2,14.6-5.5c2.2,4.2,7.2,5.9,15.6,4.6v-9.9c-2.9,0.4-4-0.5-4-3.1V40c0-11.5-7.5-17.3-20-17.3
		C95.7,22.7,88.2,29.5,86,38l12.5,2.4c1.1-4.4,3.7-6.6,8.5-6.6c5.4,0,7.6,2.7,7.6,6.9v0.8l-12.3,2.4c-10,1.8-17.8,6-17.8,15.9
		C84.5,68.4,91.6,74.3,101.3,74.3z M114.6,55.8c0,5.6-5.2,8.5-10.7,8.5c-3.9,0-6.5-2-6.5-5.4c0-4,3.2-5.4,7.5-6.2l9.7-2V55.8z
		 M138.7,17.8h13.4V5.5h-13.4V17.8z M152,23.7h-13.1v49.8H152V23.7z M162.8,73.5H176V44.7c0-6.5,4.5-9.8,9.1-9.8
		c5.6,0,7.9,4,7.9,9.6v29.1h13.1V40.6c0-10.8-6.3-17.9-16.6-17.9c-6.3,0-10.8,2.8-13.5,6.1v-5.1h-13.1V73.5z M259.5,23.7h-13.1v29.2
		c0,6.4-4.5,9.8-9.1,9.8c-5.4,0-7.9-3.6-7.9-9.1v-30h-13.1v32.9c0,10.8,6.6,17.9,16.8,17.9c6.3,0,10.6-2.9,13.3-6.2v5.1h13.1V23.7z
		 M300,73.5h14.6l-17.3-25.7l16.1-24h-14.1L290,38l-9.3-14.3H266l16.1,24l-17.2,25.7H279l10.5-15.9L300,73.5z"/>
	<path class="st0" d="M152.1,5.5v12.3h-13.4V5.5H152.1 M189.5,22.7c10.3,0,16.6,7.1,16.6,17.9v32.8H193V44.4c0-5.6-2.3-9.6-7.9-9.6
		c-4.6,0-9.1,3.3-9.1,9.8v28.8h-13.1V23.7H176v5.1C178.7,25.6,183.2,22.7,189.5,22.7 M107.5,22.7c12.5,0,20,5.8,20,17.3v20.3
		c0,2.3,0.8,3.2,2.9,3.2c0.4,0,0.7,0,1.2-0.1v9.9c-1.8,0.3-3.4,0.4-4.9,0.4c-5.5,0-9-1.8-10.7-5c-3.2,3.5-8.2,5.5-14.6,5.5
		c-9.7,0-16.8-5.9-16.8-14.7c0-9.9,7.9-14.1,17.8-15.9l12.3-2.4v-0.8c0-4.3-2.2-6.9-7.6-6.9c-4.9,0-7.4,2.2-8.5,6.6L86,38
		C88.2,29.5,95.7,22.7,107.5,22.7 M103.9,64.3c5.5,0,10.7-2.9,10.7-8.5v-5.1l-9.7,2c-4.3,0.9-7.5,2.3-7.5,6.2
		C97.4,62.3,99.9,64.3,103.9,64.3 M60.5,22.7c10.1,0,16.7,7.1,16.7,17.9v32.8H64.1V44.4c0-5.6-2.1-9.6-7.5-9.6
		c-4.3,0-8.7,3.3-8.7,9.8v28.8H34.7V44.4c0-5.6-2.1-9.6-7.5-9.6c-4.3,0-8.7,3.3-8.7,9.8v28.8H5.3V23.7h13.1v5.1
		c2.6-3.2,7-6.1,13.4-6.1c6,0,10.6,2.6,13.3,6.8C48.2,26.4,52.9,22.7,60.5,22.7 M313.5,23.7l-16.1,24l17.3,25.7H300l-10.5-15.9
		L279,73.5h-14.1l17.2-25.7l-16.1-24h14.6L290,38l9.4-14.3H313.5 M259.5,23.7v49.8h-13.1v-5.1c-2.7,3.2-7,6.2-13.3,6.2
		c-10.2,0-16.8-7.1-16.8-17.9V23.7h13.1v30c0,5.5,2.4,9.1,7.9,9.1c4.6,0,9.1-3.4,9.1-9.8V23.7H259.5 M152,23.7v49.8h-13.1V23.7H152
		 M155.1,2.5h-3h-13.4h-3v3v12.3v3h0.2v2.9v49.8v3h3H152h3v-3V23.7v-2.9h0.1v-3V5.5V2.5L155.1,2.5z M189.5,19.7
		c-4.4,0-7.9,1.2-10.5,2.7v-1.8h-3h-13.1h-3v3v49.8v3h3H176h3v-3V44.7c0-3.4,1.9-6.8,6.1-6.8c1.5,0,4.9,0,4.9,6.6v29.1v3h3h13.1h3
		v-3V40.6C209.1,27.9,201.4,19.7,189.5,19.7L189.5,19.7z M107.5,19.7c-12,0-21.6,6.9-24.4,17.5l-0.8,3.1l3.2,0.6l9.2,1.7
		c-8.7,3.2-13.2,8.9-13.2,17c0,10.2,8.3,17.7,19.8,17.7c5.7,0,10.5-1.4,14.2-4.1c3.1,2.9,7.6,3.6,11.1,3.6c1.6,0,3.4-0.1,5.3-0.4
		l2.6-0.4v-2.6v-9.9v-3.4l-3.4,0.4c-0.2,0-0.5,0.1-0.6,0.1c0-0.1,0-0.1,0-0.2V40C130.5,27.1,122.1,19.7,107.5,19.7L107.5,19.7z
		 M101.4,40.9c0.8-3.1,2.3-4.1,5.6-4.1c2.9,0,4,0.8,4.4,2.2l-9.7,1.9C101.6,40.8,101.5,40.8,101.4,40.9L101.4,40.9z M103.9,61.3
		c-3.5,0-3.5-1.8-3.5-2.4c0-1,0-2.3,5.1-3.3l6.1-1.3v1.4C111.6,60.1,106.7,61.3,103.9,61.3L103.9,61.3z M60.5,19.7
		c-5.7,0-10.6,1.8-15,5.4c-3.4-3.5-8.1-5.4-13.7-5.4c-4.4,0-7.8,1.2-10.4,2.7v-1.7h-3H5.3h-3v3v49.8v3h3h13.1h3v-3V44.7
		c0-4.7,2.9-6.8,5.7-6.8c1.5,0,4.5,0,4.5,6.6v29.1v3h3h13.1h3v-3V44.7c0-4.7,2.9-6.8,5.7-6.8c1.5,0,4.5,0,4.5,6.6v29.1v3h3h13.1h3
		v-3V40.6C80.2,28.1,72.3,19.7,60.5,19.7L60.5,19.7z M319.1,20.7h-5.6h-14.1h-1.6l-0.9,1.4L290,32.5L283.2,22l-0.9-1.4h-1.6H266
		h-3.5h-3h-13.1h-3v3v29.2c0,4.7-3.1,6.8-6.1,6.8c-1.5,0-4.9,0-4.9-6.1v-30v-3h-3h-13.1h-3v3v32.9c0,12.5,8,20.9,19.8,20.9
		c4.3,0,7.7-1.1,10.3-2.7v1.7h3h12.9h5.6H279h1.6l0.9-1.3l8-12.1l8,12.1l0.9,1.3h1.6h14.6h5.6l-3.1-4.7L301,47.7l14.9-22.4
		L319.1,20.7L319.1,20.7z M262.5,71.6V23.8l1,1.5l14.9,22.4L262.5,71.6L262.5,71.6z"/>
</g>
</svg>
