<?xml version="1.0" encoding="utf-8"?>
<!-- Generator: Adobe Illustrator 25.4.0, SVG Export Plug-In . SVG Version: 6.00 Build 0)  -->
<svg version="1.1" id="Layer_1" xmlns="http://www.w3.org/2000/svg" xmlns:xlink="http://www.w3.org/1999/xlink" x="0px" y="0px"
	 viewBox="0 0 120 32" style="enable-background:new 0 0 120 32;" xml:space="preserve">
<style type="text/css">
	.st0{fill:#FFFFFF;}
</style>
<path class="st0" d="M21.5,9.4c4.6,0,6.6,2.8,6.6,9.4v7.7c0,1-0.6,1.6-1.6,1.6h-0.4c-1,0-1.6-0.6-1.6-1.6v-7.5
	c0-4.7-1.2-6.6-4.3-6.6c-3.1,0-4.5,1.9-4.5,6.5v7.5c0,1-0.6,1.6-1.6,1.6h-0.4c-1,0-1.6-0.6-1.6-1.6v-7.4c0-4.8-1.1-6.6-4.1-6.6
	c-3.1,0-4.5,2.1-4.5,6.8v7.2c0,1-0.6,1.6-1.6,1.6H1.6c-1,0-1.6-0.6-1.6-1.6V11.4c0-1,0.6-1.6,1.6-1.6H2c1,0,1.6,0.6,1.6,1.6v1.9
	c0.6-2.1,2.7-3.8,5.6-3.8c3.1,0,4.6,1.2,5.6,4.4C15.6,11.3,18.1,9.4,21.5,9.4L21.5,9.4z M31.3,19c0-6.3,3.9-9.5,8.4-9.5
	c2.9,0,5.5,1.4,6.5,4v-2c0-1,0.6-1.6,1.6-1.6h0.4c1,0,1.6,0.6,1.6,1.6v15.1c0,1-0.6,1.6-1.6,1.6h-0.4c-1,0-1.6-0.6-1.6-1.6v-1.9
	c-1,2.5-3.6,3.9-6.5,3.9C35.2,28.6,31.3,25.3,31.3,19L31.3,19z M46.3,19c0-4-2.3-6.5-5.8-6.5c-3.4,0-5.7,2.4-5.7,6.5
	c0,4.1,2.3,6.5,5.8,6.5C44,25.5,46.3,23,46.3,19L46.3,19z M53.9,5.4c0-1.2,0.9-1.9,2.1-1.9c1.1,0,2.1,0.7,2.1,1.9s-1,1.9-2.1,1.9
	C54.8,7.3,53.9,6.6,53.9,5.4z M54.2,26.5V11.4c0-1,0.6-1.6,1.6-1.6h0.4c1,0,1.6,0.6,1.6,1.6v15.2c0,1-0.6,1.6-1.6,1.6h-0.4
	C54.8,28.1,54.2,27.6,54.2,26.5z M71.7,9.4c5.1,0,7.4,2.9,7.4,8.7v8.4c0,1-0.6,1.6-1.6,1.6h-0.4c-1,0-1.6-0.6-1.6-1.6v-8.1
	c0-4-1.5-5.9-4.9-5.9c-3.5,0-4.9,2.3-4.9,6.3v7.6c0,1-0.6,1.6-1.6,1.6h-0.4c-1,0-1.6-0.6-1.6-1.6V11.4c0-1,0.6-1.6,1.6-1.6h0.4
	c1,0,1.6,0.6,1.6,1.6v1.8C66.5,11.1,68.6,9.4,71.7,9.4L71.7,9.4z M98,9.8c1,0,1.6,0.6,1.6,1.6v15.2c0,1-0.6,1.6-1.6,1.6h-0.4
	c-1,0-1.6-0.6-1.6-1.6v-1.8c-0.8,2.1-2.9,3.8-6,3.8c-5.1,0-7.4-2.9-7.4-8.7v-8.4c0-1,0.6-1.6,1.6-1.6h0.4c1,0,1.6,0.6,1.6,1.6v8.1
	c0,4,1.5,5.9,4.9,5.9c3.5,0,4.9-2.3,4.9-6.3v-7.6c0-1,0.6-1.6,1.6-1.6L98,9.8L98,9.8z M103.3,26.2l6-7.7l-5.2-6.7
	c-0.8-1.1-0.5-2,0.6-2h0.9c0.8,0,1.4,0.3,2,1l3.9,5.2l3.8-5.1c0.4-0.7,1.2-1,2-1h0.6c1.4,0,1.8,0.9,1,2l-5.2,6.7l6,7.7
	c0.8,1.1,0.5,2-0.6,2h-0.9c-0.8,0-1.4-0.3-2-1l-4.7-6.3l-4.7,6.3c-0.5,0.7-1.1,1-2,1h-0.9C102.8,28.1,102.5,27.3,103.3,26.2
	L103.3,26.2z"/>
</svg>
