<svg width="300" height="300" viewBox="0 0 300 300" fill="none" xmlns="http://www.w3.org/2000/svg">
<rect width="300" height="300" fill="white"/>
<path d="M0 280.596C25 280.596 25 299.154 50 299.154C75 299.154 75 280.596 100 280.596C125 280.596 125 299.154 150 299.154C175 299.154 175 280.596 200 280.596C225 280.596 225 299.154 250 299.154C275 299.154 275 280.596 300 280.596M0 231.342C25 231.342 25 249.139 50 249.139C75 249.139 75 231.342 100 231.342C125 231.342 125 249.139 150 249.139C175 249.139 175 231.342 200 231.342C225 231.342 225 249.139 250 249.139C275 249.139 275 231.342 300 231.342M0 190.371C25 190.371 25 207.396 50 207.396C75 207.396 75 190.371 100 190.371C125 190.371 125 207.396 150 207.396C175 207.396 175 190.371 200 190.371C225 190.371 225 207.396 250 207.396C275 207.396 275 190.371 300 190.371M0 156.29C25 156.29 25 172.534 50 172.534C75 172.534 75 156.29 100 156.29C125 156.29 125 172.534 150 172.534C175 172.534 175 156.29 200 156.29C225 156.29 225 172.534 250 172.534C275 172.534 275 156.29 300 156.29M0 127.957C25 127.957 25 143.42 50 143.42C75 143.42 75 127.957 100 127.957C125 127.957 125 143.42 150 143.42C175 143.42 175 127.957 200 127.957C225 127.957 225 143.42 250 143.42C275 143.42 275 127.957 300 127.957M0 104.402C25 104.402 25 119.094 50 119.094C75 119.094 75 104.402 100 104.402C125 104.402 125 119.094 150 119.094C175 119.094 175 104.402 200 104.402C225 104.402 225 119.094 250 119.094C275 119.094 275 104.402 300 104.402M0 84.8427C25 84.8427 25 98.7635 50 98.7635C75 98.7635 75 84.8427 100 84.8427C125 84.8427 125 98.7635 150 98.7635C175 98.7635 175 84.8427 200 84.8427C225 84.8427 225 98.7635 250 98.7635C275 98.7635 275 84.8427 300 84.8427M0 68.6083C25 68.6083 25 81.758 50 81.758C75 81.758 75 68.6083 100 68.6083C125 68.6083 125 81.758 150 81.758C175 81.758 175 68.6083 200 68.6083C225 68.6083 225 81.758 250 81.758C275 81.758 275 68.6083 300 68.6083M0 55.1381C25 55.1381 25 67.5167 50 67.5167C75 67.5167 75 55.1381 100 55.1381C125 55.1381 125 67.5167 150 67.5167C175 67.5167 175 55.1381 200 55.1381C225 55.1381 225 67.5167 250 67.5167C275 67.5167 275 55.1381 300 55.1381M0 43.9814C25 43.9814 25 55.5888 50 55.5888C75 55.5888 75 43.9814 100 43.9814C125 43.9814 125 55.5888 150 55.5888C175 55.5888 175 43.9814 200 43.9814C225 43.9814 225 55.5888 250 55.5888C275 55.5888 275 43.9814 300 43.9814M0 34.7576C25 34.7576 25 45.5838 50 45.5838C75 45.5838 75 34.7576 100 34.7576C125 34.7576 125 45.5838 150 45.5838C175 45.5838 175 34.7576 200 34.7576C225 34.7576 225 45.5838 250 45.5838C275 45.5838 275 34.7576 300 34.7576M0 27.1262C25 27.1262 25 37.1412 50 37.1412C75 37.1412 75 27.1262 100 27.1262C125 27.1262 125 37.1412 150 37.1412C175 37.1412 175 27.1262 200 27.1262C225 27.1262 225 37.1412 250 37.1412C275 37.1412 275 27.1262 300 27.1262M0 20.8267C25 20.8267 25 30.1107 50 30.1107C75 30.1107 75 20.8267 100 20.8267C125 20.8267 125 30.1107 150 30.1107C175 30.1107 175 20.8267 200 20.8267C225 20.8267 225 30.1107 250 30.1107C275 30.1107 275 20.8267 300 20.8267M0 15.649C25 15.649 25 24.1617 50 24.1617C75 24.1617 75 15.649 100 15.649C125 15.649 125 24.1617 150 24.1617C175 24.1617 175 15.649 200 15.649C225 15.649 225 24.1617 250 24.1617C275 24.1617 275 15.649 300 15.649M0 11.4026C25 11.4026 25 19.1342 50 19.1342C75 19.1342 75 11.4026 100 11.4026C125 11.4026 125 19.1342 150 19.1342C175 19.1342 175 11.4026 200 11.4026C225 11.4026 225 19.1342 250 19.1342C275 19.1342 275 11.4026 300 11.4026M0 7.87735C25 7.87735 25 14.8879 50 14.8879C75 14.8879 75 7.87735 100 7.87735C125 7.87735 125 14.8879 150 14.8879C175 14.8879 175 7.87735 200 7.87735C225 7.87735 225 14.8879 250 14.8879C275 14.8879 275 7.87735 300 7.87735M0 5.08316C25 5.08316 25 11.2724 50 11.2724C75 11.2724 75 5.08316 100 5.08316C125 5.08316 125 11.2724 150 11.2724C175 11.2724 175 5.08316 200 5.08316C225 5.08316 225 11.2724 250 11.2724C275 11.2724 275 5.08316 300 5.08316M0 2.78973C25 2.78973 25 8.19783 50 8.19783C75 8.19783 75 2.78973 100 2.78973C125 2.78973 125 8.19783 150 8.19783C175 8.19783 175 2.78973 200 2.78973C225 2.78973 225 8.19783 250 8.19783C275 8.19783 275 2.78973 300 2.78973M0 0.936951C25 0.936951 25 5.5739 50 5.5739C75 5.5739 75 0.936951 100 0.936951C125 0.936951 125 5.5739 150 5.5739C175 5.5739 175 0.936951 200 0.936951C225 0.936951 225 5.5739 250 5.5739C275 5.5739 275 0.936951 300 0.936951" stroke="#72B4AE" stroke-miterlimit="10"/>
</svg>
