<?xml version="1.0" encoding="utf-8"?>
<!-- Generator: Adobe Illustrator 25.4.0, SVG Export Plug-In . SVG Version: 6.00 Build 0)  -->
<svg version="1.1" id="Layer_1" xmlns="http://www.w3.org/2000/svg" xmlns:xlink="http://www.w3.org/1999/xlink" x="0px" y="0px"
	 viewBox="0 0 300 300" style="enable-background:new 0 0 300 300;" xml:space="preserve">
<style type="text/css">
	.st0{fill:#72B4AE;}
</style>
<path class="st0" d="M250,299.7c-12.7,0-19.1-4.8-25.3-9.4c-6.4-4.7-12.4-9.2-24.7-9.2s-18.3,4.5-24.7,9.2
	c-6.2,4.6-12.6,9.4-25.3,9.4c-12.7,0-19.1-4.8-25.3-9.4c-6.4-4.7-12.4-9.2-24.7-9.2s-18.3,4.5-24.7,9.2c-6.2,4.6-12.6,9.4-25.3,9.4
	s-19.1-4.8-25.3-9.4c-6.4-4.7-12.4-9.2-24.7-9.2v-1c12.7,0,19.1,4.8,25.3,9.4c6.4,4.7,12.4,9.2,24.7,9.2s18.3-4.5,24.7-9.2
	c6.2-4.6,12.6-9.4,25.3-9.4s19.1,4.8,25.3,9.4c6.4,4.7,12.4,9.2,24.7,9.2c12.3,0,18.3-4.5,24.7-9.2c6.2-4.6,12.6-9.4,25.3-9.4
	s19.1,4.8,25.3,9.4c6.4,4.7,12.4,9.2,24.7,9.2s18.3-4.5,24.7-9.2c6.2-4.6,12.6-9.4,25.3-9.4v1c-12.3,0-18.3,4.5-24.7,9.2
	C269.1,294.9,262.7,299.7,250,299.7z M250,249.6c-12.7,0-19.1-4.6-25.3-9c-6.4-4.5-12.4-8.8-24.7-8.8s-18.3,4.3-24.7,8.8
	c-6.2,4.4-12.6,9-25.3,9c-12.7,0-19.1-4.6-25.3-9c-6.4-4.5-12.4-8.8-24.7-8.8s-18.3,4.3-24.7,8.8c-6.2,4.4-12.6,9-25.3,9
	s-19.1-4.6-25.3-9c-6.4-4.5-12.4-8.8-24.7-8.8v-1c12.7,0,19.1,4.6,25.3,9c6.4,4.5,12.4,8.8,24.7,8.8s18.3-4.3,24.7-8.8
	c6.2-4.4,12.6-9,25.3-9s19.1,4.6,25.3,9c6.4,4.5,12.4,8.8,24.7,8.8c12.3,0,18.3-4.3,24.7-8.8c6.2-4.4,12.6-9,25.3-9s19.1,4.6,25.3,9
	c6.4,4.5,12.4,8.8,24.7,8.8s18.3-4.3,24.7-8.8c6.2-4.4,12.6-9,25.3-9v1c-12.3,0-18.3,4.3-24.7,8.8
	C269.1,245.1,262.7,249.6,250,249.6z M250,207.9c-12.7,0-19.1-4.4-25.3-8.6c-6.4-4.3-12.4-8.4-24.7-8.4s-18.4,4.1-24.7,8.4
	c-6.2,4.2-12.6,8.6-25.3,8.6s-19.1-4.4-25.3-8.6c-6.4-4.3-12.4-8.4-24.7-8.4s-18.4,4.1-24.7,8.4c-6.2,4.2-12.6,8.6-25.3,8.6
	s-19.1-4.4-25.3-8.6c-6.4-4.3-12.4-8.4-24.7-8.4v-1c12.7,0,19.1,4.4,25.3,8.6c6.4,4.3,12.4,8.4,24.7,8.4s18.4-4.1,24.7-8.4
	c6.2-4.2,12.6-8.6,25.3-8.6s19.1,4.4,25.3,8.6c6.4,4.3,12.4,8.4,24.7,8.4s18.4-4.1,24.7-8.4c6.2-4.2,12.6-8.6,25.3-8.6
	s19.1,4.4,25.3,8.6c6.4,4.3,12.4,8.4,24.7,8.4s18.4-4.1,24.7-8.4c6.2-4.2,12.6-8.6,25.3-8.6v1c-12.3,0-18.4,4.1-24.7,8.4
	C269.1,203.5,262.7,207.9,250,207.9z M250,173c-12.6,0-19.1-4.2-25.3-8.2c-6.4-4.1-12.4-8-24.7-8s-18.4,3.9-24.7,8
	c-6.2,4-12.6,8.2-25.3,8.2c-12.6,0-19.1-4.2-25.3-8.2c-6.4-4.1-12.4-8-24.7-8s-18.4,3.9-24.7,8c-6.2,4-12.6,8.2-25.3,8.2
	s-19.1-4.2-25.3-8.2c-6.4-4.1-12.4-8-24.7-8v-1c12.6,0,19.1,4.2,25.3,8.2c6.4,4.1,12.4,8,24.7,8s18.4-3.9,24.7-8
	c6.2-4,12.6-8.2,25.3-8.2s19.1,4.2,25.3,8.2c6.4,4.1,12.4,8,24.7,8c12.4,0,18.4-3.9,24.7-8c6.2-4,12.6-8.2,25.3-8.2
	s19.1,4.2,25.3,8.2c6.4,4.1,12.4,8,24.7,8s18.4-3.9,24.7-8c6.2-4,12.6-8.2,25.3-8.2v1c-12.4,0-18.4,3.9-24.7,8
	C269.1,168.9,262.6,173,250,173z M250,143.9c-12.6,0-19.1-4-25.3-7.8c-6.4-3.9-12.4-7.7-24.7-7.7s-18.4,3.7-24.7,7.7
	c-6.2,3.8-12.6,7.8-25.3,7.8c-12.6,0-19.1-4-25.3-7.8c-6.4-3.9-12.4-7.7-24.7-7.7s-18.4,3.7-24.7,7.7c-6.2,3.8-12.6,7.8-25.3,7.8
	s-19.1-4-25.3-7.8c-6.4-3.9-12.4-7.7-24.7-7.7v-1c12.6,0,19.1,4,25.3,7.8c6.4,3.9,12.4,7.7,24.7,7.7s18.4-3.7,24.7-7.7
	c6.2-3.8,12.6-7.8,25.3-7.8s19.1,4,25.3,7.8c6.4,3.9,12.4,7.7,24.7,7.7c12.4,0,18.4-3.7,24.7-7.7c6.2-3.8,12.6-7.8,25.3-7.8
	s19.1,4,25.3,7.8c6.4,3.9,12.4,7.7,24.7,7.7s18.4-3.7,24.7-7.7c6.2-3.8,12.6-7.8,25.3-7.8v1c-12.4,0-18.4,3.7-24.7,7.7
	C269.1,140,262.6,143.9,250,143.9z M250,119.6c-12.6,0-19-3.8-25.3-7.4c-6.1-3.6-12.4-7.3-24.7-7.3s-18.7,3.7-24.7,7.3
	c-6.2,3.6-12.6,7.4-25.3,7.4c-12.6,0-19.1-3.8-25.3-7.4c-6.1-3.6-12.4-7.3-24.7-7.3s-18.7,3.7-24.7,7.3c-6.2,3.6-12.6,7.4-25.3,7.4
	s-19.1-3.8-25.3-7.4c-6.1-3.6-12.4-7.3-24.7-7.3v-1c12.6,0,19.1,3.8,25.3,7.4c6.1,3.6,12.4,7.3,24.7,7.3s18.7-3.7,24.7-7.3
	c6.2-3.6,12.6-7.4,25.3-7.4s19.1,3.8,25.3,7.4c6.1,3.6,12.4,7.3,24.7,7.3c12.4,0,18.7-3.7,24.7-7.3c6.2-3.6,12.6-7.4,25.3-7.4
	s19,3.8,25.3,7.4c6.1,3.6,12.4,7.3,24.7,7.3s18.7-3.7,24.7-7.3c6.2-3.6,12.6-7.4,25.3-7.4v1c-12.4,0-18.7,3.7-24.7,7.3
	C269,115.8,262.6,119.6,250,119.6z M250,99.3c-12.6,0-19-3.6-25.2-7c-6.1-3.4-12.4-6.9-24.8-6.9s-18.7,3.5-24.8,6.9
	c-6.2,3.5-12.6,7-25.2,7s-19-3.6-25.2-7c-6.1-3.4-12.4-6.9-24.8-6.9s-18.7,3.5-24.8,6.9c-6.2,3.5-12.6,7-25.2,7s-19-3.6-25.2-7
	c-6.1-3.4-12.4-6.9-24.8-6.9v-1c12.6,0,19,3.6,25.2,7c6.1,3.4,12.4,6.9,24.8,6.9s18.7-3.5,24.8-6.9c6.2-3.5,12.6-7,25.2-7
	s19,3.6,25.2,7c6.1,3.4,12.4,6.9,24.8,6.9s18.7-3.5,24.8-6.9c6.2-3.5,12.6-7,25.2-7s19,3.6,25.2,7c6.1,3.4,12.4,6.9,24.8,6.9
	s18.7-3.5,24.8-6.9c6.2-3.5,12.6-7,25.2-7v1c-12.4,0-18.7,3.5-24.8,6.9C269,95.7,262.6,99.3,250,99.3z M250,82.3
	c-12.6,0-19-3.4-25.2-6.6c-6.1-3.2-12.4-6.5-24.8-6.5s-18.7,3.3-24.8,6.5c-6.2,3.3-12.6,6.6-25.2,6.6c-12.6,0-19-3.4-25.2-6.6
	c-6.1-3.2-12.4-6.5-24.8-6.5s-18.7,3.3-24.8,6.5C69,78.9,62.6,82.3,50,82.3s-19-3.4-25.2-6.6c-6.1-3.2-12.4-6.5-24.8-6.5v-1
	c12.6,0,19,3.4,25.2,6.6c6.1,3.2,12.4,6.5,24.8,6.5s18.7-3.3,24.8-6.5c6.2-3.3,12.6-6.6,25.2-6.6s19,3.4,25.2,6.6
	c6.1,3.2,12.4,6.5,24.8,6.5c12.4,0,18.7-3.3,24.8-6.5c6.2-3.3,12.6-6.6,25.2-6.6s19,3.4,25.2,6.6c6.1,3.2,12.4,6.5,24.8,6.5
	s18.7-3.3,24.8-6.5c6.2-3.3,12.6-6.6,25.2-6.6v1c-12.4,0-18.7,3.3-24.8,6.5C269,78.9,262.6,82.3,250,82.3z M250,68
	c-12.6,0-19-3.2-25.2-6.2c-6.1-3-12.4-6.1-24.8-6.1s-18.7,3.1-24.8,6.1C169,64.8,162.6,68,150,68s-19-3.2-25.2-6.2
	c-6.1-3-12.4-6.1-24.8-6.1s-18.7,3.1-24.8,6.1C69,64.8,62.6,68,50,68s-19-3.2-25.2-6.2c-6.1-3-12.4-6.1-24.8-6.1v-1
	c12.6,0,19,3.2,25.2,6.2c6.1,3,12.4,6.1,24.8,6.1s18.7-3.1,24.8-6.1c6.2-3.1,12.6-6.2,25.2-6.2s19,3.2,25.2,6.2
	c6.1,3,12.4,6.1,24.8,6.1s18.7-3.1,24.8-6.1c6.2-3.1,12.6-6.2,25.2-6.2s19,3.2,25.2,6.2c6.1,3,12.4,6.1,24.8,6.1s18.7-3.1,24.8-6.1
	c6.2-3.1,12.6-6.2,25.2-6.2v1c-12.4,0-18.7,3.1-24.8,6.1C269,64.8,262.6,68,250,68z M250,56.1c-12.6,0-19-3-25.2-5.9
	c-6.1-2.8-12.4-5.8-24.8-5.8s-18.7,2.9-24.8,5.8c-6.2,2.9-12.6,5.9-25.2,5.9s-19-3-25.2-5.9c-6.1-2.8-12.4-5.8-24.8-5.8
	s-18.7,2.9-24.8,5.8C69,53.1,62.6,56.1,50,56.1s-19-3-25.2-5.9c-6.1-2.8-12.4-5.8-24.8-5.8v-1c12.6,0,19,3,25.2,5.9
	c6.1,2.8,12.4,5.8,24.8,5.8s18.7-2.9,24.8-5.8c6.2-2.9,12.6-5.9,25.2-5.9s19,3,25.2,5.9c6.1,2.8,12.4,5.8,24.8,5.8
	s18.7-2.9,24.8-5.8c6.2-2.9,12.6-5.9,25.2-5.9s19,3,25.2,5.9c6.1,2.8,12.4,5.8,24.8,5.8s18.7-2.9,24.8-5.8
	c6.2-2.9,12.6-5.9,25.2-5.9v1c-12.4,0-18.7,2.9-24.8,5.8C269,53.1,262.6,56.1,250,56.1z M250,46.1c-12.6,0-19-2.8-25.2-5.5
	c-6.1-2.6-12.4-5.4-24.8-5.4s-18.7,2.7-24.8,5.4c-6.2,2.7-12.6,5.5-25.2,5.5s-19-2.8-25.2-5.5c-6.1-2.6-12.4-5.4-24.8-5.4
	S81.3,38,75.2,40.6C69,43.3,62.6,46.1,50,46.1s-19-2.8-25.2-5.5C18.7,38,12.4,35.3,0,35.3v-1c12.6,0,19,2.8,25.2,5.5
	c6.1,2.6,12.4,5.4,24.8,5.4s18.7-2.7,24.8-5.4C81,37,87.4,34.3,100,34.3s19,2.8,25.2,5.5c6.1,2.6,12.4,5.4,24.8,5.4
	s18.7-2.7,24.8-5.4c6.2-2.7,12.6-5.5,25.2-5.5s19,2.8,25.2,5.5c6.1,2.6,12.4,5.4,24.8,5.4s18.7-2.7,24.8-5.4
	c6.2-2.7,12.6-5.5,25.2-5.5v1c-12.4,0-18.7,2.7-24.8,5.4C269,43.3,262.6,46.1,250,46.1z M250,37.6c-12.6,0-19-2.6-25.2-5
	c-6.1-2.4-12.4-5-24.8-5s-18.7,2.5-24.8,5c-6.2,2.5-12.6,5-25.2,5c-12.6,0-19-2.6-25.2-5c-6.1-2.4-12.4-5-24.8-5s-18.7,2.5-24.8,5
	c-6.2,2.5-12.6,5-25.2,5s-19-2.6-25.2-5c-6.1-2.4-12.4-5-24.8-5v-1c12.6,0,19,2.6,25.2,5c6.1,2.4,12.4,5,24.8,5s18.7-2.5,24.8-5
	c6.2-2.5,12.6-5,25.2-5s19,2.6,25.2,5c6.1,2.4,12.4,5,24.8,5c12.4,0,18.7-2.5,24.8-5c6.2-2.5,12.6-5,25.2-5s19,2.6,25.2,5
	c6.1,2.4,12.4,5,24.8,5s18.7-2.5,24.8-5c6.2-2.5,12.6-5,25.2-5v1c-12.4,0-18.7,2.5-24.8,5C269,35.1,262.6,37.6,250,37.6z M250,30.6
	c-12.6,0-19-2.4-25.2-4.7c-6.1-2.3-12.4-4.6-24.8-4.6s-18.7,2.3-24.8,4.6c-6.2,2.3-12.6,4.7-25.2,4.7s-19-2.4-25.2-4.7
	c-6.1-2.3-12.4-4.6-24.8-4.6s-18.7,2.3-24.8,4.6C69,28.2,62.6,30.6,50,30.6s-19-2.4-25.2-4.7c-6.1-2.3-12.4-4.6-24.8-4.6v-1
	c12.6,0,19,2.4,25.2,4.7c6.1,2.3,12.4,4.6,24.8,4.6s18.7-2.3,24.8-4.6c6.2-2.3,12.6-4.7,25.2-4.7s19,2.4,25.2,4.7
	c6.1,2.3,12.4,4.6,24.8,4.6s18.7-2.3,24.8-4.6c6.2-2.3,12.6-4.7,25.2-4.7s19,2.4,25.2,4.7c6.1,2.3,12.4,4.6,24.8,4.6
	s18.7-2.3,24.8-4.6c6.2-2.3,12.6-4.7,25.2-4.7v1c-12.4,0-18.7,2.3-24.8,4.6C269,28.2,262.6,30.6,250,30.6z M250,24.7
	c-12.6,0-19-2.2-25.2-4.3c-6.1-2.1-12.4-4.2-24.8-4.2s-18.7,2.2-24.8,4.2c-6.2,2.1-12.6,4.3-25.2,4.3s-19-2.2-25.2-4.3
	c-6.1-2.1-12.4-4.2-24.8-4.2s-18.7,2.2-24.8,4.2C69,22.5,62.6,24.7,50,24.7s-19-2.2-25.2-4.3c-6.1-2.1-12.4-4.2-24.8-4.2v-1
	c12.6,0,19,2.2,25.2,4.3c6.1,2.1,12.4,4.2,24.8,4.2s18.7-2.2,24.8-4.2c6.2-2.1,12.6-4.3,25.2-4.3s19,2.2,25.2,4.3
	c6.1,2.1,12.4,4.2,24.8,4.2s18.7-2.2,24.8-4.2c6.2-2.1,12.6-4.3,25.2-4.3s19,2.2,25.2,4.3c6.1,2.1,12.4,4.2,24.8,4.2
	s18.7-2.2,24.8-4.2c6.2-2.1,12.6-4.3,25.2-4.3v1c-12.4,0-18.7,2.2-24.8,4.2C269,22.5,262.6,24.7,250,24.7z M250,19.6
	c-12.6,0-19-2-25.1-3.9c-6.1-1.9-12.4-3.8-24.9-3.8s-18.7,2-24.9,3.8c-6.2,1.9-12.6,3.9-25.1,3.9c-12.6,0-19-2-25.1-3.9
	c-6.1-1.9-12.4-3.8-24.9-3.8s-18.7,2-24.9,3.8C69,17.7,62.6,19.6,50,19.6s-19-2-25.1-3.9c-6.1-1.9-12.4-3.8-24.9-3.8v-1
	c12.6,0,19,2,25.1,3.9c6.1,1.9,12.4,3.8,24.9,3.8s18.7-2,24.9-3.8c6.2-1.9,12.6-3.9,25.1-3.9s19,2,25.1,3.9
	c6.1,1.9,12.4,3.8,24.9,3.8c12.4,0,18.7-2,24.9-3.8c6.2-1.9,12.6-3.9,25.1-3.9s19,2,25.1,3.9c6.1,1.9,12.4,3.8,24.9,3.8
	s18.7-2,24.9-3.8c6.2-1.9,12.6-3.9,25.1-3.9v1c-12.4,0-18.7,2-24.9,3.8C269,17.7,262.6,19.6,250,19.6z M250,15.4
	c-12.6,0-19-1.8-25.1-3.5c-6.1-1.7-12.4-3.5-24.9-3.5s-18.8,1.8-24.9,3.5c-6.2,1.7-12.6,3.5-25.1,3.5c-12.6,0-19-1.8-25.1-3.5
	c-6.1-1.7-12.4-3.5-24.9-3.5s-18.8,1.8-24.9,3.5C69,13.6,62.6,15.4,50,15.4s-19-1.8-25.1-3.5C18.8,10.1,12.4,8.4,0,8.4v-1
	c12.6,0,19,1.8,25.1,3.5c6.1,1.7,12.4,3.5,24.9,3.5s18.8-1.8,24.9-3.5C81,9.2,87.4,7.4,100,7.4s19,1.8,25.1,3.5
	c6.1,1.7,12.4,3.5,24.9,3.5c12.4,0,18.8-1.8,24.9-3.5c6.2-1.7,12.6-3.5,25.1-3.5s19,1.8,25.1,3.5c6.1,1.7,12.4,3.5,24.9,3.5
	s18.8-1.8,24.9-3.5c6.2-1.7,12.6-3.5,25.1-3.5v1c-12.4,0-18.8,1.8-24.9,3.5C269,13.6,262.6,15.4,250,15.4z M250,11.8
	c-12.6,0-18.9-1.6-25.1-3.1c-6.1-1.5-12.4-3.1-24.9-3.1s-18.8,1.6-24.9,3.1c-6.2,1.5-12.6,3.1-25.1,3.1c-12.6,0-18.9-1.6-25.1-3.1
	c-6.1-1.5-12.4-3.1-24.9-3.1S81.2,7.1,75.1,8.7c-6.2,1.5-12.6,3.1-25.1,3.1s-18.9-1.6-25.1-3.1C18.8,7.1,12.4,5.6,0,5.6v-1
	c12.6,0,18.9,1.6,25.1,3.1c6.1,1.5,12.4,3.1,24.9,3.1s18.8-1.6,24.9-3.1c6.2-1.5,12.6-3.1,25.1-3.1s18.9,1.6,25.1,3.1
	c6.1,1.5,12.4,3.1,24.9,3.1c12.4,0,18.8-1.6,24.9-3.1c6.2-1.5,12.6-3.1,25.1-3.1s18.9,1.6,25.1,3.1c6.1,1.5,12.4,3.1,24.9,3.1
	s18.8-1.6,24.9-3.1c6.2-1.5,12.6-3.1,25.1-3.1v1c-12.4,0-18.8,1.6-24.9,3.1C268.9,10.2,262.6,11.8,250,11.8z M250,8.7
	c-12.6,0-18.9-1.4-25.1-2.7c-6.1-1.3-12.4-2.7-24.9-2.7S181.2,4.7,175.1,6c-6.2,1.3-12.6,2.7-25.1,2.7c-12.6,0-18.9-1.4-25.1-2.7
	c-6.1-1.3-12.4-2.7-24.9-2.7S81.2,4.7,75.1,6C68.9,7.3,62.6,8.7,50,8.7S31.1,7.3,24.9,6C18.8,4.7,12.4,3.3,0,3.3v-1
	c12.6,0,18.9,1.4,25.1,2.7C31.2,6.3,37.6,7.7,50,7.7S68.8,6.3,74.9,5c6.2-1.3,12.6-2.7,25.1-2.7s18.9,1.4,25.1,2.7
	c6.1,1.3,12.4,2.7,24.9,2.7c12.4,0,18.8-1.4,24.9-2.7c6.2-1.3,12.6-2.7,25.1-2.7s18.9,1.4,25.1,2.7c6.1,1.3,12.4,2.7,24.9,2.7
	s18.8-1.4,24.9-2.7c6.2-1.3,12.6-2.7,25.1-2.7v1c-12.4,0-18.8,1.4-24.9,2.7C268.9,7.3,262.6,8.7,250,8.7z M250,6.1
	c-12.5,0-18.9-1.2-25.1-2.3c-6.1-1.1-12.5-2.3-24.9-2.3s-18.8,1.2-24.9,2.3c-6.2,1.1-12.5,2.3-25.1,2.3s-18.9-1.2-25.1-2.3
	c-6.1-1.1-12.5-2.3-24.9-2.3S81.2,2.6,75.1,3.7C68.9,4.9,62.5,6.1,50,6.1S31.1,4.9,24.9,3.7C18.8,2.6,12.5,1.4,0,1.4v-1
	c12.5,0,18.9,1.2,25.1,2.3C31.2,3.9,37.5,5.1,50,5.1s18.8-1.2,24.9-2.3c6.2-1.1,12.5-2.3,25.1-2.3s18.9,1.2,25.1,2.3
	c6.1,1.1,12.5,2.3,24.9,2.3s18.8-1.2,24.9-2.3c6.2-1.1,12.5-2.3,25.1-2.3s18.9,1.2,25.1,2.3c6.1,1.1,12.5,2.3,24.9,2.3
	s18.8-1.2,24.9-2.3c6.2-1.1,12.5-2.3,25.1-2.3v1c-12.5,0-18.8,1.2-24.9,2.3C268.9,4.9,262.5,6.1,250,6.1z"/>
</svg>
