<svg xmlns="http://www.w3.org/2000/svg" viewBox="0 0 2701 1701"><defs><style>.cls-1{fill:#4c8787;stroke:#231f20;stroke-miterlimit:10;}.cls-2{fill:#fff;}</style></defs><g id="Layer_2" data-name="Layer 2"><g id="art"><rect class="cls-1" x="0.5" y="0.5" width="2700" height="1700"/><path class="cls-2" d="M1750.5,948.5h-100a2,2,0,0,0-2,2v100a2,2,0,0,0,2,2h100a2,2,0,0,0,2-2v-100A2,2,0,0,0,1750.5,948.5Zm-82,100h-16v-16h16Zm0-20h-16v-16h16Zm0-20h-16v-16h16Zm0-20h-16v-16h16Zm0-20h-16v-16h16Zm20,80h-16v-16h16Zm0-20h-16v-16h16Zm0-20h-16v-16h16Zm0-20h-16v-16h16Zm0-20h-16v-16h16Zm20,80h-16v-16h16Zm0-20h-16v-16h16Zm0-20h-16v-16h16Zm0-20h-16v-16h16Zm0-20h-16v-16h16Zm20,80h-16v-16h16Zm0-20h-16v-16h16Zm0-20h-16v-16h16Zm0-20h-16v-16h16Zm0-20h-16v-16h16Zm20,80h-16v-16h16Zm0-20h-16v-16h16Zm0-20h-16v-16h16Zm0-20h-16v-16h16Zm0-20h-16v-16h16Zm902,680h-100a2,2,0,0,0-2,2v50h4v-8h16v8h4v-8h16v8h4v-8h16v8h4v-8h16v8h4v-8h16v8h4v-50A2,2,0,0,0,2650.5,1648.5Zm-82,40h-16v-16h16Zm0-20h-16v-16h16Zm20,20h-16v-16h16Zm0-20h-16v-16h16Zm20,20h-16v-16h16Zm0-20h-16v-16h16Zm20,20h-16v-16h16Zm0-20h-16v-16h16Zm20,20h-16v-16h16Zm0-20h-16v-16h16Zm-1998-320h-100a2,2,0,0,0-2,2v100a2,2,0,0,0,2,2h100a2,2,0,0,0,2-2v-100A2,2,0,0,0,650.5,1348.5Zm-82,100h-16v-16h16Zm0-20h-16v-16h16Zm0-20h-16v-16h16Zm0-20h-16v-16h16Zm0-20h-16v-16h16Zm20,80h-16v-16h16Zm0-20h-16v-16h16Zm0-20h-16v-16h16Zm0-20h-16v-16h16Zm0-20h-16v-16h16Zm20,80h-16v-16h16Zm0-20h-16v-16h16Zm0-20h-16v-16h16Zm0-20h-16v-16h16Zm0-20h-16v-16h16Zm20,80h-16v-16h16Zm0-20h-16v-16h16Zm0-20h-16v-16h16Zm0-20h-16v-16h16Zm0-20h-16v-16h16Zm20,80h-16v-16h16Zm0-20h-16v-16h16Zm0-20h-16v-16h16Zm0-20h-16v-16h16Zm0-20h-16v-16h16Zm302-920h-100a2,2,0,0,0-2,2v100a2,2,0,0,0,2,2h100a2,2,0,0,0,2-2v-100A2,2,0,0,0,950.5,448.5Zm-82,100h-16v-16h16Zm0-20h-16v-16h16Zm0-20h-16v-16h16Zm0-20h-16v-16h16Zm0-20h-16v-16h16Zm20,80h-16v-16h16Zm0-20h-16v-16h16Zm0-20h-16v-16h16Zm0-20h-16v-16h16Zm0-20h-16v-16h16Zm20,80h-16v-16h16Zm0-20h-16v-16h16Zm0-20h-16v-16h16Zm0-20h-16v-16h16Zm0-20h-16v-16h16Zm20,80h-16v-16h16Zm0-20h-16v-16h16Zm0-20h-16v-16h16Zm0-20h-16v-16h16Zm0-20h-16v-16h16Zm20,80h-16v-16h16Zm0-20h-16v-16h16Zm0-20h-16v-16h16Zm0-20h-16v-16h16Zm0-20h-16v-16h16Zm902-20h-100a2,2,0,0,0-2,2v100a2,2,0,0,0,2,2h100a2,2,0,0,0,2-2v-100A2,2,0,0,0,1850.5,448.5Zm-82,100h-16v-16h16Zm0-20h-16v-16h16Zm0-20h-16v-16h16Zm0-20h-16v-16h16Zm0-20h-16v-16h16Zm20,80h-16v-16h16Zm0-20h-16v-16h16Zm0-20h-16v-16h16Zm0-20h-16v-16h16Zm0-20h-16v-16h16Zm20,80h-16v-16h16Zm0-20h-16v-16h16Zm0-20h-16v-16h16Zm0-20h-16v-16h16Zm0-20h-16v-16h16Zm20,80h-16v-16h16Zm0-20h-16v-16h16Zm0-20h-16v-16h16Zm0-20h-16v-16h16Zm0-20h-16v-16h16Zm20,80h-16v-16h16Zm0-20h-16v-16h16Zm0-20h-16v-16h16Zm0-20h-16v-16h16Zm0-20h-16v-16h16Zm-1598,280h-100a2,2,0,0,0-2,2v100a2,2,0,0,0,2,2h100a2,2,0,0,0,2-2v-100A2,2,0,0,0,250.5,748.5Zm-82,100h-16v-16h16Zm0-20h-16v-16h16Zm0-20h-16v-16h16Zm0-20h-16v-16h16Zm0-20h-16v-16h16Zm20,80h-16v-16h16Zm0-20h-16v-16h16Zm0-20h-16v-16h16Zm0-20h-16v-16h16Zm0-20h-16v-16h16Zm20,80h-16v-16h16Zm0-20h-16v-16h16Zm0-20h-16v-16h16Zm0-20h-16v-16h16Zm0-20h-16v-16h16Zm20,80h-16v-16h16Zm0-20h-16v-16h16Zm0-20h-16v-16h16Zm0-20h-16v-16h16Zm0-20h-16v-16h16Zm20,80h-16v-16h16Zm0-20h-16v-16h16Zm0-20h-16v-16h16Zm0-20h-16v-16h16Zm0-20h-16v-16h16Zm1954,930v-96h196v98h4.83l-.83-.83V1602.5h96v98h4v-98h196v98h2v-102h-198v-96h198V1297.67l-98,98V1202.5h98v-4h-98v-196h98v-4h-98v-96h98v-4h-98a102.13,102.13,0,0,0-100-100v-96h196v98a2,2,0,0,0,.59,1.41l1.41,1.42V598.5h-198v-96a102.13,102.13,0,0,0,100-100h98v-4h-98v-96h98V.5H.5v302h98v96H.5v4h98v196H.5V803.33L95.67,898.5H.5v4h98v96H.5v4h98v196H.5v104.83l.83-.83H98.5v196H.5v202h102v-98h196v98h4V1528.82a102.2,102.2,0,0,0,96,73.66v98h4v-98h96v98h204v-198h96a102.13,102.13,0,0,0,100,100v98h422.12a102,102,0,0,0-18.12-2v-96h196v98h4.83l-.83-.83V1602.5h96v98h4v-98h196v98h422.12A102,102,0,0,0,2202.5,1698.52Zm-2104,0H2.5V1505.33l96,96Zm0-102.83L5.33,1502.5H98.5Zm0-297.17H2.5v-96h96Zm0-402.83-96-96V702.5h96Zm0-197.17H2.5v-96h96Zm0-400H2.5v-16h96Zm0-20H2.5v-16h96Zm0-20H2.5v-16h96Zm0-20H2.5v-16h96Zm0-20H2.5v-16h96Zm0-20H2.5V28.82a102.2,102.2,0,0,0,96,73.66Zm0-100a98.13,98.13,0,0,1-96-96h96Zm2120,1500h-16v-96h16Zm20,0h-16v-96h16Zm20,0h-16v-96h16Zm20,0h-16v-96h16Zm20,0h-16v-96h16Zm20,0h-16v-96h16Zm20,0h-16v-96h16Zm20,0h-16v-96h16Zm20,0h-16v-96h16Zm20,0h-16v-96h16Zm100,0h-96v-96h96Zm0-100h-296v-96a102.13,102.13,0,0,0,100-100h196Zm-296-100v-196h96v98A98.11,98.11,0,0,1,2202.5,1398.48Zm-200-100v-96h96v96Zm96,4v96h-96v-96Zm-196-104v-96a102.13,102.13,0,0,0,99.89-97.26l96.11,96.11v97.17Zm0,100v-96h96v96Zm96,4v96h-96v-96Zm-96-204v-196a98.12,98.12,0,0,1,96,98v0A98.12,98.12,0,0,1,1902.5,1098.48Zm26.32-196H2098.5v96h-96A102.2,102.2,0,0,0,1928.82,902.5Zm-26.32-4v-296h96a102.13,102.13,0,0,0,100,100v196Zm0-300v-96h96v96Zm298,0H2005.33l96-96H2298.5v97.21l-96,96V600.5A2,2,0,0,0,2200.5,598.5Zm-198-2.83V502.5h93.17Zm0,6.83h196v96h-98A98.11,98.11,0,0,1,2002.52,602.5Zm100,196v-96h96v96Zm96,4v96h-96v-96Zm-96,100h196v96h-196Zm396,396h-196v-96h196Zm-100-196v96h-96v-96Zm-96-4v-196h96v196Zm196,100h-96v-16h96Zm0-20h-96v-16h96Zm0-20h-96v-16h96Zm0-20h-96v-16h96Zm0-20h-96v-16h96Zm0-20h-96V928.82a102.2,102.2,0,0,0,96,73.66Zm0-100a98.13,98.13,0,0,1-96-96h96Zm0-100h-296v-96h296Zm0-100H2305.33L2498.5,605.33Zm0-198.83L2299.67,798.5H2202.5V701.36L2301.91,602a2,2,0,0,0,.59-1.41v-98h196ZM2399.67,298.5H2302.5v-96h193.17Zm2.83,106.83,93.17,93.17H2402.5Zm-4-102.83v96h-96v-96Zm0,100v16h-96v-16Zm0,20v16h-96v-16Zm0,20v16h-96v-16Zm0,20v16h-96v-16Zm0,20v16h-96v-16Zm100,13.17-96-96V302.5h96Zm200,809.66v166.85a102.23,102.23,0,0,0-93.28-73.57Zm-98,97.17a98.12,98.12,0,0,1,97.95,96h-196a98.12,98.12,0,0,1,97.95-96Zm-2-4a102.2,102.2,0,0,0-96,73.66v-469.7a102.2,102.2,0,0,0,96-73.66Zm-96-400v-96h96A98.13,98.13,0,0,1,2502.5,998.48Zm96-100h-96v-96A98.13,98.13,0,0,1,2598.48,898.5Zm84-296h16v96h-16Zm-20,0h16v96h-16Zm-20,0h16v96h-16Zm-20,0h16v96h-16Zm-20,0h16v96h-16Zm-20,0h16v96h-16Zm-20,0h16v96h-16Zm-20,0h16v96h-16Zm-20,0h16v96h-16Zm-4,0v96h-16v-96Zm80-202a98.11,98.11,0,0,1-96,98v-198a2,2,0,0,0-2-2h-95.17l96-96h97.17v198Zm100-102h-96v-96h96Zm0-296V195.67L2505.33,2.5Zm-216,0h17.17l96,96H2482.5Zm-20,0h16v96h-16Zm-20,0h16v96h-16Zm-20,0h16v96h-16Zm-20,0h16v96h-16Zm0,100h197.17l96,96H2402.5Zm-100-100h96v96h-96Zm-100,0h96v96h-96Zm0,100h196v96h-196Zm0,100h96v196h-96Zm96,200v96h-296v-96h296Zm-100-104-93.14,0,93.14-93.14Zm-96-296h96V199.67l-96,96Zm-1.65,300,97.65,0v96h-196v-96c9.69,0,53.62,0,97.65,0A2.06,2.06,0,0,0,2100.85,302.47Zm-2.35-101.14v97.14h-96V105.33Zm-93.17-98.83h93.17v93.17Zm93.17-100v96h-97.17l-96-96Zm-296,0h97.17l98.83,98.83V198.5h-196Zm96,498v98h-196v-196h196v98Zm-96,795.17V902.5h96v297.17Zm96-90.34V1498.5h-16V1221.33Zm-20,20V1498.5h-16V1241.33Zm-20,20V1498.5h-16V1261.33Zm-20,20V1498.5h-16V1281.33Zm-20,20V1498.5h-16V1301.33Zm-16-386.83v-96h96v96Zm0-100v-96h96v96Zm-100-100v-16h196v16Zm-4,504v196a102.2,102.2,0,0,0-96,73.66V1202.5Zm-96-4v-96h96v96Zm98,204h.06a98.12,98.12,0,0,1,98,96h-196A98.12,98.12,0,0,1,1700.47,1402.5Zm4.75-3.89,93.28-93.28v166.85A102.23,102.23,0,0,0,1705.22,1398.61Zm-2.72-2.94V1202.5h96v97.17Zm0-197.17v-96h96v96Zm-100-100v-196h196v196Zm0-200v-196h96v98h2v2h98v96Zm0-200v-96h96v96Zm100,100v-96h96v96Zm0-120v-16h196v16Zm0-20v-16h196v16Zm0-20v-16h196v16Zm0-20v-16h196v16Zm-2-220v2h-2v198h-96v-296h197.14l96,96Zm-98-100v-96h96v96Zm116-96v96h-16v-96Zm-16-4v-96h16v96Zm36,4v96h-16v-96Zm-16-4v-96h16v96Zm36,4v96h-16v-96Zm-16-4v-96h16v96Zm36,4v96h-16v-96Zm-16-4v-96h16v96Zm36,4v96h-16v-96Zm-16-4v-96h16v96Zm16-196v96h-97.17l-96-96Zm-198.83,0,96,96H1401.33l-96-96Zm-101.17,100v196h-96v-196Zm-196,300h96v96h-96Zm96,100v96h-16v-96Zm-20,0v96h-16v-96Zm-20,0v96h-16v-96Zm-20,0v96h-16v-96Zm-36,0h16v96h-16Zm0,100h196v96h-196Zm196-4h-96v-96h169.68A102.2,102.2,0,0,0,1498.52,598.5Zm4,506.83,93.17,93.17H1502.5Zm-200-402.83h196v196h-196Zm-102.83,496H1102.5v-96h193.17Zm2.83,106.83,93.17,93.17H1202.5Zm-100,73.17v-16h96v16Zm96,4v16h-96v-16Zm-96-24v-16h96v16Zm0-20v-16h96v16Zm0-20v-16h96v16Zm0-20v-96h96v96Zm196-896v196H1005.33l196-196Zm-96-4v-96h96v96Zm2.83,204h93.17v93.17Zm93.17,98.83V798.5h-96V605.33Zm-196-98.83h96v196h-96Zm196,200v96h-196a102.2,102.2,0,0,0-73.66-96Zm-20,100v96h-16v-96Zm-20,0v96h-16v-96Zm-20,0v96h-16v-96Zm-20,0v96h-16v-96Zm-116,0h96v96h-96Zm100,196v-96h197.17l96,96H1202.5Zm200,4h96v96h-96Zm-97.17-200H1498.5v193.17Zm90.34,96H1282.5v-96h17.17ZM1102.5,2.5h196v96h-196Zm0,100h196v196h-196Zm0,200h96v97.17l-96,96Zm-100-300h96a98.13,98.13,0,0,1-96,96Zm0,100a102.2,102.2,0,0,0,96-73.66V298.5h-96Zm0,200h96V499.67l-96,96Zm0,300h96v196h-96Zm0,200a98.13,98.13,0,0,1,96,96h-96Zm0,100h96v96h-96Zm0,100h196v96h-196Zm0,100h96v196h-96Zm96,200v96h-296v-96h296Zm-200-201.17v97.14h-96V1005.33Zm-93.17-98.83H898.5v93.17Zm94.82,200a2.06,2.06,0,0,0,.7,0l97.65,0v96h-196v-96C812.19,1202.45,856.12,1202.46,900.15,1202.47Zm98.35-300v197.17l-96,96V902.5Zm-96-4a98.13,98.13,0,0,1,96-96v96Zm96,206.83v93.17l-93.14,0ZM998.5,2.5v96a98.13,98.13,0,0,1-96-96Zm-96,26.32a102.2,102.2,0,0,0,96,73.66v96h-96Zm0,173.68h96v16h-96Zm0,20h96v16h-96Zm0,20h96v16h-96Zm0,20h96v16h-96Zm0,20h96v16h-96Zm-100-182V2.5h96v196h-96Zm0,102h96v96h-96Zm0,100h196v96h-196Zm0,100h196v196h-196Zm0,200H995.67l-96,96H802.5Zm0,100h98a2,2,0,0,0,1.41-.59l96.59-96.58V798.52a102.13,102.13,0,0,0-100,100h-96Zm-4-700v96H501.33l-96-96Zm-216,1096v-96h16v96Zm16,4v96h-16v-96Zm-97.17-104-96-96H598.5v96Zm61.17,100v-96h16v96Zm16,4v96h-16v-96Zm-36-4v-96h16v96Zm16,4v96h-16v-96Zm-36-4v-96h16v96Zm16,4v96h-16v-96Zm-36-4v-96h16v96Zm16,4v96h-16v-96Zm-317.17-104-96-96H399.67l96,96H201.33Zm97.17,4v196h-96v-196Zm100-200v96h-96v-96Zm-96-4v-96h96v96Zm100,100v-96h98a98.11,98.11,0,0,1,98,96Zm100-100v-96h196v196h-96A102.13,102.13,0,0,0,502.5,798.52Zm0-100v-96h196v96Zm100,204h97.17l98.83,98.83v97.17h-196Zm0-402a98.11,98.11,0,0,1,96-98v196A98.11,98.11,0,0,1,602.5,500.5Zm100,378v-16h96v16Zm96,4v16h-96v-16Zm-96-24v-16h96v16Zm0-20v-16h96v16Zm0-20v-16h96v16Zm0-20v-16h96v16Zm0-20v-16h96v16Zm0-20v-16h96v16Zm0-20v-16h96v16Zm0-20v-16h96v16Zm0-20v-296h96v296Zm0-300v-96h96v96Zm-2-100h-98v-96h98v-2l1.41,1.41,96.59-96.58V298.5Zm-198-100v-96H795.67l-96,96Zm96,4v96h-96v-96ZM402.5,5.33l96,96V298.5h-96Zm0,297.17h296v96a102.13,102.13,0,0,0-100,100h-196Zm0,200h196a102.2,102.2,0,0,0,73.66,96H402.5Zm-200-500h196v96h-196Zm0,100h196v196h-196Zm0,200H395.67L202.5,495.67Zm196,2.83V598.5h-16V321.33Zm-20,20V598.5h-16V341.33Zm-20,20V598.5h-16V361.33Zm-20,20V598.5h-16V381.33Zm-20,20V598.5h-16V401.33Zm-20,20V572.18a102.23,102.23,0,0,0-93.28-73.57Zm-98,97.17a98.12,98.12,0,0,1,98,96h-196a98.12,98.12,0,0,1,98-96Zm-98-500h96a98.13,98.13,0,0,1-96,96Zm0,298v-198a102.2,102.2,0,0,0,96-73.66v469.7a102.2,102.2,0,0,0-96,73.66Zm0,302h396v196h-96v-98a2,2,0,0,0-2-2h-298Zm0,100h196v196h-196Zm0,600h96v96h-96Zm96,100v96h-16v-96Zm-20,0v96h-16v-96Zm-20,0v96h-16v-96Zm-20,0v96h-16v-96Zm-36,0h16v96h-16Zm196,196h-196v-96h196Zm0-100h-96v-96H372.18A102.2,102.2,0,0,0,298.52,1498.5Zm100,100a98.13,98.13,0,0,1-96-96h96Zm0-100h-96a98.13,98.13,0,0,1,96-96Zm0-100h-196v-96h196Zm0-100h-296V905.33l96,96V1200.5a2,2,0,0,0,2,2h198Zm0-100h-96v-96h96Zm-96-100v-96h196v96Zm196,4v96h-96v-96Zm0,496h-96v-96h96Zm2-298h-2v198h-96v-296H599.64l96,96H500.5Zm98,398h-96v-96h96Zm100,0h-96v-96h96Zm0-100h-196v-16h196Zm0-20h-196v-16h196Zm0-20h-196v-16h196Zm0-20h-196v-16h196Zm0-20h-196v-16h196Zm0-20h-196v-196h196v98h0Zm100,0h-96v-96h96Zm0-100h-96v-96h96Zm0-100H701.29l-98.79-98.79V1102.5h196v196Zm-93.17-396H898.5v96H801.33Zm97.17,500h93.17l-93.17,93.17Zm196,296h-96v-96h96Zm0-100h-98a98.11,98.11,0,0,1-98-96h196Zm2-100H805.33l96-96H1098.5v97.21l-96,96V1500.5A2,2,0,0,0,1000.5,1498.5Zm298,200H1105.33l193.17-193.17Zm0-198.83L1099.67,1698.5H1002.5v-97.14l99.41-99.41a2,2,0,0,0,.59-1.41v-98h196Zm0-104-96-96V1202.5h96Zm2-197.17h-95.17l96-96h97.17v198a98.11,98.11,0,0,1-96,98v-198A2,2,0,0,0,1300.5,1198.5Zm18,400h-16v-96h16Zm20,0h-16v-96h16Zm20,0h-16v-96h16Zm20,0h-16v-96h16Zm20,0h-16v-96h16Zm20,0h-16v-96h16Zm20,0h-16v-96h16Zm20,0h-16v-96h16Zm20,0h-16v-96h16Zm20,0h-16v-96h16Zm100,0h-96v-96h96Zm0-100h-296v-96a102.13,102.13,0,0,0,100-100h196Zm0-200h-196v-96h196Zm0-102.83-96-96V1002.5h96Zm0-197.17h-96v-96h96Zm0-100h-96V628.82a102.2,102.2,0,0,0,96,73.66Zm0-200a98.13,98.13,0,0,1-96-96h96Zm0-100h-96a98.13,98.13,0,0,1,96-96Zm0-100h-196v-96h196Zm0-100h-296V5.33l96,96V300.5a2,2,0,0,0,2,2h198Zm0-100h-96v-96h96Zm-96-100v-96h196v96Zm100,1400v-96h296v96h-296Zm296,100h-96v-96h96C1898.53,1612.91,1898.53,1655.49,1898.52,1698.5Zm-96-1398.79V202.5h196v196h-97.21Zm100,102.79h96v96h-96Zm0,1098v-98h96v97.21l-96,96Zm296,198H2005.33l193.17-193.17Zm0-198.83L1999.67,1698.5h-97.15c0-44.88,0-89.28,0-97.17l99.37-99.38a2,2,0,0,0,.59-1.41v-98h196Zm-96-101.17v-93.17l93.17,93.17Zm96-2.83-96-96V1105.33l96,96ZM2005.33,1002.5H2298.5v196h-97.17Zm-254.83,646h-100a2,2,0,0,0-2,2v50h4v-8h16v8h4v-8h16v8h4v-8h16v8h4v-8h16v8h4v-8h16v8h4v-50A2,2,0,0,0,1750.5,1648.5Zm-82,40h-16v-16h16Zm0-20h-16v-16h16Zm20,20h-16v-16h16Zm0-20h-16v-16h16Zm20,20h-16v-16h16Zm0-20h-16v-16h16Zm20,20h-16v-16h16Zm0-20h-16v-16h16Zm20,20h-16v-16h16Zm0-20h-16v-16h16Z"/></g></g></svg>