<?xml version="1.0" encoding="utf-8"?>
<!-- Generator: Adobe Illustrator 25.4.0, SVG Export Plug-In . SVG Version: 6.00 Build 0)  -->
<svg version="1.1" id="Layer_1" xmlns="http://www.w3.org/2000/svg" xmlns:xlink="http://www.w3.org/1999/xlink" x="0px" y="0px"
	 viewBox="0 0 240 160" style="enable-background:new 0 0 240 160;" xml:space="preserve">
<style type="text/css">
	.st0{opacity:0.25;}
	.st1{fill:#374548;}
</style>
<g id="Layer_2_00000121964901833114705620000014278275442080373915_">
	<g id="art">
		<g class="st0">
			<path class="st1" d="M178.5,123.3v10.3c2.9-3.2,5.6-6.7,7.9-10.3H178.5z"/>
			<path class="st1" d="M100.4,123.3H66.7v17c6.3,5.5,13.4,10,21.1,13.3L100.4,123.3z"/>
			<polygon class="st1" points="112.1,95.4 87.3,102.4 97.6,77.7 105.4,59.1 66.7,59.1 66.7,116.7 103.2,116.7 110.3,99.6 			"/>
			<path class="st1" d="M190.3,43.4h-11.8v73.2h11.8C202.1,93.7,202.2,66.4,190.3,43.4z"/>
			<polygon class="st1" points="120,116.7 171.9,116.7 171.9,43.4 150.1,43.4 132.9,67.6 160.3,59.8 140.9,87.1 			"/>
			<path class="st1" d="M60,59.1H42c-7.1,26.4-0.4,54.5,18,74.7V59.1z"/>
			<path class="st1" d="M171.9,123.3h-56.6l-22.7,32.1c27.3,9.6,57.6,3.8,79.3-15.2V123.3z"/>
			<path class="st1" d="M186.5,36.8c-4.8-7.5-10.8-14.1-17.8-19.6l-13.9,19.6H186.5z"/>
			<path class="st1" d="M60,52.4V26.2c-7,7.6-12.4,16.5-15.9,26.2H60z"/>
			<path class="st1" d="M66.7,52.4h41.5l21.5-51.7c-3.5-0.5-7-0.7-10.5-0.7c-19.3,0-38,7-52.5,19.7V52.4z"/>
		</g>
		<path class="st1" d="M0,63.8C0,49.6,4.8,37,24,36.4v7.6C12.1,44.8,9.4,53.3,9.4,63.8S12.1,82.9,24,83.6v7.7
			C4.7,90.6,0,78.1,0,63.8z M26.8,91.3v-7.7c12.5-0.5,15-9,15-19.7s-2.5-19.3-15-19.8v-7.6c19.7,0.5,24.3,13.1,24.3,27.5
			C51.1,78.2,46.5,90.7,26.8,91.3z"/>
		<path class="st1" d="M60.5,90.6V37h9.2v53.6L60.5,90.6z M91.3,90.6L72.5,72.3v-8.6h7.6c10.9,0,12.4-5.2,12.4-9.5S91,44.6,80,44.6
			h-7.5V37h7c20.2,0,22.3,10.3,22.3,17.2c0,13.2-10.6,16.3-20.9,16.3l22.7,20.1L91.3,90.6z"/>
		<path class="st1" d="M111.1,90.6V37h9.2v53.6L111.1,90.6z"/>
		<path class="st1" d="M129.5,63.8c0-14.2,4.8-26.8,24-27.4v7.6c-11.9,0.8-14.6,9.2-14.6,19.8s2.7,19.1,14.6,19.8v7.7
			C134.2,90.6,129.5,78.1,129.5,63.8z M156.3,91.3v-7.7c12.5-0.5,15-9,15-19.7s-2.5-19.3-15-19.8v-7.6c19.7,0.5,24.3,13.1,24.3,27.5
			C180.6,78.2,176,90.7,156.3,91.3z"/>
		<path class="st1" d="M190.2,90.6V42l9.2,13.1v35.5H190.2z M227.5,90.6l-37.2-53.7h10.6l28.7,41.6V36.9h9.2v53.7H227.5z"/>
		<path class="st1" d="M6.1,105.3h17.6v2.5H9.2v8.6h13.2v2.5H9.2v9.2h14.4v2.6H6.1V105.3z"/>
		<path class="st1" d="M38.5,105.3h3.1v22.9h10.8v2.6h-14L38.5,105.3z"/>
		<path class="st1" d="M66.1,105.3h17.6v2.5H69.3v8.6h13.2v2.5H69.3v9.2h14.4v2.6H66.1V105.3z"/>
		<path class="st1" d="M96.8,118c0-7,2.4-13,11.8-13c8.2,0,11.5,4.7,11.5,10.1h-3.2c-0.1-4.1-2.4-7.5-8.3-7.5c-7,0-8.6,4.6-8.6,10.4
			s1.7,10.4,8.6,10.4c5.9,0,8.2-3.3,8.4-7.6h3.1c0,5.7-3.2,10.1-11.5,10.1C99.1,131,96.8,125,96.8,118z"/>
		<path class="st1" d="M139.1,107.8h-8v-2.5h19.2v2.5h-8v22.9h-3.1L139.1,107.8z"/>
		<path class="st1" d="M163.9,105.3h9c9.5,0,10.5,4.4,10.5,7.7c0,6.6-5.2,7.4-10.2,7.4h-1.9l12.7,10.4h-4.7L167,120v10.8h-3.1V105.3
			z M173.1,118c6.4,0,7-2.7,7-5s-0.7-5.2-7.2-5.2H167V118H173.1z"/>
		<path class="st1" d="M198.5,105.3h3.1v25.5h-3.1V105.3z"/>
		<path class="st1" d="M216.7,118c0-7,2.4-13,11.8-13c8.2,0,11.5,4.7,11.5,10.1h-3.2c-0.1-4.1-2.4-7.5-8.3-7.5
			c-7,0-8.6,4.6-8.6,10.4s1.6,10.4,8.6,10.4c5.9,0,8.2-3.3,8.4-7.6h3.1c0,5.7-3.2,10.1-11.5,10.1C219.1,131,216.7,125,216.7,118z"/>
	</g>
</g>
</svg>
