<svg xmlns="http://www.w3.org/2000/svg" viewBox="0 0 143.28 56.45"><defs><style>.cls-1{fill:#374548;}</style></defs><g id="Layer_2" data-name="Layer 2"><g id="art"><path class="cls-1" d="M0,16.35C0,7.85,2.85.35,14.3,0V4.55c-7.1.45-8.7,5.5-8.7,11.8s1.6,11.4,8.7,11.8v4.6C2.8,32.35,0,24.85,0,16.35Zm16,16.4v-4.6c7.45-.3,9-5.4,9-11.75S23.45,4.85,16,4.55V0C27.75.3,30.5,7.8,30.5,16.4S27.75,32.4,16,32.75Z"/><path class="cls-1" d="M36.1,32.35V.35h5.5v32Zm18.4,0-11.2-11V16.25h4.55c6.5,0,7.4-3.1,7.4-5.65s-1-5.75-7.5-5.75H43.3V.35h4.2c12,0,13.3,6.15,13.3,10.25,0,7.9-6.3,9.75-12.45,9.75l13.55,12Z"/><path class="cls-1" d="M66.35,32.35V.35h5.5v32Z"/><path class="cls-1" d="M77.3,16.35c0-8.5,2.85-16,14.3-16.35V4.55c-7.1.45-8.7,5.5-8.7,11.8s1.6,11.4,8.7,11.8v4.6C80.1,32.35,77.3,24.85,77.3,16.35Zm16,16.4v-4.6c7.45-.3,9-5.4,9-11.75s-1.5-11.55-9-11.85V0c11.75.3,14.5,7.8,14.5,16.4S105.05,32.4,93.3,32.75Z"/><path class="cls-1" d="M113.55,32.35v-29l5.5,7.8v21.2Zm22.25,0L113.6.3H120L137.1,25.15V.3h5.5V32.35Z"/><path class="cls-1" d="M3.65,41.1H14.14v1.52H5.52v5.16h7.9V49.3H5.52v5.49h8.62v1.52H3.65Z"/><path class="cls-1" d="M23,41.1h1.87V54.79h6.45v1.52H23Z"/><path class="cls-1" d="M39.48,41.1H50v1.52H41.35v5.16h7.9V49.3h-7.9v5.49H50v1.52H39.48Z"/><path class="cls-1" d="M57.77,48.7c0-4.18,1.44-7.74,7-7.74,4.92,0,6.87,2.83,6.87,6H69.77c-.07-2.47-1.47-4.49-5-4.49-4.17,0-5.16,2.76-5.16,6.2s1,6.2,5.16,6.2c3.51,0,4.88-1.94,5-4.51h1.87c0,3.37-1.92,6.06-6.87,6.06C59.18,56.45,57.77,52.89,57.77,48.7Z"/><path class="cls-1" d="M83.06,42.62h-4.8V41.1H89.74v1.52h-4.8V56.31H83.06Z"/><path class="cls-1" d="M97.85,41.1h5.35c5.69,0,6.26,2.64,6.26,4.61,0,3.92-3.12,4.39-6.09,4.39h-1.16l7.59,6.21H107l-7.32-6.42v6.42H97.85Zm5.52,7.6c3.84,0,4.2-1.59,4.2-3s-.44-3.09-4.32-3.09H99.72V48.7Z"/><path class="cls-1" d="M118.51,41.1h1.87V56.31h-1.87Z"/><path class="cls-1" d="M129.36,48.7c0-4.18,1.44-7.74,7-7.74,4.92,0,6.87,2.83,6.87,6h-1.92c-.07-2.47-1.47-4.49-5-4.49-4.17,0-5.16,2.76-5.16,6.2s1,6.2,5.16,6.2c3.51,0,4.88-1.94,5-4.51h1.87c0,3.37-1.92,6.06-6.87,6.06C130.77,56.45,129.36,52.89,129.36,48.7Z"/></g></g></svg>