<svg xmlns="http://www.w3.org/2000/svg" viewBox="0 0 69.02 69.02"><defs><style>.cls-1{fill:#374548;}</style></defs><g id="Layer_2" data-name="Layer 2"><g id="art"><path class="cls-1" d="M60.11,53.2v4.46a34.31,34.31,0,0,0,3.4-4.46Z"/><path class="cls-1" d="M26.41,53.2H11.85v7.33A34.66,34.66,0,0,0,21,66.26Z"/><polygon class="cls-1" points="31.44 41.15 20.77 44.2 25.21 33.53 28.56 25.49 11.85 25.49 11.85 50.33 27.61 50.33 30.68 42.96 31.44 41.15"/><path class="cls-1" d="M65.2,18.73H60.11v31.6h5.07a34.51,34.51,0,0,0,0-31.6Z"/><polygon class="cls-1" points="34.86 50.33 57.23 50.33 57.23 18.73 47.84 18.73 40.45 29.18 52.23 25.81 43.88 37.59 34.86 50.33"/><path class="cls-1" d="M9,25.49H1.2A34.51,34.51,0,0,0,9,57.73Z"/><path class="cls-1" d="M57.23,53.2H32.83L23,67.05a34.49,34.49,0,0,0,34.21-6.57Z"/><path class="cls-1" d="M63.54,15.86a34.55,34.55,0,0,0-7.68-8.45l-6,8.45Z"/><path class="cls-1" d="M9,22.61V11.29A34.56,34.56,0,0,0,2.11,22.61Z"/><path class="cls-1" d="M11.85,22.61H29.76L39.06.31A34.34,34.34,0,0,0,11.85,8.49Z"/></g></g></svg>