<svg id="logosandtypes_com" data-name="logosandtypes com" xmlns="http://www.w3.org/2000/svg" viewBox="0 0 150 150"><defs><style>.cls-1{fill:none;}.cls-2{fill:#ff6e2f;}</style></defs><path class="cls-1" d="M0,0H150V150H0Z" transform="translate(0 0)"/><path class="cls-2" d="M134.77,89.59a160,160,0,0,1-21.8,8.9c-7.31,2.2-14.86,4.11-22.54,4.16a1.15,1.15,0,0,1-.94-.28c-.22-.75.28-1,.88-1.12,16.17-4,31.53-14.11,38.54-29.66,5-10.1,4.24-22,.3-32.31C121.55,19.47,99.3,13.73,80.07,17.63,37.4,25.6,16.32,72,7.87,110.41c13.65,0,28.13.44,41.93.44.86-17.65,6.86-51.29,28-54.44,11.36-2,17.9,9.22,11.88,18.63-3.9,6.22-12.26,10.59-18.54,14.16A40.27,40.27,0,0,0,63,94.59c-5.86,5.14-7.5,12.49-4.78,19.75,10.23,24.12,64.18,15.31,82.88,6C139,110.28,136.81,99.49,134.77,89.59Z" transform="translate(0 0)"/></svg>