<?xml version="1.0" encoding="utf-8"?>
<!-- Generator: Adobe Illustrator 25.4.0, SVG Export Plug-In . SVG Version: 6.00 Build 0)  -->
<svg version="1.1" id="Layer_1" xmlns="http://www.w3.org/2000/svg" xmlns:xlink="http://www.w3.org/1999/xlink" x="0px" y="0px"
	 viewBox="0 0 2700 1700" style="enable-background:new 0 0 2700 1700;" xml:space="preserve">
<style type="text/css">
	.st0{fill:#4C8787;}
	.st1{fill:#FFFFFF;}
</style>
<g>
	<rect class="st0" width="2700" height="1700"/>
	<g>
		<path class="st1" d="M1752.5,950.5h-100c-1.1,0-2,0.9-2,2v100c0,1.1,0.9,2,2,2h100c1.1,0,2-0.9,2-2v-100
			C1754.5,951.4,1753.6,950.5,1752.5,950.5z M1670.5,1050.5h-16v-16h16V1050.5z M1670.5,1030.5h-16v-16h16V1030.5z M1670.5,1010.5
			h-16v-16h16V1010.5z M1670.5,990.5h-16v-16h16V990.5z M1670.5,970.5h-16v-16h16V970.5z M1690.5,1050.5h-16v-16h16V1050.5z
			 M1690.5,1030.5h-16v-16h16V1030.5z M1690.5,1010.5h-16v-16h16V1010.5z M1690.5,990.5h-16v-16h16V990.5z M1690.5,970.5h-16v-16h16
			V970.5z M1710.5,1050.5h-16v-16h16V1050.5z M1710.5,1030.5h-16v-16h16V1030.5z M1710.5,1010.5h-16v-16h16V1010.5z M1710.5,990.5
			h-16v-16h16V990.5z M1710.5,970.5h-16v-16h16V970.5z M1730.5,1050.5h-16v-16h16V1050.5z M1730.5,1030.5h-16v-16h16V1030.5z
			 M1730.5,1010.5h-16v-16h16V1010.5z M1730.5,990.5h-16v-16h16V990.5z M1730.5,970.5h-16v-16h16V970.5z M1750.5,1050.5h-16v-16h16
			V1050.5z M1750.5,1030.5h-16v-16h16V1030.5z M1750.5,1010.5h-16v-16h16V1010.5z M1750.5,990.5h-16v-16h16V990.5z M1750.5,970.5
			h-16v-16h16V970.5z"/>
		<path class="st1" d="M2652.5,1650.5h-100c-1.1,0-2,0.9-2,2v47.5h4v-5.5h16v5.5h4v-5.5h16v5.5h4v-5.5h16v5.5h4v-5.5h16v5.5h4v-5.5
			h16v5.5h4v-47.5C2654.5,1651.4,2653.6,1650.5,2652.5,1650.5z M2570.5,1690.5h-16v-16h16V1690.5z M2570.5,1670.5h-16v-16h16V1670.5
			z M2590.5,1690.5h-16v-16h16V1690.5z M2590.5,1670.5h-16v-16h16V1670.5z M2610.5,1690.5h-16v-16h16V1690.5z M2610.5,1670.5h-16
			v-16h16V1670.5z M2630.5,1690.5h-16v-16h16V1690.5z M2630.5,1670.5h-16v-16h16V1670.5z M2650.5,1690.5h-16v-16h16V1690.5z
			 M2650.5,1670.5h-16v-16h16V1670.5z"/>
		<path class="st1" d="M1754.5,1700v-47.5c0-1.1-0.9-2-2-2h-100c-1.1,0-2,0.9-2,2v47.5h4v-5.5h16v5.5h4v-5.5h16v5.5h4v-5.5h16v5.5h4
			v-5.5h16v5.5h4v-5.5h16v5.5H1754.5z M1670.5,1690.5h-16v-16h16V1690.5z M1670.5,1670.5h-16v-16h16V1670.5z M1690.5,1690.5h-16v-16
			h16V1690.5z M1690.5,1670.5h-16v-16h16V1670.5z M1710.5,1690.5h-16v-16h16V1690.5z M1710.5,1670.5h-16v-16h16V1670.5z
			 M1730.5,1690.5h-16v-16h16V1690.5z M1730.5,1670.5h-16v-16h16V1670.5z M1734.5,1654.5h16v16h-16V1654.5z M1734.5,1690.5v-16h16
			v16H1734.5z"/>
		<path class="st1" d="M952.5,450.5h-100c-1.1,0-2,0.9-2,2v100c0,1.1,0.9,2,2,2h100c1.1,0,2-0.9,2-2v-100
			C954.5,451.4,953.6,450.5,952.5,450.5z M870.5,550.5h-16v-16h16V550.5z M870.5,530.5h-16v-16h16V530.5z M870.5,510.5h-16v-16h16
			V510.5z M870.5,490.5h-16v-16h16V490.5z M870.5,470.5h-16v-16h16V470.5z M890.5,550.5h-16v-16h16V550.5z M890.5,530.5h-16v-16h16
			V530.5z M890.5,510.5h-16v-16h16V510.5z M890.5,490.5h-16v-16h16V490.5z M890.5,470.5h-16v-16h16V470.5z M910.5,550.5h-16v-16h16
			V550.5z M910.5,530.5h-16v-16h16V530.5z M910.5,510.5h-16v-16h16V510.5z M910.5,490.5h-16v-16h16V490.5z M910.5,470.5h-16v-16h16
			V470.5z M930.5,550.5h-16v-16h16V550.5z M930.5,530.5h-16v-16h16V530.5z M930.5,510.5h-16v-16h16V510.5z M930.5,490.5h-16v-16h16
			V490.5z M930.5,470.5h-16v-16h16V470.5z M950.5,550.5h-16v-16h16V550.5z M950.5,530.5h-16v-16h16V530.5z M950.5,510.5h-16v-16h16
			V510.5z M950.5,490.5h-16v-16h16V490.5z M950.5,470.5h-16v-16h16V470.5z"/>
		<path class="st1" d="M252.5,750.5h-100c-1.1,0-2,0.9-2,2v100c0,1.1,0.9,2,2,2h100c1.1,0,2-0.9,2-2v-100
			C254.5,751.4,253.6,750.5,252.5,750.5z M170.5,850.5h-16v-16h16V850.5z M170.5,830.5h-16v-16h16V830.5z M170.5,810.5h-16v-16h16
			V810.5z M170.5,790.5h-16v-16h16V790.5z M170.5,770.5h-16v-16h16V770.5z M190.5,850.5h-16v-16h16V850.5z M190.5,830.5h-16v-16h16
			V830.5z M190.5,810.5h-16v-16h16V810.5z M190.5,790.5h-16v-16h16V790.5z M190.5,770.5h-16v-16h16V770.5z M210.5,850.5h-16v-16h16
			V850.5z M210.5,830.5h-16v-16h16V830.5z M210.5,810.5h-16v-16h16V810.5z M210.5,790.5h-16v-16h16V790.5z M210.5,770.5h-16v-16h16
			V770.5z M230.5,850.5h-16v-16h16V850.5z M230.5,830.5h-16v-16h16V830.5z M230.5,810.5h-16v-16h16V810.5z M230.5,790.5h-16v-16h16
			V790.5z M230.5,770.5h-16v-16h16V770.5z M250.5,850.5h-16v-16h16V850.5z M250.5,830.5h-16v-16h16V830.5z M250.5,810.5h-16v-16h16
			V810.5z M250.5,790.5h-16v-16h16V790.5z M250.5,770.5h-16v-16h16V770.5z"/>
		<path class="st1" d="M1852.5,450.5h-100c-1.1,0-2,0.9-2,2v100c0,1.1,0.9,2,2,2h100c1.1,0,2-0.9,2-2v-100
			C1854.5,451.4,1853.6,450.5,1852.5,450.5z M1770.5,550.5h-16v-16h16V550.5z M1770.5,530.5h-16v-16h16V530.5z M1770.5,510.5h-16
			v-16h16V510.5z M1770.5,490.5h-16v-16h16V490.5z M1770.5,470.5h-16v-16h16V470.5z M1790.5,550.5h-16v-16h16V550.5z M1790.5,530.5
			h-16v-16h16V530.5z M1790.5,510.5h-16v-16h16V510.5z M1790.5,490.5h-16v-16h16V490.5z M1790.5,470.5h-16v-16h16V470.5z
			 M1810.5,550.5h-16v-16h16V550.5z M1810.5,530.5h-16v-16h16V530.5z M1810.5,510.5h-16v-16h16V510.5z M1810.5,490.5h-16v-16h16
			V490.5z M1810.5,470.5h-16v-16h16V470.5z M1830.5,550.5h-16v-16h16V550.5z M1830.5,530.5h-16v-16h16V530.5z M1830.5,510.5h-16v-16
			h16V510.5z M1830.5,490.5h-16v-16h16V490.5z M1830.5,470.5h-16v-16h16V470.5z M1850.5,550.5h-16v-16h16V550.5z M1850.5,530.5h-16
			v-16h16V530.5z M1850.5,510.5h-16v-16h16V510.5z M1850.5,490.5h-16v-16h16V490.5z M1850.5,470.5h-16v-16h16V470.5z"/>
		<path class="st1" d="M552.5,1454.5h100c1.1,0,2-0.9,2-2v-100c0-1.1-0.9-2-2-2h-100c-1.1,0-2,0.9-2,2v100
			C550.5,1453.6,551.4,1454.5,552.5,1454.5z M634.5,1354.5h16v16h-16V1354.5z M634.5,1374.5h16v16h-16V1374.5z M634.5,1394.5h16v16
			h-16V1394.5z M634.5,1414.5h16v16h-16V1414.5z M634.5,1434.5h16v16h-16V1434.5z M614.5,1354.5h16v16h-16V1354.5z M614.5,1374.5h16
			v16h-16V1374.5z M614.5,1394.5h16v16h-16V1394.5z M614.5,1414.5h16v16h-16V1414.5z M614.5,1434.5h16v16h-16V1434.5z M594.5,1354.5
			h16v16h-16V1354.5z M594.5,1374.5h16v16h-16V1374.5z M594.5,1394.5h16v16h-16V1394.5z M594.5,1414.5h16v16h-16V1414.5z
			 M594.5,1434.5h16v16h-16V1434.5z M574.5,1354.5h16v16h-16V1354.5z M574.5,1374.5h16v16h-16V1374.5z M574.5,1394.5h16v16h-16
			V1394.5z M574.5,1414.5h16v16h-16V1414.5z M574.5,1434.5h16v16h-16V1434.5z M554.5,1354.5h16v16h-16V1354.5z M554.5,1374.5h16v16
			h-16V1374.5z M554.5,1394.5h16v16h-16V1394.5z M554.5,1414.5h16v16h-16V1414.5z M554.5,1434.5h16v16h-16V1434.5z"/>
		<path class="st1" d="M0.5,304.5h100v96H0.5v4h100v196H0.5v204.8l97.2,95.2H0.5v4h100v96H0.5v4h100v196H0.5v104h2.8h97.2v196H0.5
			V1700h4v-192.7l96,96v96.7h4v-95.5h196v95.5h4v-169.2c12.5,42.9,51.3,72.7,96,73.7v95.5h4v-95.5h96v95.5h4v-95.5h96v95.5h4v-95.5
			h96v95.5h4v-195.5h96c1.1,54.8,45.2,98.9,100,100v95.5h4v-95.5h96v95.5h4v-96.6l99.4-99.4c0.4-0.4,0.6-0.9,0.6-1.4v-98h196v97.1
			L1102.2,1700h5.7l192.7-192.7V1700h4v-95.5h196v95.5h4v-95.5h96v95.5h4v-95.5h196v95.5h4v-95.5h96c0,10.4,0,52.7,0,95.5h4
			c0-44.7,0-88.8,0-96.7l99.4-99.4c0.4-0.4,0.6-0.9,0.6-1.4v-98h196l0,97.1L2002.2,1700h5.7l192.7-192.7V1700h4v-95.5h196v95.5h4
			v-95.5h96v95.5h4v-95.5H2700v-4h-195.5v-96H2700v-4h-195.6c1.2-53.3,44.6-95.9,97.9-96h0.1c50.8,0.1,92.6,38.7,97.5,88.5v-20.4
			c-12.7-41.1-49.7-69.9-92.8-72l92.8-92.8v-5.7l-95.5,95.5v-193.2h95.5v-4h-95.5v-196h95.5v-4h-95.5v-96h95.5v-4h-95.5
			c-1.1-54.8-45.2-98.9-100-100v-96H2700v-4h-15.5v-96h15.5v-4h-195.5v-96c54.8-1.1,98.9-45.2,100-100h95.5v-4h-95.5v-96h95.5v-4
			h-95.5v-96h95.5v-7.3L2507.3,4.5H2700v-4H0.5V304.5z M100.5,1597.7l-93.2-93.2h93.2V1597.7z M100.5,1300.5h-96v-96h96V1300.5z
			 M100.5,897.7l-96-96v-97.2h96V897.7z M100.5,700.5h-96v-96h96V700.5z M300.5,1500.5L300.5,1500.5h-96v-96h169.7
			C331.3,1417,301.5,1455.8,300.5,1500.5z M400.5,1600.5c-52.5-1.1-94.9-43.5-96-96h96V1600.5z M400.5,1500.5h-96
			c1.1-52.5,43.5-94.9,96-96V1500.5z M400.5,1400.5h-196v-96h196V1400.5z M400.5,1200.5h-96v-96h96V1200.5z M203.3,1000.5l-96-96
			h294.3l96,96H203.3z M300.5,1004.5v196h-96v-196H300.5z M400.5,804.5v96h-96v-96H400.5z M304.5,800.5v-96h96v96H304.5z
			 M700.5,704.5v196h-96c-1.1-54.7-45.3-98.8-100-100v0v-96H700.5z M504.5,700.5v-96h196v96H504.5z M600.5,900.5h-196v-96h98
			C555.8,804.5,599.4,847.2,600.5,900.5z M584.5,1100.5v-96h16v96H584.5z M600.5,1104.5v96h-16v-96H600.5z M503.3,1000.5l-96-96
			h193.2v96H503.3z M564.5,1100.5v-96h16v96H564.5z M580.5,1104.5v96h-16v-96H580.5z M544.5,1100.5v-96h16v96H544.5z M560.5,1104.5
			v96h-16v-96H560.5z M524.5,1100.5v-96h16v96H524.5z M540.5,1104.5v96h-16v-96H540.5z M504.5,1100.5v-96h16v96H504.5z
			 M520.5,1104.5v96h-16v-96H520.5z M304.5,1100.5v-96h196v96H304.5z M500.5,1104.5v96h-96v-96H500.5z M500.5,1600.5h-96v-96h96
			V1600.5z M502.5,1300.5v2h-2v198h-96v-296h197.1l96,96H502.5z M700.5,1600.5h-196v-16h196V1600.5z M700.5,1580.5h-196v-16h196
			V1580.5z M700.5,1560.5h-196v-16h196V1560.5z M700.5,1540.5h-196v-16h196V1540.5z M700.5,1520.5h-196v-16h196V1520.5z
			 M700.5,1402.5v98h-196v-196h196V1402.5z M800.5,1500.5h-96v-96h96V1500.5z M800.5,1400.5h-96v-96h96V1400.5z M800.5,1300.5h-97.2
			l-98.8-98.8v-97.2h196V1300.5z M800.5,1100.5h-196v-196h97.2l98.8,98.8V1100.5z M604.5,502.5c0-53.3,42.7-96.9,96-98v196
			C647.2,599.4,604.5,555.8,604.5,502.5z M504.5,200.5v-96h293.2l-96,96H504.5z M600.5,204.5v96h-96v-96H600.5z M604.5,204.5h98v-2
			l1.4,1.4l96.6-96.6v193.2h-98h-98V204.5z M704.5,880.5v-16h96v16H704.5z M800.5,884.5v16h-96v-16H800.5z M704.5,860.5v-16h96v16
			H704.5z M704.5,840.5v-16h96v16H704.5z M704.5,820.5v-16h96v16H704.5z M704.5,800.5v-16h96v16H704.5z M704.5,780.5v-16h96v16
			H704.5z M704.5,760.5v-16h96v16H704.5z M704.5,740.5v-16h96v16H704.5z M704.5,720.5v-16h96v16H704.5z M704.5,700.5v-296h96v296
			H704.5z M704.5,400.5v-96h96v96H704.5z M707.3,904.5h193.2v96h-97.2L707.3,904.5z M807.3,1004.5h93.2v93.2L807.3,1004.5z
			 M900.5,1103.3v97.1h-96v-193.1L900.5,1103.3z M804.5,1404.5h93.2l-93.2,93.2V1404.5z M1000.5,1600.5h-98c-53.3,0-96.9-42.7-98-96
			h196V1600.5z M1100.5,1501.7l-96,96v-95.2c0-1.1-0.9-2-2-2H807.3l96-96h197.2V1501.7z M1100.5,1400.5h-296v-96h296V1400.5z
			 M1200.5,1400.5h-96v-16h96V1400.5z M1200.5,1380.5h-96v-16h96V1380.5z M1200.5,1360.5h-96v-16h96V1360.5z M1200.5,1340.5h-96v-16
			h96V1340.5z M1200.5,1320.5h-96v-16h96V1320.5z M1200.5,1300.5h-96v-96h96V1300.5z M1104.5,1200.5v-96h193.2l-96,96H1104.5z
			 M1207.4,604.5h93.2v93.2L1207.4,604.5z M1300.5,703.4v97.1h-96V607.3L1300.5,703.4z M1007.3,600.5l196-196h97.2v196H1007.3z
			 M1104.5,604.5h96v196h-96V604.5z M1300.5,804.5v96h-196c-0.9-44.7-30.8-83.5-73.7-96H1300.5z M1304.5,500.5v-96h96v96H1304.5z
			 M1400.5,504.5v96h-16v-96H1400.5z M1380.5,504.5v96h-16v-96H1380.5z M1360.5,504.5v96h-16v-96H1360.5z M1340.5,504.5v96h-16v-96
			H1340.5z M1320.5,504.5v96h-16v-96H1320.5z M1500.5,604.5v96h-196v-96H1500.5z M1500.5,600.5h-96v-96h169.7
			C1531.3,517,1501.5,555.8,1500.5,600.5L1500.5,600.5z M1500.5,704.5v196h-196v-196H1500.5z M1500.5,904.5v193.2l-193.1-193.2
			H1500.5z M1500.5,1104.5v96h-96v-96H1500.5z M1497.7,1100.5h-293.2v-96h197.2L1497.7,1100.5z M1204.5,1000.5v-96h16v96H1204.5z
			 M1224.5,1000.5v-96h16v96H1224.5z M1244.5,1000.5v-96h16v96H1244.5z M1280.5,1000.5h-16v-96h16V1000.5z M1104.5,904.5h96v96h-96
			V904.5z M1204.5,1400.5l0-93.2l93.2,93.2H1204.5z M1300.5,1397.7l-96-96v-97.2h96V1397.7z M1302.5,1200.5h-95.2l96-96h97.2v198
			c0,53.3-42.7,96.9-96,98v-198C1304.5,1201.4,1303.6,1200.5,1302.5,1200.5z M1320.5,1600.5h-16v-96h16V1600.5z M1340.5,1600.5h-16
			v-96h16V1600.5z M1360.5,1600.5h-16v-96h16V1600.5z M1380.5,1600.5h-16v-96h16V1600.5z M1400.5,1600.5h-16v-96h16V1600.5z
			 M1420.5,1600.5h-16v-96h16V1600.5z M1440.5,1600.5h-16v-96h16V1600.5z M1460.5,1600.5h-16v-96h16V1600.5z M1480.5,1600.5h-16v-96
			h16V1600.5z M1500.5,1600.5h-16v-96h16V1600.5z M1600.5,1600.5h-96v-96h96V1600.5z M1600.5,1500.5h-296v-96
			c54.8-1.1,98.9-45.2,100-100h196V1500.5z M1600.5,1300.5h-196v-96h196V1300.5z M1504.5,1200.5l0-93.2l93.2,93.2H1504.5z
			 M1600.5,1197.7l-96-96v-97.2h96V1197.7z M1600.5,1000.5h-96v-96h96V1000.5z M1600.5,900.5h-96V630.8c12.5,42.9,51.3,72.7,96,73.7
			V900.5z M1600.5,700.5c-52.5-1.1-94.9-43.5-96-96h96V700.5z M1600.5,600.5h-96c1.1-52.5,43.5-94.9,96-96V600.5z M1600.5,500.5
			h-196v-96h196V500.5z M1600.5,300.5h-96v-96h96V300.5z M1504.5,200.5v-96h196v96H1504.5z M1700.5,204.5v96h-96v-96H1700.5z
			 M1800.5,804.5v96h-196v-196h96v98h2v2H1800.5z M1704.5,1397.7v-193.2h96v97.2L1704.5,1397.7z M1800.5,1307.4v166.8
			c-12.2-41.9-49.6-71.5-93.3-73.6L1800.5,1307.4z M1704.5,1200.5v-96h96v96H1704.5z M1604.5,1100.5v-196h196v196H1604.5z
			 M1700.5,1104.5v96h-96v-96H1700.5z M1700.5,1204.5v196c-44.7,0.9-83.5,30.8-96,73.7v-269.7L1700.5,1204.5z M1702.5,1404.5
			L1702.5,1404.5L1702.5,1404.5c53.4,0.1,96.9,42.7,98.1,96h-196C1605.7,1447.2,1649.2,1404.6,1702.5,1404.5z M1800.5,800.5h-96v-96
			h96V800.5z M1700.5,700.5h-96v-96h96V700.5z M1900.5,1600.5h-296v-96h296V1600.5z M1804.5,1500.5v-197.2l16-16v213.1H1804.5z
			 M1824.5,1500.5v-217.2l16-16v233.1H1824.5z M1844.5,1500.5v-237.2l16-16v253.1H1844.5z M1864.5,1500.5v-257.2l16-16v273.1H1864.5
			z M1900.5,1500.5h-16v-277.2l16-16V1500.5z M1900.5,1201.7l-96,96V904.5h96V1201.7z M1900.5,900.5h-96v-96h96V900.5z
			 M1900.5,800.5h-96v-96h96V800.5z M1900.5,700.5h-196v-16h196V700.5z M1900.5,680.5h-196v-16h196V680.5z M1704.5,600.5v-196h196
			v98l0,0v98H1704.5z M1900.5,660.5h-196v-16h196V660.5z M1900.5,640.5h-196v-16h196V640.5z M1900.5,620.5h-196v-16h196V620.5z
			 M2000.5,1501.7l-96,96v-95.2v-98h96V1501.7z M2000.5,1400.5h-96v-96h96V1400.5z M2000.5,1300.5h-96v-96h96V1300.5z
			 M2100.5,1400.5h-96v-96h96V1400.5z M2100.5,1300.5h-96v-96h96V1300.5z M2100.5,1200.5l-196,0v-96c53.7-1.1,97.3-43.6,99.9-97.3
			l96.1,96.1V1200.5z M2000.5,504.5v96h-96v-96H2000.5z M1904.5,500.5v-96h96v96H1904.5z M2000.5,604.5c1.1,54.8,45.2,98.9,100,100
			v196h-196v-296H2000.5z M2300.5,404.5v96h-296v-96H2300.5z M2200.5,300.5h-93.1l93.1-93.1V300.5z M2202.5,600.5h-195.2l96-96
			h197.2v97.2l-96,96v-95.2C2204.5,601.4,2203.6,600.5,2202.5,600.5z M2200.5,804.5v96h-96v-96H2200.5z M2104.5,800.5v-96h96v96
			H2104.5z M2300.5,904.5v96h-196v-96H2300.5z M2097.7,504.5l-93.2,93.2v-93.2H2097.7z M2200.5,604.5v96h-98
			c-53.3-0.1-96.8-42.7-98-96H2200.5z M2100.5,904.5v96h-96c-0.9-44.7-30.8-83.5-73.7-96H2100.5z M2000.5,1002.5
			c-0.1,53.3-42.7,96.8-96,98v-196C1957.8,905.7,2000.4,949.2,2000.5,1002.5z M2104.5,1400.5v-93.2l93.2,93.2H2104.5z
			 M2200.5,1397.7l-96-96v-194.3l96,96V1397.7z M2203.3,1200.5l-196-196h293.2v196H2203.3z M2300.5,1204.5v98
			c-0.1,53.3-42.7,96.8-96,98v-196H2300.5z M2220.5,1600.5h-16v-96h16V1600.5z M2240.5,1600.5h-16v-96h16V1600.5z M2260.5,1600.5
			h-16v-96h16V1600.5z M2280.5,1600.5h-16v-96h16V1600.5z M2300.5,1600.5h-16v-96h16V1600.5z M2320.5,1600.5h-16v-96h16V1600.5z
			 M2340.5,1600.5h-16v-96h16V1600.5z M2360.5,1600.5h-16v-96h16V1600.5z M2380.5,1600.5h-16v-96h16V1600.5z M2400.5,1600.5h-16v-96
			h16V1600.5z M2500.5,1600.5h-96v-96h96V1600.5z M2500.5,1500.5h-296v-96c54.8-1.1,98.9-45.2,100-100h196V1500.5z M2500.5,1300.5
			h-196v-96h196V1300.5z M2400.5,1104.5v96h-96v-96H2400.5z M2304.5,1100.5v-196h96v196H2304.5z M2500.5,1200.5h-96v-16h96V1200.5z
			 M2500.5,1180.5h-96v-16h96V1180.5z M2500.5,1160.5h-96v-16h96V1160.5z M2500.5,1140.5h-96v-16h96V1140.5z M2500.5,1120.5h-96v-16
			h96V1120.5z M2500.5,1100.5h-96V930.8c12.5,42.9,51.3,72.7,96,73.7V1100.5z M2500.5,1000.5c-52.5-1.1-94.9-43.5-96-96h96V1000.5z
			 M2500.5,900.5h-296v-96h296V900.5z M2500.5,800.5h-193.2l193.2-193.2V800.5z M2500.5,601.7l-198.8,198.8h-97.2v-97.1l99.4-99.4
			c0.4-0.4,0.6-0.9,0.6-1.4v-98h196V601.7z M2401.7,300.5h-97.2v-96h193.2L2401.7,300.5z M2404.5,407.3l93.2,93.2h-93.2V407.3z
			 M2400.5,304.5v96h-96v-96H2400.5z M2400.5,404.5v16h-96v-16H2400.5z M2400.5,424.5v16h-96v-16H2400.5z M2400.5,444.5v16h-96v-16
			H2400.5z M2400.5,464.5v16h-96v-16H2400.5z M2400.5,484.5v16h-96v-16H2400.5z M2500.5,497.7l-96-96v-97.2h96V497.7z
			 M2600.5,1400.5c-44.7,0.9-83.5,30.8-96,73.7v-469.7c44.7-0.9,83.5-30.8,96-73.7V1400.5z M2504.5,1000.5v-96h96
			C2599.4,957,2557,999.4,2504.5,1000.5z M2600.5,900.5h-96v-96C2557,805.6,2599.4,848,2600.5,900.5z M2664.5,604.5h16v96h-16V604.5
			z M2644.5,604.5h16v96h-16V604.5z M2624.5,604.5h16v96h-16V604.5z M2604.5,604.5h16v96h-16V604.5z M2584.5,604.5h16v96h-16V604.5z
			 M2564.5,604.5h16v96h-16V604.5z M2544.5,604.5h16v96h-16V604.5z M2524.5,604.5h16v96h-16V604.5z M2520.5,604.5v96h-16v-96H2520.5
			z M2600.5,402.5c0,53.3-42.7,96.9-96,98v-198c0-1.1-0.9-2-2-2h-95.2l96-96h97.2V402.5z M2484.5,4.5h17.2l96,96h-113.2V4.5z
			 M2464.5,4.5h16v96h-16V4.5z M2444.5,4.5h16v96h-16V4.5z M2424.5,4.5h16v96h-16V4.5z M2404.5,4.5h16v96h-16V4.5z M2404.5,104.5
			h197.2l96,96h-293.2V104.5z M2304.5,4.5h96v96h-96V4.5z M2204.5,4.5h96v96h-96V4.5z M2204.5,104.5h196v96h-196V104.5z
			 M2204.5,204.5h96v196h-96V204.5z M2104.5,4.5h96v197.2l-96,96V4.5z M2102.9,304.5L2102.9,304.5l97.6,0v96h-196v-96
			c9.7,0,53.6,0,97.6,0C2102.4,304.5,2102.6,304.5,2102.9,304.5z M2100.5,203.4v97.1h-96V107.3L2100.5,203.4z M2007.3,104.5h93.2
			v93.2L2007.3,104.5z M2100.5,4.5v96h-97.2l-96-96H2100.5z M1804.5,4.5h97.2l98.8,98.8v97.1h-196V4.5z M1804.5,204.5h196v196h-97.2
			l-98.8-98.8V204.5z M1897.7,400.5h-195.1v2h-2v198h-96v-296h197.1L1897.7,400.5z M1720.5,204.5v96h-16v-96H1720.5z M1704.5,200.5
			v-96h16v96H1704.5z M1740.5,204.5v96h-16v-96H1740.5z M1724.5,200.5v-96h16v96H1724.5z M1760.5,204.5v96h-16v-96H1760.5z
			 M1744.5,200.5v-96h16v96H1744.5z M1780.5,204.5v96h-16v-96H1780.5z M1764.5,200.5v-96h16v96H1764.5z M1800.5,204.5v96h-16v-96
			H1800.5z M1784.5,200.5v-96h16v96H1784.5z M1800.5,4.5v96h-97.2l-96-96H1800.5z M1601.7,4.5l96,96h-294.4l-96-96H1601.7z
			 M1500.5,104.5v196h-96v-196H1500.5z M1304.5,7.3l96,96v199.2c0,1.1,0.9,2,2,2h198v96h-296V7.3z M1397.7,1000.5h-113.2v-96h17.2
			L1397.7,1000.5z M1300.5,400.5h-96v-96h96V400.5z M1104.5,4.5h196v96h-196V4.5z M1104.5,104.5h196v196h-196V104.5z M1104.5,304.5
			h96v97.2l-96,96V304.5z M1004.5,4.5h96c-1.1,52.5-43.5,94.9-96,96V4.5z M1004.5,104.5c44.7-0.9,83.5-30.8,96-73.7v269.7h-96V104.5
			z M1004.5,304.5h96v197.2l-96,96V304.5z M1004.5,604.5h96v196h-96V604.5z M1004.5,804.5c52.5,1.1,94.9,43.5,96,96h-96V804.5z
			 M1004.5,904.5h96v96h-96V904.5z M1004.5,1004.5h196v96h-196V1004.5z M1004.5,1104.5h96v196h-96V1104.5z M1000.5,1300.5h-196v-96
			c9.7-0.1,53.6,0,97.6,0v0c0.2,0,0.5,0,0.7,0h97.7V1300.5z M1000.5,904.5v197.2l-96,96V904.5H1000.5z M904.5,900.5
			c1.1-52.5,43.5-94.9,96-96v96H904.5z M1000.5,1107.3v93.2h-93.1L1000.5,1107.3z M1000.5,4.5v96c-52.5-1.1-94.9-43.5-96-96H1000.5z
			 M904.5,30.8c12.5,42.9,51.3,72.7,96,73.7v96h-96V30.8z M904.5,204.5h96v16h-96V204.5z M904.5,224.5h96v16h-96V224.5z
			 M904.5,244.5h96v16h-96V244.5z M904.5,264.5h96v16h-96V264.5z M904.5,284.5h96v16h-96V284.5z M804.5,102.5v-98h96v196h-96V102.5z
			 M804.5,204.5h96v96h-96V204.5z M804.5,304.5h196v96h-196V304.5z M804.5,404.5h196v196h-196V404.5z M804.5,604.5h193.2l-96,96
			h-97.2V604.5z M804.5,704.5h98c0.5,0,1-0.2,1.4-0.6l96.6-96.6v193.2c-54.8,1.1-98.9,45.2-100,100h-96V704.5z M800.5,4.5v96H503.3
			l-96-96H800.5z M404.5,7.3l96,96v197.2h-96V7.3z M404.5,304.5h296v96c-54.8,1.1-98.9,45.2-100,100h-196V304.5z M404.5,504.5h196
			c0.9,44.7,30.8,83.5,73.7,96H404.5V504.5z M204.5,4.5h196v96h-196V4.5z M204.5,104.5h196v196h-196V104.5z M204.5,304.5h193.2
			L204.5,497.7V304.5z M400.5,307.3v293.2h-16V323.3L400.5,307.3z M380.5,327.3v273.2h-16V343.3L380.5,327.3z M360.5,347.3v253.2
			h-16V363.3L360.5,347.3z M340.5,367.3v233.2h-16V383.3L340.5,367.3z M320.5,387.3v213.2h-16V403.3L320.5,387.3z M300.5,407.3
			v166.8c-12.2-41.9-49.7-71.5-93.3-73.6L300.5,407.3z M104.5,4.5h96c-1.1,52.5-43.5,94.9-96,96V4.5z M104.5,302.5v-198
			c44.7-0.9,83.5-30.8,96-73.7v469.7c-44.7,0.9-83.5,30.8-96,73.7V302.5z M202.5,504.5c53.3,0.1,96.8,42.7,98,96h-196
			C105.7,547.2,149.2,504.6,202.5,504.5z M104.5,604.5h396v196h-96v-98c0-1.1-0.9-2-2-2h-298V604.5z M104.5,704.5h196v196h-196
			V704.5z M104.5,907.3l96,96v199.2c0,1.1,0.9,2,2,2h198v96h-296V907.3z M104.5,1304.5h96v96h-96V1304.5z M200.5,1404.5v96h-16v-96
			H200.5z M180.5,1404.5v96h-16v-96H180.5z M160.5,1404.5v96h-16v-96H160.5z M140.5,1404.5v96h-16v-96H140.5z M104.5,1404.5h16v96
			h-16V1404.5z M104.5,1504.5h196v96h-196V1504.5z M100.5,4.5v96C48,99.4,5.6,57,4.5,4.5H100.5z M4.5,30.8
			c12.5,42.9,51.3,72.7,96,73.7v96h-96V30.8z M4.5,204.5h96v16h-96V204.5z M4.5,224.5h96v16h-96V224.5z M4.5,244.5h96v16h-96V244.5z
			 M4.5,264.5h96v16h-96V264.5z M4.5,284.5h96v16h-96V284.5z"/>
	</g>
</g>
</svg>
