<?xml version="1.0" encoding="utf-8"?>
<!-- Generator: Adobe Illustrator 25.2.0, SVG Export Plug-In . SVG Version: 6.00 Build 0)  -->
<svg version="1.1" id="Layer_1" xmlns="http://www.w3.org/2000/svg" xmlns:xlink="http://www.w3.org/1999/xlink" x="0px" y="0px"
	 viewBox="0 0 100 46" style="enable-background:new 0 0 100 46;" xml:space="preserve">
<style type="text/css">
	.st0{fill:none;}
	.st1{fill:none;stroke:#000000;stroke-width:2;stroke-linecap:round;stroke-miterlimit:10;}
	.st2{fill:none;stroke:#000000;stroke-width:2;stroke-linecap:round;stroke-miterlimit:10;stroke-dasharray:0,6.13;}
	.st3{fill:none;stroke:#000000;stroke-width:2;stroke-linecap:round;stroke-miterlimit:10;stroke-dasharray:0,6.11;}
	.st4{fill:none;stroke:#000000;stroke-width:2;stroke-linecap:round;stroke-miterlimit:10;stroke-dasharray:0,6.17;}
	.st5{fill:none;stroke:#000000;stroke-width:2;stroke-linecap:round;stroke-miterlimit:10;stroke-dasharray:0,5.71;}
	.st6{fill:none;stroke:#000000;stroke-width:2;stroke-linecap:round;stroke-miterlimit:10;stroke-dasharray:0,5.9;}
	.st7{fill:none;stroke:#000000;stroke-width:2;stroke-linecap:round;stroke-miterlimit:10;stroke-dasharray:0,6.34;}
	.st8{fill:none;stroke:#000000;stroke-width:2;stroke-linecap:round;stroke-miterlimit:10;stroke-dasharray:0,5.95;}
	.st9{fill:none;stroke:#000000;stroke-width:2;stroke-linecap:round;stroke-miterlimit:10;stroke-dasharray:0,5.54;}
	.st10{fill:none;stroke:#000000;stroke-width:2;stroke-linecap:round;stroke-miterlimit:10;stroke-dasharray:0,5.11;}
	.st11{fill:none;stroke:#000000;stroke-width:2;stroke-linecap:round;stroke-miterlimit:10;stroke-dasharray:0,4.61;}
	.st12{clip-path:url(#SVGID_2_);}
	.st13{fill:url(#SVGID_3_);}
</style>
<pattern  y="300" width="100" height="92" patternUnits="userSpaceOnUse" id="Same_Komon_-_Black" viewBox="36.8 -104.9 100 92" style="overflow:visible;">
	<g>
		<rect x="36.8" y="-104.9" class="st0" width="100" height="92"/>
		<rect x="36.8" y="-104.9" class="st0" width="100" height="92"/>
		<line class="st1" x1="47" y1="-103.6" x2="47" y2="-103.6"/>
		<path class="st2" d="M51-98.9c19.3,19.8,50.9,20.1,70.7,0.8c1-1,2-2,2.9-3.1"/>
		<line class="st1" x1="126.6" y1="-103.6" x2="126.6" y2="-103.6"/>
		<line class="st1" x1="51.9" y1="-104.7" x2="51.9" y2="-104.7"/>
		<path class="st3" d="M56.1-100.3c18.2,16.6,46.4,15.7,63.5-2.1"/>
		<line class="st1" x1="121.6" y1="-104.7" x2="121.6" y2="-104.7"/>
		<path class="st4" d="M61.1-102.1c15.9,12.8,38.8,12,53.7-2"/>
		<path class="st5" d="M65.4-104.5c13.6,9.9,32.2,9.1,45-1.8"/>
		<path class="st6" d="M70-106.9c11.2,6.9,25.5,6.3,36-1.7"/>
		<line class="st1" x1="97" y1="-80.6" x2="97" y2="-80.6"/>
		<path class="st2" d="M101-75.9c19.3,19.8,50.9,20.1,70.7,0.8c1-1,2-2,2.9-3.1"/>
		<line class="st1" x1="101.9" y1="-81.7" x2="101.9" y2="-81.7"/>
		<path class="st3" d="M106.1-77.3c18.2,16.6,46.4,15.7,63.5-2.1"/>
		<line class="st1" x1="106.6" y1="-83.3" x2="106.6" y2="-83.3"/>
		<path class="st4" d="M111.1-79.1c15.9,12.8,38.8,12,53.7-2"/>
		<line class="st1" x1="111" y1="-85.2" x2="111" y2="-85.2"/>
		<path class="st5" d="M115.4-81.5c13.6,9.9,32.2,9.1,45-1.8"/>
		<line class="st1" x1="115.3" y1="-87.4" x2="115.3" y2="-87.4"/>
		<path class="st6" d="M120-83.9c11.2,6.9,25.5,6.3,36-1.7"/>
		<line class="st1" x1="119.2" y1="-90" x2="119.2" y2="-90"/>
		<path class="st7" d="M124.5-86.5c8.7,4.4,19.1,3.8,27.2-1.6"/>
		<line class="st1" x1="122.9" y1="-92.9" x2="122.9" y2="-92.9"/>
		<path class="st8" d="M128.1-89.9c6.5,2.7,13.9,2.2,20.1-1.3"/>
		<line class="st1" x1="126.4" y1="-96" x2="126.4" y2="-96"/>
		<path class="st9" d="M131.3-93.6c4.5,1.4,9.3,1,13.5-1"/>
		<line class="st1" x1="129.5" y1="-99.4" x2="129.5" y2="-99.4"/>
		<path class="st10" d="M134.2-97.5c0.8,0.2,1.7,0.2,2.5,0.2c1.7,0,3.4-0.3,5-0.9"/>
		<line class="st1" x1="132.4" y1="-103" x2="132.4" y2="-103"/>
		<path class="st11" d="M136.8-101.8c0.4,0,0.9,0,1.3-0.1"/>
		<path class="st2" d="M1-75.9c9.4,9.6,22.3,15,35.8,15c14.5,0,28.4-6.3,37.8-17.3"/>
		<line class="st1" x1="76.6" y1="-80.6" x2="76.6" y2="-80.6"/>
		<path class="st3" d="M6.1-77.3c8.4,7.7,19.3,11.9,30.6,11.9c12.4,0,24.3-5,32.8-14"/>
		<line class="st1" x1="71.6" y1="-81.7" x2="71.6" y2="-81.7"/>
		<path class="st4" d="M11.1-79.1c7.3,5.9,16.3,9.1,25.7,9.1c10.4,0,20.4-4,28-11.1"/>
		<line class="st1" x1="66.9" y1="-83.3" x2="66.9" y2="-83.3"/>
		<path class="st5" d="M15.4-81.5c6.2,4.5,13.7,7,21.4,6.9c8.7,0,17-3.1,23.6-8.7"/>
		<line class="st1" x1="62.5" y1="-85.2" x2="62.5" y2="-85.2"/>
		<path class="st6" d="M20-83.9c5,3.1,10.9,4.8,16.8,4.8c6.9,0,13.7-2.3,19.2-6.5"/>
		<line class="st1" x1="58.3" y1="-87.4" x2="58.3" y2="-87.4"/>
		<path class="st7" d="M24.5-86.5c3.8,1.9,8,2.9,12.2,2.9c5.3,0,10.6-1.5,15-4.5"/>
		<line class="st1" x1="54.3" y1="-90" x2="54.3" y2="-90"/>
		<path class="st8" d="M28.1-89.9c2.8,1.2,5.7,1.8,8.7,1.8c4,0,7.9-1,11.4-3"/>
		<line class="st1" x1="50.6" y1="-92.9" x2="50.6" y2="-92.9"/>
		<path class="st9" d="M31.3-93.6c1.8,0.6,3.6,0.8,5.5,0.8c2.8,0,5.5-0.6,8-1.9"/>
		<line class="st1" x1="47.2" y1="-96" x2="47.2" y2="-96"/>
		<path class="st10" d="M34.2-97.5c0.8,0.2,1.7,0.2,2.5,0.2c1.7,0,3.4-0.3,5-0.9"/>
		<line class="st1" x1="44" y1="-99.4" x2="44" y2="-99.4"/>
		<path class="st11" d="M36.8-101.8c0.4,0,0.9,0,1.3-0.1"/>
		<line class="st1" x1="41.2" y1="-103" x2="41.2" y2="-103"/>
		<line class="st1" x1="47" y1="-57.6" x2="47" y2="-57.6"/>
		<path class="st2" d="M51-52.9c19.3,19.8,50.9,20.1,70.7,0.8c1-1,2-2,2.9-3.1"/>
		<line class="st1" x1="126.6" y1="-57.6" x2="126.6" y2="-57.6"/>
		<line class="st1" x1="51.9" y1="-58.7" x2="51.9" y2="-58.7"/>
		<path class="st3" d="M56.1-54.3c18.2,16.6,46.4,15.7,63.5-2.1"/>
		<line class="st1" x1="121.6" y1="-58.7" x2="121.6" y2="-58.7"/>
		<line class="st1" x1="56.6" y1="-60.3" x2="56.6" y2="-60.3"/>
		<path class="st4" d="M61.1-56.1c15.9,12.8,38.8,12,53.7-2"/>
		<line class="st1" x1="116.9" y1="-60.3" x2="116.9" y2="-60.3"/>
		<line class="st1" x1="61" y1="-62.2" x2="61" y2="-62.2"/>
		<path class="st5" d="M65.4-58.5c13.6,9.9,32.2,9.1,45-1.8"/>
		<line class="st1" x1="112.5" y1="-62.2" x2="112.5" y2="-62.2"/>
		<line class="st1" x1="65.3" y1="-64.4" x2="65.3" y2="-64.4"/>
		<path class="st6" d="M70-60.9c11.2,6.9,25.5,6.3,36-1.7"/>
		<line class="st1" x1="108.3" y1="-64.4" x2="108.3" y2="-64.4"/>
		<line class="st1" x1="69.2" y1="-67" x2="69.2" y2="-67"/>
		<path class="st7" d="M74.5-63.5c8.7,4.4,19.1,3.8,27.2-1.6"/>
		<line class="st1" x1="104.3" y1="-67" x2="104.3" y2="-67"/>
		<line class="st1" x1="72.9" y1="-69.9" x2="72.9" y2="-69.9"/>
		<path class="st8" d="M78.1-66.9c6.5,2.7,13.9,2.2,20.1-1.3"/>
		<line class="st1" x1="100.6" y1="-69.9" x2="100.6" y2="-69.9"/>
		<line class="st1" x1="76.4" y1="-73" x2="76.4" y2="-73"/>
		<path class="st9" d="M81.3-70.6c4.5,1.4,9.3,1,13.5-1"/>
		<line class="st1" x1="97.2" y1="-73" x2="97.2" y2="-73"/>
		<line class="st1" x1="79.5" y1="-76.4" x2="79.5" y2="-76.4"/>
		<path class="st10" d="M84.2-74.5c0.8,0.2,1.7,0.2,2.5,0.2c1.7,0,3.4-0.3,5-0.9"/>
		<line class="st1" x1="94" y1="-76.4" x2="94" y2="-76.4"/>
		<line class="st1" x1="82.4" y1="-80" x2="82.4" y2="-80"/>
		<path class="st11" d="M86.8-78.8c0.4,0,0.9,0,1.3-0.1"/>
		<line class="st1" x1="91.2" y1="-80" x2="91.2" y2="-80"/>
		<line class="st1" x1="97" y1="-34.6" x2="97" y2="-34.6"/>
		<path class="st2" d="M101-29.9c19.3,19.8,50.9,20.1,70.7,0.8c1-1,2-2,2.9-3.1"/>
		<line class="st1" x1="101.9" y1="-35.7" x2="101.9" y2="-35.7"/>
		<path class="st3" d="M106.1-31.3c18.2,16.6,46.4,15.7,63.5-2.1"/>
		<line class="st1" x1="106.6" y1="-37.3" x2="106.6" y2="-37.3"/>
		<path class="st4" d="M111.1-33.1c15.9,12.8,38.8,12,53.7-2"/>
		<line class="st1" x1="111" y1="-39.2" x2="111" y2="-39.2"/>
		<path class="st5" d="M115.4-35.5c13.6,9.9,32.2,9.1,45-1.8"/>
		<line class="st1" x1="115.3" y1="-41.4" x2="115.3" y2="-41.4"/>
		<path class="st6" d="M120-37.9c11.2,6.9,25.5,6.3,36-1.7"/>
		<line class="st1" x1="119.2" y1="-44" x2="119.2" y2="-44"/>
		<path class="st7" d="M124.5-40.5c8.7,4.4,19.1,3.8,27.2-1.6"/>
		<line class="st1" x1="122.9" y1="-46.9" x2="122.9" y2="-46.9"/>
		<path class="st8" d="M128.1-43.9c6.5,2.7,13.9,2.2,20.1-1.3"/>
		<line class="st1" x1="126.4" y1="-50" x2="126.4" y2="-50"/>
		<path class="st9" d="M131.3-47.6c4.5,1.4,9.3,1,13.5-1"/>
		<line class="st1" x1="129.5" y1="-53.4" x2="129.5" y2="-53.4"/>
		<path class="st10" d="M134.2-51.5c0.8,0.2,1.7,0.2,2.5,0.2c1.7,0,3.4-0.3,5-0.9"/>
		<line class="st1" x1="132.4" y1="-57" x2="132.4" y2="-57"/>
		<path class="st11" d="M136.8-55.8c0.4,0,0.9,0,1.3-0.1"/>
		<path class="st2" d="M1-29.9c9.4,9.6,22.3,15,35.8,15c14.5,0,28.4-6.3,37.8-17.3"/>
		<line class="st1" x1="76.6" y1="-34.6" x2="76.6" y2="-34.6"/>
		<path class="st3" d="M6.1-31.3c8.4,7.7,19.3,11.9,30.6,11.9c12.4,0,24.3-5,32.8-14"/>
		<line class="st1" x1="71.6" y1="-35.7" x2="71.6" y2="-35.7"/>
		<path class="st4" d="M11.1-33.1c7.3,5.9,16.3,9.1,25.7,9.1c10.4,0,20.4-4,28-11.1"/>
		<line class="st1" x1="66.9" y1="-37.3" x2="66.9" y2="-37.3"/>
		<path class="st5" d="M15.4-35.5c6.2,4.5,13.7,7,21.4,6.9c8.7,0,17-3.1,23.6-8.7"/>
		<line class="st1" x1="62.5" y1="-39.2" x2="62.5" y2="-39.2"/>
		<path class="st6" d="M20-37.9c5,3.1,10.9,4.8,16.8,4.8c6.9,0,13.7-2.3,19.2-6.5"/>
		<line class="st1" x1="58.3" y1="-41.4" x2="58.3" y2="-41.4"/>
		<path class="st7" d="M24.5-40.5c3.8,1.9,8,2.9,12.2,2.9c5.3,0,10.6-1.5,15-4.5"/>
		<line class="st1" x1="54.3" y1="-44" x2="54.3" y2="-44"/>
		<path class="st8" d="M28.1-43.9c2.8,1.2,5.7,1.8,8.7,1.8c4,0,7.9-1,11.4-3"/>
		<line class="st1" x1="50.6" y1="-46.9" x2="50.6" y2="-46.9"/>
		<path class="st9" d="M31.3-47.6c1.8,0.6,3.6,0.8,5.5,0.8c2.8,0,5.5-0.6,8-1.9"/>
		<line class="st1" x1="47.2" y1="-50" x2="47.2" y2="-50"/>
		<path class="st10" d="M34.2-51.5c0.8,0.2,1.7,0.2,2.5,0.2c1.7,0,3.4-0.3,5-0.9"/>
		<line class="st1" x1="44" y1="-53.4" x2="44" y2="-53.4"/>
		<path class="st11" d="M36.8-55.8c0.4,0,0.9,0,1.3-0.1"/>
		<line class="st1" x1="41.2" y1="-57" x2="41.2" y2="-57"/>
		<line class="st1" x1="51.9" y1="-12.7" x2="51.9" y2="-12.7"/>
		<line class="st1" x1="121.6" y1="-12.7" x2="121.6" y2="-12.7"/>
		<line class="st1" x1="56.6" y1="-14.3" x2="56.6" y2="-14.3"/>
		<path class="st4" d="M61.1-10.1c15.9,12.8,38.8,12,53.7-2"/>
		<line class="st1" x1="116.9" y1="-14.3" x2="116.9" y2="-14.3"/>
		<line class="st1" x1="61" y1="-16.2" x2="61" y2="-16.2"/>
		<path class="st5" d="M65.4-12.5c13.6,9.9,32.2,9.1,45-1.8"/>
		<line class="st1" x1="112.5" y1="-16.2" x2="112.5" y2="-16.2"/>
		<line class="st1" x1="65.3" y1="-18.4" x2="65.3" y2="-18.4"/>
		<path class="st6" d="M70-14.9c11.2,6.9,25.5,6.3,36-1.7"/>
		<line class="st1" x1="108.3" y1="-18.4" x2="108.3" y2="-18.4"/>
		<line class="st1" x1="69.2" y1="-21" x2="69.2" y2="-21"/>
		<path class="st7" d="M74.5-17.5c8.7,4.4,19.1,3.8,27.2-1.6"/>
		<line class="st1" x1="104.3" y1="-21" x2="104.3" y2="-21"/>
		<line class="st1" x1="72.9" y1="-23.9" x2="72.9" y2="-23.9"/>
		<path class="st8" d="M78.1-20.9c6.5,2.7,13.9,2.2,20.1-1.3"/>
		<line class="st1" x1="100.6" y1="-23.9" x2="100.6" y2="-23.9"/>
		<line class="st1" x1="76.4" y1="-27" x2="76.4" y2="-27"/>
		<path class="st9" d="M81.3-24.6c4.5,1.4,9.3,1,13.5-1"/>
		<line class="st1" x1="97.2" y1="-27" x2="97.2" y2="-27"/>
		<line class="st1" x1="79.5" y1="-30.4" x2="79.5" y2="-30.4"/>
		<path class="st10" d="M84.2-28.5c0.8,0.2,1.7,0.2,2.5,0.2c1.7,0,3.4-0.3,5-0.9"/>
		<line class="st1" x1="94" y1="-30.4" x2="94" y2="-30.4"/>
		<line class="st1" x1="82.4" y1="-34" x2="82.4" y2="-34"/>
		<path class="st11" d="M86.8-32.8c0.4,0,0.9,0,1.3-0.1"/>
		<line class="st1" x1="91.2" y1="-34" x2="91.2" y2="-34"/>
	</g>
</pattern>
<g id="Layer_2_1_">
	<g id="Layer_1-2">
		<g>
			<defs>
				<rect id="SVGID_1_" width="100" height="46"/>
			</defs>
			<clipPath id="SVGID_2_">
				<use xlink:href="#SVGID_1_"  style="overflow:visible;"/>
			</clipPath>
			<g class="st12">
				<pattern  id="SVGID_3_" xlink:href="#Same_Komon_-_Black" patternTransform="matrix(1 0 0 -1 -2448 -16866.3203)">
				</pattern>
				<rect x="-45.2" y="-29.6" class="st13" width="290.4" height="300"/>
			</g>
		</g>
	</g>
</g>
</svg>
