<?xml version="1.0" encoding="utf-8"?>
<!-- Generator: Adobe Illustrator 25.2.0, SVG Export Plug-In . SVG Version: 6.00 Build 0)  -->
<svg version="1.1" id="Layer_1" xmlns="http://www.w3.org/2000/svg" xmlns:xlink="http://www.w3.org/1999/xlink" x="0px" y="0px"
	 viewBox="0 0 20.7 120" style="enable-background:new 0 0 20.7 120;" xml:space="preserve">
<style type="text/css">
	.st0{clip-path:url(#SVGID_2_);}
	.st1{fill:none;stroke:#000000;stroke-miterlimit:10;}
</style>
<g id="Layer_2_1_">
	<g id="Layer_1-2">
		<g>
			<defs>
				<rect id="SVGID_1_" width="20.7" height="120"/>
			</defs>
			<clipPath id="SVGID_2_">
				<use xlink:href="#SVGID_1_"  style="overflow:visible;"/>
			</clipPath>
			<g class="st0">
				<path class="st1" d="M439.5,448.8c0-30,20-30,20-60s-20-30-20-60s20-30,20-60s-20-30-20-60s20-30,20-60s-20-30-20-60
					s20-30,20-60s-20-30-20-60s20-30,20-60s-20-30-20-60"/>
				<path class="st1" d="M418.8,448.8c0-30,20-30,20-60s-20-30-20-60s20-30,20-60s-20-30-20-60s20-30,20-60s-20-30-20-60
					s20-30,20-60s-20-30-20-60s20-30,20-60s-20-30-20-60"/>
				<path class="st1" d="M398.1,448.8c0-30,20-30,20-60s-20-30-20-60s20-30,20-60s-20-30-20-60s20-30,20-60s-20-30-20-60
					s20-30,20-60s-20-30-20-60s20-30,20-60s-20-30-20-60"/>
				<path class="st1" d="M377.4,448.8c0-30,20-30,20-60s-20-30-20-60s20-30,20-60s-20-30-20-60s20-30,20-60s-20-30-20-60
					s20-30,20-60s-20-30-20-60s20-30,20-60s-20-30-20-60"/>
				<path class="st1" d="M356.7,448.8c0-30,20-30,20-60s-20-30-20-60s20-30,20-60s-20-30-20-60s20-30,20-60s-20-30-20-60
					s20-30,20-60s-20-30-20-60s20-30,20-60s-20-30-20-60"/>
				<path class="st1" d="M336,448.8c0-30,20-30,20-60s-20-30-20-60s20-30,20-60s-20-30-20-60s20-30,20-60s-20-30-20-60s20-30,20-60
					s-20-30-20-60s20-30,20-60s-20-30-20-60"/>
				<path class="st1" d="M315.4,448.8c0-30,20-30,20-60s-20-30-20-60s20-30,20-60s-20-30-20-60s20-30,20-60s-20-30-20-60
					s20-30,20-60s-20-30-20-60s20-30,20-60s-20-30-20-60"/>
				<path class="st1" d="M294.7,448.8c0-30,20-30,20-60s-20-30-20-60s20-30,20-60s-20-30-20-60s20-30,20-60s-20-30-20-60
					s20-30,20-60s-20-30-20-60s20-30,20-60s-20-30-20-60"/>
				<path class="st1" d="M274,448.8c0-30,20-30,20-60s-20-30-20-60s20-30,20-60s-20-30-20-60s20-30,20-60s-20-30-20-60s20-30,20-60
					s-20-30-20-60s20-30,20-60s-20-30-20-60"/>
				<path class="st1" d="M253.3,448.8c0-30,20-30,20-60s-20-30-20-60s20-30,20-60s-20-30-20-60s20-30,20-60s-20-30-20-60
					s20-30,20-60s-20-30-20-60s20-30,20-60s-20-30-20-60"/>
				<path class="st1" d="M232.6,448.8c0-30,20-30,20-60s-20-30-20-60s20-30,20-60s-20-30-20-60s20-30,20-60s-20-30-20-60
					s20-30,20-60s-20-30-20-60s20-30,20-60s-20-30-20-60"/>
				<path class="st1" d="M211.9,448.8c0-30,20-30,20-60s-20-30-20-60s20-30,20-60s-20-30-20-60s20-30,20-60s-20-30-20-60
					s20-30,20-60s-20-30-20-60s20-30,20-60s-20-30-20-60"/>
				<path class="st1" d="M191.2,448.8c0-30,20-30,20-60s-20-30-20-60s20-30,20-60s-20-30-20-60s20-30,20-60s-20-30-20-60
					s20-30,20-60s-20-30-20-60s20-30,20-60s-20-30-20-60"/>
				<path class="st1" d="M170.5,448.8c0-30,20-30,20-60s-20-30-20-60s20-30,20-60s-20-30-20-60s20-30,20-60s-20-30-20-60
					s20-30,20-60s-20-30-20-60s20-30,20-60s-20-30-20-60"/>
				<path class="st1" d="M149.8,448.8c0-30,20-30,20-60s-20-30-20-60s20-30,20-60s-20-30-20-60s20-30,20-60s-20-30-20-60
					s20-30,20-60s-20-30-20-60s20-30,20-60s-20-30-20-60"/>
				<path class="st1" d="M129.2,448.8c0-30,20-30,20-60s-20-30-20-60s20-30,20-60s-20-30-20-60s20-30,20-60s-20-30-20-60
					s20-30,20-60s-20-30-20-60s20-30,20-60s-20-30-20-60"/>
				<path class="st1" d="M108.5,448.8c0-30,20-30,20-60s-20-30-20-60s20-30,20-60s-20-30-20-60s20-30,20-60s-20-30-20-60
					s20-30,20-60s-20-30-20-60s20-30,20-60s-20-30-20-60"/>
				<path class="st1" d="M87.8,448.8c0-30,20-30,20-60s-20-30-20-60s20-30,20-60s-20-30-20-60s20-30,20-60s-20-30-20-60s20-30,20-60
					s-20-30-20-60s20-30,20-60s-20-30-20-60"/>
				<path class="st1" d="M67.1,448.8c0-30,20-30,20-60s-20-30-20-60s20-30,20-60s-20-30-20-60s20-30,20-60s-20-30-20-60s20-30,20-60
					s-20-30-20-60s20-30,20-60s-20-30-20-60"/>
				<path class="st1" d="M46.4,448.8c0-30,20-30,20-60s-20-30-20-60s20-30,20-60s-20-30-20-60s20-30,20-60s-20-30-20-60s20-30,20-60
					s-20-30-20-60s20-30,20-60s-20-30-20-60"/>
				<path class="st1" d="M25.7,448.8c0-30,20-30,20-60s-20-30-20-60s20-30,20-60s-20-30-20-60s20-30,20-60s-20-30-20-60s20-30,20-60
					s-20-30-20-60s20-30,20-60s-20-30-20-60"/>
				<path class="st1" d="M5,448.8c0-30,20-30,20-60s-20-30-20-60s20-30,20-60s-20-30-20-60s20-30,20-60s-20-30-20-60s20-30,20-60
					s-20-30-20-60s20-30,20-60s-20-30-20-60"/>
				<path class="st1" d="M-15.7,448.8c0-30,20-30,20-60s-20-30-20-60s20-30,20-60s-20-30-20-60s20-30,20-60s-20-30-20-60
					s20-30,20-60s-20-30-20-60s20-30,20-60s-20-30-20-60"/>
				<path class="st1" d="M-36.4,448.8c0-30,20-30,20-60s-20-30-20-60s20-30,20-60s-20-30-20-60s20-30,20-60s-20-30-20-60
					s20-30,20-60s-20-30-20-60s20-30,20-60s-20-30-20-60"/>
				<path class="st1" d="M-57,448.8c0-30,20-30,20-60s-20-30-20-60s20-30,20-60s-20-30-20-60s20-30,20-60s-20-30-20-60s20-30,20-60
					s-20-30-20-60s20-30,20-60s-20-30-20-60"/>
				<path class="st1" d="M-77.7,448.8c0-30,20-30,20-60s-20-30-20-60s20-30,20-60s-20-30-20-60s20-30,20-60s-20-30-20-60
					s20-30,20-60s-20-30-20-60s20-30,20-60s-20-30-20-60"/>
				<path class="st1" d="M-98.4,448.8c0-30,20-30,20-60s-20-30-20-60s20-30,20-60s-20-30-20-60s20-30,20-60s-20-30-20-60
					s20-30,20-60s-20-30-20-60s20-30,20-60s-20-30-20-60"/>
				<path class="st1" d="M-119.1,448.8c0-30,20-30,20-60s-20-30-20-60s20-30,20-60s-20-30-20-60s20-30,20-60s-20-30-20-60
					s20-30,20-60s-20-30-20-60s20-30,20-60s-20-30-20-60"/>
				<path class="st1" d="M-139.8,448.8c0-30,20-30,20-60s-20-30-20-60s20-30,20-60s-20-30-20-60s20-30,20-60s-20-30-20-60
					s20-30,20-60s-20-30-20-60s20-30,20-60s-20-30-20-60"/>
				<path class="st1" d="M-160.5,448.8c0-30,20-30,20-60s-20-30-20-60s20-30,20-60s-20-30-20-60s20-30,20-60s-20-30-20-60
					s20-30,20-60s-20-30-20-60s20-30,20-60s-20-30-20-60"/>
				<path class="st1" d="M429.5,448.8c0-30,20-30,20-60s-20-30-20-60s20-30,20-60s-20-30-20-60s20-30,20-60s-20-30-20-60
					s20-30,20-60s-20-30-20-60s20-30,20-60s-20-30-20-60"/>
				<path class="st1" d="M408.8,448.8c0-30,20-30,20-60s-20-30-20-60s20-30,20-60s-20-30-20-60s20-30,20-60s-20-30-20-60
					s20-30,20-60s-20-30-20-60s20-30,20-60s-20-30-20-60"/>
				<path class="st1" d="M388.1,448.8c0-30,20-30,20-60s-20-30-20-60s20-30,20-60s-20-30-20-60s20-30,20-60s-20-30-20-60
					s20-30,20-60s-20-30-20-60s20-30,20-60s-20-30-20-60"/>
				<path class="st1" d="M367.4,448.8c0-30,20-30,20-60s-20-30-20-60s20-30,20-60s-20-30-20-60s20-30,20-60s-20-30-20-60
					s20-30,20-60s-20-30-20-60s20-30,20-60s-20-30-20-60"/>
				<path class="st1" d="M346.7,448.8c0-30,20-30,20-60s-20-30-20-60s20-30,20-60s-20-30-20-60s20-30,20-60s-20-30-20-60
					s20-30,20-60s-20-30-20-60s20-30,20-60s-20-30-20-60"/>
				<path class="st1" d="M326,448.8c0-30,20-30,20-60s-20-30-20-60s20-30,20-60s-20-30-20-60s20-30,20-60s-20-30-20-60s20-30,20-60
					s-20-30-20-60s20-30,20-60s-20-30-20-60"/>
				<path class="st1" d="M305.4,448.8c0-30,20-30,20-60s-20-30-20-60s20-30,20-60s-20-30-20-60s20-30,20-60s-20-30-20-60
					s20-30,20-60s-20-30-20-60s20-30,20-60s-20-30-20-60"/>
				<path class="st1" d="M284.7,448.8c0-30,20-30,20-60s-20-30-20-60s20-30,20-60s-20-30-20-60s20-30,20-60s-20-30-20-60
					s20-30,20-60s-20-30-20-60s20-30,20-60s-20-30-20-60"/>
				<path class="st1" d="M264,448.8c0-30,20-30,20-60s-20-30-20-60s20-30,20-60s-20-30-20-60s20-30,20-60s-20-30-20-60s20-30,20-60
					s-20-30-20-60s20-30,20-60s-20-30-20-60"/>
				<path class="st1" d="M243.3,448.8c0-30,20-30,20-60s-20-30-20-60s20-30,20-60s-20-30-20-60s20-30,20-60s-20-30-20-60
					s20-30,20-60s-20-30-20-60s20-30,20-60s-20-30-20-60"/>
				<path class="st1" d="M222.6,448.8c0-30,20-30,20-60s-20-30-20-60s20-30,20-60s-20-30-20-60s20-30,20-60s-20-30-20-60
					s20-30,20-60s-20-30-20-60s20-30,20-60s-20-30-20-60"/>
				<path class="st1" d="M201.9,448.8c0-30,20-30,20-60s-20-30-20-60s20-30,20-60s-20-30-20-60s20-30,20-60s-20-30-20-60
					s20-30,20-60s-20-30-20-60s20-30,20-60s-20-30-20-60"/>
				<path class="st1" d="M181.2,448.8c0-30,20-30,20-60s-20-30-20-60s20-30,20-60s-20-30-20-60s20-30,20-60s-20-30-20-60
					s20-30,20-60s-20-30-20-60s20-30,20-60s-20-30-20-60"/>
				<path class="st1" d="M160.5,448.8c0-30,20-30,20-60s-20-30-20-60s20-30,20-60s-20-30-20-60s20-30,20-60s-20-30-20-60
					s20-30,20-60s-20-30-20-60s20-30,20-60s-20-30-20-60"/>
				<path class="st1" d="M139.8,448.8c0-30,20-30,20-60s-20-30-20-60s20-30,20-60s-20-30-20-60s20-30,20-60s-20-30-20-60
					s20-30,20-60s-20-30-20-60s20-30,20-60s-20-30-20-60"/>
				<path class="st1" d="M119.2,448.8c0-30,20-30,20-60s-20-30-20-60s20-30,20-60s-20-30-20-60s20-30,20-60s-20-30-20-60
					s20-30,20-60s-20-30-20-60s20-30,20-60s-20-30-20-60"/>
				<path class="st1" d="M98.5,448.8c0-30,20-30,20-60s-20-30-20-60s20-30,20-60s-20-30-20-60s20-30,20-60s-20-30-20-60s20-30,20-60
					s-20-30-20-60s20-30,20-60s-20-30-20-60"/>
				<path class="st1" d="M77.8,448.8c0-30,20-30,20-60s-20-30-20-60s20-30,20-60s-20-30-20-60s20-30,20-60s-20-30-20-60s20-30,20-60
					s-20-30-20-60s20-30,20-60s-20-30-20-60"/>
				<path class="st1" d="M57.1,448.8c0-30,20-30,20-60s-20-30-20-60s20-30,20-60s-20-30-20-60s20-30,20-60s-20-30-20-60s20-30,20-60
					s-20-30-20-60s20-30,20-60s-20-30-20-60"/>
				<path class="st1" d="M36.4,448.8c0-30,20-30,20-60s-20-30-20-60s20-30,20-60s-20-30-20-60s20-30,20-60s-20-30-20-60s20-30,20-60
					s-20-30-20-60s20-30,20-60s-20-30-20-60"/>
				<path class="st1" d="M15.7,448.8c0-30,20-30,20-60s-20-30-20-60s20-30,20-60s-20-30-20-60s20-30,20-60s-20-30-20-60s20-30,20-60
					s-20-30-20-60s20-30,20-60s-20-30-20-60"/>
				<path class="st1" d="M-5,448.8c0-30,20-30,20-60s-20-30-20-60s20-30,20-60s-20-30-20-60s20-30,20-60s-20-30-20-60s20-30,20-60
					s-20-30-20-60s20-30,20-60s-20-30-20-60"/>
				<path class="st1" d="M-25.7,448.8c0-30,20-30,20-60s-20-30-20-60s20-30,20-60s-20-30-20-60s20-30,20-60s-20-30-20-60
					s20-30,20-60s-20-30-20-60s20-30,20-60s-20-30-20-60"/>
				<path class="st1" d="M-46.4,448.8c0-30,20-30,20-60s-20-30-20-60s20-30,20-60s-20-30-20-60s20-30,20-60s-20-30-20-60
					s20-30,20-60s-20-30-20-60s20-30,20-60s-20-30-20-60"/>
				<path class="st1" d="M-67,448.8c0-30,20-30,20-60s-20-30-20-60s20-30,20-60s-20-30-20-60s20-30,20-60s-20-30-20-60s20-30,20-60
					s-20-30-20-60s20-30,20-60s-20-30-20-60"/>
				<path class="st1" d="M-87.7,448.8c0-30,20-30,20-60s-20-30-20-60s20-30,20-60s-20-30-20-60s20-30,20-60s-20-30-20-60
					s20-30,20-60s-20-30-20-60s20-30,20-60s-20-30-20-60"/>
				<path class="st1" d="M-108.4,448.8c0-30,20-30,20-60s-20-30-20-60s20-30,20-60s-20-30-20-60s20-30,20-60s-20-30-20-60
					s20-30,20-60s-20-30-20-60s20-30,20-60s-20-30-20-60"/>
				<path class="st1" d="M-129.1,448.8c0-30,20-30,20-60s-20-30-20-60s20-30,20-60s-20-30-20-60s20-30,20-60s-20-30-20-60
					s20-30,20-60s-20-30-20-60s20-30,20-60s-20-30-20-60"/>
				<path class="st1" d="M-149.8,448.8c0-30,20-30,20-60s-20-30-20-60s20-30,20-60s-20-30-20-60s20-30,20-60s-20-30-20-60
					s20-30,20-60s-20-30-20-60s20-30,20-60s-20-30-20-60"/>
				<path class="st1" d="M-170.5,448.8c0-30,20-30,20-60s-20-30-20-60s20-30,20-60s-20-30-20-60s20-30,20-60s-20-30-20-60
					s20-30,20-60s-20-30-20-60s20-30,20-60s-20-30-20-60"/>
			</g>
		</g>
	</g>
</g>
</svg>
