<?xml version="1.0" encoding="utf-8"?>
<!-- Generator: Adobe Illustrator 25.2.0, SVG Export Plug-In . SVG Version: 6.00 Build 0)  -->
<svg version="1.1" id="Layer_1" xmlns="http://www.w3.org/2000/svg" xmlns:xlink="http://www.w3.org/1999/xlink" x="0px" y="0px"
	 viewBox="0 0 20.7 120" style="enable-background:new 0 0 20.7 120;" xml:space="preserve">
<style type="text/css">
	.st0{fill:none;stroke:#000000;stroke-width:1.25;stroke-linecap:square;stroke-miterlimit:10;}
	.st1{display:none;}
	.st2{display:inline;fill:none;stroke:#000000;stroke-miterlimit:10;}
</style>
<g>
	<path class="st0" d="M15.8,0c1.7,2.6,3.5,5.3,4.9,8.4"/>
	<path class="st0" d="M0,67C5.9,55.6,15,49,15,28.8C15,14.6,10.5,7.1,5.8,0"/>
	<path class="st0" d="M0,8.3c2.5,5.2,4.3,11.5,4.3,20.5S2.5,44.1,0,49.3"/>
	<path class="st0" d="M5.8,120c-2-3-4-6-5.8-9.3"/>
	<path class="st0" d="M-2.6,2.9L0,8.3c2.5,5.2,4.3,11.5,4.3,20.5S2.5,44.1,0,49.3l-4.8,7.5"/>
	<path class="st0" d="M15.8,120C10.5,112.1,5,104.6,5,88.8c0-21,9.8-27.3,15.7-39.6"/>
	<path class="st0" d="M5.8,120c-2-3-4-6-5.8-9.3l-8.4-14.3"/>
	<path class="st0" d="M-9.3,82.2L0,67C5.9,55.6,15,49,15,28.8C15,14.6,10.5,7.1,5.8,0"/>
	<path class="st0" d="M15.8,0c1.7,2.6,3.5,5.3,4.9,8.4l2.7,5.2"/>
	<path class="st0" d="M20.7,67c-2.9,5.5-5,12.1-5,21.9s2.1,16.4,5,21.9"/>
	<path class="st0" d="M26,58.4L20.7,67c-2.9,5.5-5,12.1-5,21.9s2.1,16.4,5,21.9l2.7,5.3"/>
	<path class="st0" d="M23.4,43.1l-2.7,6.1C14.8,61.5,5,67.8,5,88.8c0,15.8,5.5,23.3,10.8,31.2"/>
</g>
<g class="st1">
	<path class="st2" d="M15.7,448.8c0-30,20-30,20-60s-20-30-20-60s20-30,20-60s-20-30-20-60s20-30,20-60s-20-30-20-60s20-30,20-60
		s-20-30-20-60s20-30,20-60s-20-30-20-60"/>
	<path class="st2" d="M5,448.8c0-30,20-30,20-60s-20-30-20-60s20-30,20-60s-20-30-20-60s20-30,20-60s-20-30-20-60s20-30,20-60
		s-20-30-20-60s20-30,20-60s-20-30-20-60"/>
	<path class="st2" d="M-5,448.8c0-30,20-30,20-60s-20-30-20-60s20-30,20-60s-20-30-20-60s20-30,20-60s-20-30-20-60s20-30,20-60
		s-20-30-20-60s20-30,20-60s-20-30-20-60"/>
	<path class="st2" d="M-15.7,448.8c0-30,20-30,20-60s-20-30-20-60s20-30,20-60s-20-30-20-60s20-30,20-60s-20-30-20-60s20-30,20-60
		s-20-30-20-60s20-30,20-60s-20-30-20-60"/>
</g>
<g>
	<path class="st0" d="M15.8,120c1.7,2.6,3.5,5.3,4.9,8.4"/>
	<path class="st0" d="M0,187c5.9-11.3,15-17.9,15-38.1c0-14.2-4.5-21.7-9.2-28.8"/>
	<path class="st0" d="M0,128.3c2.5,5.2,4.3,11.5,4.3,20.5S2.5,164.1,0,169.3"/>
	<path class="st0" d="M5.8,240c-2-3-4-6-5.8-9.3"/>
	<path class="st0" d="M-2.6,122.9l2.6,5.4c2.5,5.2,4.3,11.5,4.3,20.5S2.5,164.1,0,169.3l-4.8,7.5"/>
	<path class="st0" d="M15.8,240C10.5,232.1,5,224.6,5,208.8c0-21,9.8-27.3,15.7-39.6"/>
	<path class="st0" d="M5.8,240c-2-3-4-6-5.8-9.3l-8.4-14.3"/>
	<path class="st0" d="M-9.3,202.2L0,187c5.9-11.3,15-17.9,15-38.1c0-14.2-4.5-21.7-9.2-28.8"/>
	<path class="st0" d="M15.8,120c1.7,2.6,3.5,5.3,4.9,8.4l2.7,5.2"/>
	<path class="st0" d="M20.7,187c-2.9,5.5-5,12.1-5,21.9s2.1,16.4,5,21.9"/>
	<path class="st0" d="M26,178.4l-5.3,8.6c-2.9,5.5-5,12.1-5,21.9s2.1,16.4,5,21.9l2.7,5.3"/>
	<path class="st0" d="M23.4,163.1l-2.7,6.1C14.8,181.5,5,187.8,5,208.8c0,15.8,5.5,23.3,10.8,31.2"/>
</g>
</svg>
