<svg width="66" height="32" viewBox="0 0 66 32" fill="none" xmlns="http://www.w3.org/2000/svg">
<path d="M0 22.1599C0 19.5978 0.986137 17.4062 2.79935 15.585C7.25287 11.0473 11.7382 6.54059 16.2553 2.06471C19.1183 -0.744292 22.1722 -0.651693 25.0033 2.12644C25.8622 2.95988 26.8483 3.76245 27.3891 4.7811C27.7709 5.52194 25.5123 7.68271 24.717 7.28142C23.7627 6.78753 23.0629 5.79975 22.2676 4.99718C21.1542 3.88593 20.1045 3.79332 18.9593 4.96631C14.4739 9.47306 9.92498 13.9181 5.53509 18.5174C3.24471 20.9251 3.49919 24.2589 5.85319 26.4814C8.2072 28.673 11.7064 28.7039 14.2513 26.3271C22.6175 18.5174 30.8883 10.5843 39.2864 2.77467C40.3361 1.78689 41.6404 0.860847 43.0082 0.366957C44.9169 -0.34301 46.7619 0.274352 48.257 1.66342C53.2513 6.32451 58.2774 10.893 63.1445 15.6467C66.93 19.3509 66.8982 25.0615 63.3672 28.8583C59.9316 32.5316 54.142 33.0563 49.943 29.9695C48.4797 28.92 47.1437 27.6853 45.8712 26.4505C44.726 25.3393 43.8671 25.4628 42.8492 26.5123C41.7994 27.5927 40.7179 28.6113 39.5409 29.5682C35.6599 32.7476 30.443 32.8094 26.562 29.7534C25.5759 28.9817 27.6436 25.6171 28.9797 26.574C32.1608 28.8274 34.6102 28.6422 37.5368 26.0184C39.3182 24.4132 41.1314 22.839 42.8174 21.1412C43.8671 20.0608 44.6624 19.9374 45.8076 21.0486C47.6844 22.8698 49.6567 24.5985 51.6608 26.2962C54.5238 28.7348 58.0548 28.6422 60.4088 26.1419C62.6992 23.7033 62.3492 20.246 59.6453 17.684C55.2554 13.6094 50.8973 9.53479 46.6029 5.3676C45.0123 3.82419 43.8353 3.85506 42.213 5.39847C34.1966 13.0538 26.0849 20.5856 18.1004 28.2718C15.0783 31.1734 11.7064 32.7168 7.44374 31.6055C2.79935 30.4325 0 26.821 0 22.1599Z" fill="white"/>
</svg>
