<?xml version="1.0" encoding="utf-8"?>
<!-- Generator: Adobe Illustrator 25.2.3, SVG Export Plug-In . SVG Version: 6.00 Build 0)  -->
<svg version="1.1" id="Layer_1" xmlns="http://www.w3.org/2000/svg" xmlns:xlink="http://www.w3.org/1999/xlink" x="0px" y="0px"
	 viewBox="0 0 698.1 130" style="enable-background:new 0 0 698.1 130;" xml:space="preserve">
<style type="text/css">
	.st0{fill:#FFFFFF;}
	.st1{fill:#231F20;}
</style>
<g id="Layer_2_2_">
	<g id="mainello-2_1_">
		<path id="m_1_" class="st0" d="M115,35.5c23.4,0,33.2,13.2,33.2,44.8v37c0,4.9-2.9,7.7-8.1,7.7h-2c-5.2,0-8.1-2.8-8.1-7.7V81.7
			c0-22.4-6.2-31.3-21.6-31.3c-15.9,0-22.6,9.2-22.6,31v35.9c0,4.9-2.9,7.7-8.1,7.7h-2c-5.2,0-8.1-2.8-8.1-7.7V81.9
			c0-23-5.5-31.3-20.7-31.3c-15.8,0-22.6,10-22.6,32.5v34.2c0,4.9-2.9,7.7-8.1,7.7h-1.9c-5.2,0-8.1-2.8-8.1-7.7V44.9
			c0-4.9,2.9-7.7,8.1-7.7h1.9c5.2,0,8.1,2.8,8.1,7.7v8.9c3.3-9.8,13.9-18.1,28.3-18.1c15.6,0,23.3,5.5,28.3,20.9
			C85.2,44.8,97.6,35.6,115,35.5L115,35.5z"/>
		<path id="a_1_" class="st0" d="M164.4,81.1c0-30.2,19.5-45.6,42.6-45.6c14.6,0,27.7,6.8,33,18.9v-9.5c0-4.9,2.9-7.7,8.1-7.7h2
			c5.2,0,8.1,2.8,8.1,7.7v72.3c0,4.9-2.9,7.7-8.1,7.7h-2c-5.2,0-8.1-2.8-8.1-7.7v-8.9c-5.2,11.8-18.4,18.7-32.9,18.7
			C184.1,127,164.4,111.5,164.4,81.1z M240.5,81.1c0-19.2-11.9-31-29.1-31c-17.1,0-28.8,11.7-28.8,31s11.7,31.2,29.1,31.2
			C228.8,112.3,240.6,100.4,240.5,81.1L240.5,81.1z"/>
		<path id="i_1_" class="st0" d="M279,16.2c0-5.8,4.5-9.2,10.7-9.2c5.7,0,10.7,3.4,10.7,9.2s-5,9.2-10.7,9.2
			C283.5,25.4,279,22,279,16.2z M280.5,117.3V44.9c0-4.9,2.9-7.7,8-7.7h2.1c5.1,0,8,2.8,8,7.7v72.4c0,4.9-2.9,7.7-8,7.7h-2.1
			C283.4,125,280.5,122.2,280.5,117.3L280.5,117.3z"/>
		<path id="n_1_" class="st0" d="M406.6,77.4v39.9c0,4.9-2.9,7.7-8.1,7.7h-2c-5.2,0-8.1-2.8-8.1-7.7V78.8c0-19.2-7.8-28.2-25-28.2
			c-17.6,0-24.7,10.9-24.7,30.2v36.5c0,4.9-2.9,7.7-8.1,7.7h-2c-5.2,0-8.1-2.8-8.1-7.7V44.9c0-4.9,2.9-7.7,8.1-7.7h2
			c5.2,0,8.1,2.8,8.1,7.7v8.7c4.2-10.2,14.8-17.9,30.4-17.9C394.8,35.7,406.6,49.7,406.6,77.4z"/>
		<path id="e_1_" class="st0" d="M422.9,81.1c0-27,19.2-45.6,47-45.6c27,0,44.2,17,45.4,42.3c0.2,5.1-2.9,7.7-8.1,7.7h-66
			c0.6,17,11.9,26.7,29.9,26.7c10.1,0,16.4-2.5,22.3-7.4c3.6-2.9,5.9-5.4,10.4-4.3l2,0.5c5.7,1.4,6.8,4.3,3.8,8.6
			c-8.1,11.3-21.3,17-38.7,17C441.8,126.7,422.9,108.6,422.9,81.1z M498.1,72.1c-1.3-14-11.4-22.9-27.8-22.9
			c-15.6,0-26.5,7.7-28.6,22.9H498.1z"/>
		<path id="l_1_" class="st0" d="M533.5,117.3v-101c0-4.9,2.9-7.7,8.1-7.7h2.1c5.2,0,8.1,2.8,8.1,7.7v101c0,4.9-2.9,7.7-8.1,7.7
			h-2.1C536.4,125,533.5,122.2,533.5,117.3z"/>
		<path id="l-2_1_" class="st0" d="M573.3,117.3v-101c0-4.9,2.9-7.7,8.1-7.7h2.1c5.2,0,8.1,2.8,8.1,7.7v101c0,4.9-2.9,7.7-8.1,7.7
			h-2.1C576.3,125,573.3,122.2,573.3,117.3z"/>
		<path id="o_1_" class="st0" d="M609.9,81.1c0-31.6,23.3-45.6,47-45.6s47.2,14,47.2,45.6c0,31.9-23.3,45.9-47,45.9
			C633.2,127,609.9,113,609.9,81.1z M685.9,81.1c0-19.2-11.7-31-29-31s-28.8,11.7-28.8,31s11.5,31.2,29,31.2S686,100.5,685.9,81.1
			L685.9,81.1z"/>
	</g>
	<g id="mainello-1">
		<path id="m" class="st1" d="M109,30.5c23.4,0,33.2,13.2,33.2,44.8v37c0,4.9-2.9,7.7-8.1,7.7h-2c-5.2,0-8.1-2.8-8.1-7.7V76.7
			c0-22.4-6.2-31.3-21.6-31.3c-15.9,0-22.6,9.2-22.6,31v35.9c0,4.9-2.9,7.7-8.1,7.7h-2c-5.2,0-8.1-2.8-8.1-7.7V76.9
			c0-23-5.5-31.3-20.7-31.3c-15.8,0-22.6,10-22.6,32.5v34.2c0,4.9-2.9,7.7-8.1,7.7H8.1c-5.2,0-8.1-2.8-8.1-7.7V39.9
			c0-4.9,2.9-7.7,8.1-7.7H10c5.2,0,8.1,2.8,8.1,7.7v8.9C21.4,39,32,30.7,46.4,30.7c15.6,0,23.3,5.5,28.3,20.9
			C79.2,39.8,91.6,30.6,109,30.5L109,30.5z"/>
		<path id="a" class="st1" d="M158.4,76.1c0-30.2,19.5-45.6,42.6-45.6c14.6,0,27.7,6.8,33,18.9v-9.5c0-4.9,2.9-7.7,8.1-7.7h2
			c5.2,0,8.1,2.8,8.1,7.7v72.3c0,4.9-2.9,7.7-8.1,7.7h-2c-5.2,0-8.1-2.8-8.1-7.7v-8.9c-5.2,11.8-18.4,18.7-32.9,18.7
			C178.1,122,158.4,106.5,158.4,76.1z M234.5,76.1c0-19.2-11.9-31-29.1-31c-17.1,0-28.8,11.7-28.8,31s11.7,31.2,29.1,31.2
			C222.8,107.3,234.6,95.4,234.5,76.1L234.5,76.1z"/>
		<path id="i" class="st1" d="M273,11.2c0-5.8,4.5-9.2,10.7-9.2c5.7,0,10.7,3.4,10.7,9.2s-5,9.2-10.7,9.2
			C277.5,20.4,273,17,273,11.2z M274.5,112.3V39.9c0-4.9,2.9-7.7,8-7.7h2.1c5.1,0,8,2.8,8,7.7v72.4c0,4.9-2.9,7.7-8,7.7h-2.1
			C277.4,120,274.5,117.2,274.5,112.3L274.5,112.3z"/>
		<path id="n" class="st1" d="M400.6,72.4v39.9c0,4.9-2.9,7.7-8.1,7.7h-2c-5.2,0-8.1-2.8-8.1-7.7V73.8c0-19.2-7.8-28.2-25-28.2
			c-17.6,0-24.7,10.9-24.7,30.2v36.5c0,4.9-2.9,7.7-8.1,7.7h-2c-5.2,0-8.1-2.8-8.1-7.7V39.9c0-4.9,2.9-7.7,8.1-7.7h2
			c5.2,0,8.1,2.8,8.1,7.7v8.7c4.2-10.2,14.8-17.9,30.4-17.9C388.8,30.7,400.6,44.7,400.6,72.4z"/>
		<path id="e" class="st1" d="M416.9,76.1c0-27,19.2-45.6,47-45.6c27,0,44.2,17,45.4,42.3c0.2,5.1-2.9,7.7-8.1,7.7h-66
			c0.6,17,11.9,26.7,29.9,26.7c10.1,0,16.4-2.5,22.3-7.4c3.6-2.9,5.9-5.4,10.4-4.3l2,0.5c5.7,1.4,6.8,4.3,3.8,8.6
			c-8.1,11.3-21.3,17-38.7,17C435.8,121.7,416.9,103.6,416.9,76.1z M492.1,67.1c-1.3-14-11.4-22.9-27.8-22.9
			c-15.6,0-26.5,7.7-28.6,22.9H492.1z"/>
		<path id="l" class="st1" d="M527.5,112.3v-101c0-4.9,2.9-7.7,8.1-7.7h2.1c5.2,0,8.1,2.8,8.1,7.7v101c0,4.9-2.9,7.7-8.1,7.7h-2.1
			C530.4,120,527.5,117.2,527.5,112.3z"/>
		<path id="l-2" class="st1" d="M567.3,112.3v-101c0-4.9,2.9-7.7,8.1-7.7h2.1c5.2,0,8.1,2.8,8.1,7.7v101c0,4.9-2.9,7.7-8.1,7.7h-2.1
			C570.3,120,567.3,117.2,567.3,112.3z"/>
		<path id="o" class="st1" d="M603.9,76.1c0-31.6,23.3-45.6,47-45.6s47.2,14,47.2,45.6c0,31.9-23.3,45.9-47,45.9
			C627.2,122,603.9,108,603.9,76.1z M679.9,76.1c0-19.2-11.7-31-29-31s-28.8,11.7-28.8,31s11.5,31.2,29,31.2S680,95.5,679.9,76.1
			L679.9,76.1z"/>
	</g>
</g>
</svg>
