<?xml version="1.0" encoding="utf-8"?>
<!-- Generator: Adobe Illustrator 25.2.3, SVG Export Plug-In . SVG Version: 6.00 Build 0)  -->
<svg version="1.1" id="Layer_1" xmlns="http://www.w3.org/2000/svg" xmlns:xlink="http://www.w3.org/1999/xlink" x="0px" y="0px"
	 viewBox="0 0 698.1 130" style="enable-background:new 0 0 698.1 130;" xml:space="preserve">
<style type="text/css">
	.st0{opacity:0.8;}
	.st1{fill:#FFFFFF;}
	.st2{fill:#231F20;}
</style>
<g id="Layer_2_2_">
	<g id="mainello-2_1_" class="st0">
		<path id="m_1_" class="st1" d="M113,33.5c23.4,0,33.2,13.2,33.2,44.8v37c0,4.9-2.9,7.7-8.1,7.7h-2c-5.2,0-8.1-2.8-8.1-7.7V79.7
			c0-22.4-6.2-31.3-21.6-31.3c-15.9,0-22.6,9.2-22.6,31v35.9c0,4.9-2.9,7.7-8.1,7.7h-2c-5.2,0-8.1-2.8-8.1-7.7V79.9
			c0-23-5.5-31.3-20.7-31.3c-15.8,0-22.6,10-22.6,32.5v34.2c0,4.9-2.9,7.7-8.1,7.7h-1.9c-5.2,0-8.1-2.8-8.1-7.7V42.9
			c0-4.9,2.9-7.7,8.1-7.7h1.9c5.2,0,8.1,2.8,8.1,7.7v8.9c3.3-9.8,13.9-18.1,28.3-18.1c15.6,0,23.3,5.5,28.3,20.9
			C83.2,42.8,95.6,33.6,113,33.5L113,33.5z"/>
		<path id="a_1_" class="st1" d="M162.4,79.1c0-30.2,19.5-45.6,42.6-45.6c14.6,0,27.7,6.8,33,18.9v-9.5c0-4.9,2.9-7.7,8.1-7.7h2
			c5.2,0,8.1,2.8,8.1,7.7v72.3c0,4.9-2.9,7.7-8.1,7.7h-2c-5.2,0-8.1-2.8-8.1-7.7v-8.9c-5.2,11.8-18.4,18.7-32.9,18.7
			C182.1,125,162.4,109.5,162.4,79.1z M238.5,79.1c0-19.2-11.9-31-29.1-31c-17.1,0-28.8,11.7-28.8,31s11.7,31.2,29.1,31.2
			C226.8,110.3,238.6,98.4,238.5,79.1L238.5,79.1z"/>
		<path id="i_1_" class="st1" d="M277,14.2c0-5.8,4.5-9.2,10.7-9.2c5.7,0,10.7,3.4,10.7,9.2s-5,9.2-10.7,9.2
			C281.5,23.4,277,20,277,14.2z M278.5,115.3V42.9c0-4.9,2.9-7.7,8-7.7h2.1c5.1,0,8,2.8,8,7.7v72.4c0,4.9-2.9,7.7-8,7.7h-2.1
			C281.4,123,278.5,120.2,278.5,115.3L278.5,115.3z"/>
		<path id="n_1_" class="st1" d="M404.6,75.4v39.9c0,4.9-2.9,7.7-8.1,7.7h-2c-5.2,0-8.1-2.8-8.1-7.7V76.8c0-19.2-7.8-28.2-25-28.2
			c-17.6,0-24.7,10.9-24.7,30.2v36.5c0,4.9-2.9,7.7-8.1,7.7h-2c-5.2,0-8.1-2.8-8.1-7.7V42.9c0-4.9,2.9-7.7,8.1-7.7h2
			c5.2,0,8.1,2.8,8.1,7.7v8.7c4.2-10.2,14.8-17.9,30.4-17.9C392.8,33.7,404.6,47.7,404.6,75.4z"/>
		<path id="e_1_" class="st1" d="M420.9,79.1c0-27,19.2-45.6,47-45.6c27,0,44.2,17,45.4,42.3c0.2,5.1-2.9,7.7-8.1,7.7h-66
			c0.6,17,11.9,26.7,29.9,26.7c10.1,0,16.4-2.5,22.3-7.4c3.6-2.9,5.9-5.4,10.4-4.3l2,0.5c5.7,1.4,6.8,4.3,3.8,8.6
			c-8.1,11.3-21.3,17-38.7,17C439.8,124.7,420.9,106.6,420.9,79.1z M496.1,70.1c-1.3-14-11.4-22.9-27.8-22.9
			c-15.6,0-26.5,7.7-28.6,22.9H496.1z"/>
		<path id="l_1_" class="st1" d="M531.5,115.3v-101c0-4.9,2.9-7.7,8.1-7.7h2.1c5.2,0,8.1,2.8,8.1,7.7v101c0,4.9-2.9,7.7-8.1,7.7
			h-2.1C534.4,123,531.5,120.2,531.5,115.3z"/>
		<path id="l-2_1_" class="st1" d="M571.3,115.3v-101c0-4.9,2.9-7.7,8.1-7.7h2.1c5.2,0,8.1,2.8,8.1,7.7v101c0,4.9-2.9,7.7-8.1,7.7
			h-2.1C574.3,123,571.3,120.2,571.3,115.3z"/>
		<path id="o_1_" class="st1" d="M607.9,79.1c0-31.6,23.3-45.6,47-45.6s47.2,14,47.2,45.6c0,31.9-23.3,45.9-47,45.9
			C631.2,125,607.9,111,607.9,79.1z M683.9,79.1c0-19.2-11.7-31-29-31s-28.8,11.7-28.8,31s11.5,31.2,29,31.2S684,98.5,683.9,79.1
			L683.9,79.1z"/>
	</g>
	<g id="mainello-1">
		<path id="m" class="st2" d="M109,30.5c23.4,0,33.2,13.2,33.2,44.8v37c0,4.9-2.9,7.7-8.1,7.7h-2c-5.2,0-8.1-2.8-8.1-7.7V76.7
			c0-22.4-6.2-31.3-21.6-31.3c-15.9,0-22.6,9.2-22.6,31v35.9c0,4.9-2.9,7.7-8.1,7.7h-2c-5.2,0-8.1-2.8-8.1-7.7V76.9
			c0-23-5.5-31.3-20.7-31.3c-15.8,0-22.6,10-22.6,32.5v34.2c0,4.9-2.9,7.7-8.1,7.7H8.1c-5.2,0-8.1-2.8-8.1-7.7V39.9
			c0-4.9,2.9-7.7,8.1-7.7h1.9c5.2,0,8.1,2.8,8.1,7.7v8.9c3.3-9.8,13.9-18.1,28.3-18.1c15.6,0,23.3,5.5,28.3,20.9
			C79.2,39.8,91.6,30.6,109,30.5L109,30.5z"/>
		<path id="a" class="st2" d="M158.4,76.1c0-30.2,19.5-45.6,42.6-45.6c14.6,0,27.7,6.8,33,18.9v-9.5c0-4.9,2.9-7.7,8.1-7.7h2
			c5.2,0,8.1,2.8,8.1,7.7v72.3c0,4.9-2.9,7.7-8.1,7.7h-2c-5.2,0-8.1-2.8-8.1-7.7v-8.9c-5.2,11.8-18.4,18.7-32.9,18.7
			C178.1,122,158.4,106.5,158.4,76.1z M234.5,76.1c0-19.2-11.9-31-29.1-31c-17.1,0-28.8,11.7-28.8,31s11.7,31.2,29.1,31.2
			C222.8,107.3,234.6,95.4,234.5,76.1L234.5,76.1z"/>
		<path id="i" class="st2" d="M273,11.2c0-5.8,4.5-9.2,10.7-9.2c5.7,0,10.7,3.4,10.7,9.2s-5,9.2-10.7,9.2
			C277.5,20.4,273,17,273,11.2z M274.5,112.3V39.9c0-4.9,2.9-7.7,8-7.7h2.1c5.1,0,8,2.8,8,7.7v72.4c0,4.9-2.9,7.7-8,7.7h-2.1
			C277.4,120,274.5,117.2,274.5,112.3L274.5,112.3z"/>
		<path id="n" class="st2" d="M400.6,72.4v39.9c0,4.9-2.9,7.7-8.1,7.7h-2c-5.2,0-8.1-2.8-8.1-7.7V73.8c0-19.2-7.8-28.2-25-28.2
			c-17.6,0-24.7,10.9-24.7,30.2v36.5c0,4.9-2.9,7.7-8.1,7.7h-2c-5.2,0-8.1-2.8-8.1-7.7V39.9c0-4.9,2.9-7.7,8.1-7.7h2
			c5.2,0,8.1,2.8,8.1,7.7v8.7c4.2-10.2,14.8-17.9,30.4-17.9C388.8,30.7,400.6,44.7,400.6,72.4z"/>
		<path id="e" class="st2" d="M416.9,76.1c0-27,19.2-45.6,47-45.6c27,0,44.2,17,45.4,42.3c0.2,5.1-2.9,7.7-8.1,7.7h-66
			c0.6,17,11.9,26.7,29.9,26.7c10.1,0,16.4-2.5,22.3-7.4c3.6-2.9,5.9-5.4,10.4-4.3l2,0.5c5.7,1.4,6.8,4.3,3.8,8.6
			c-8.1,11.3-21.3,17-38.7,17C435.8,121.7,416.9,103.6,416.9,76.1z M492.1,67.1c-1.3-14-11.4-22.9-27.8-22.9
			c-15.6,0-26.5,7.7-28.6,22.9H492.1z"/>
		<path id="l" class="st2" d="M527.5,112.3v-101c0-4.9,2.9-7.7,8.1-7.7h2.1c5.2,0,8.1,2.8,8.1,7.7v101c0,4.9-2.9,7.7-8.1,7.7h-2.1
			C530.4,120,527.5,117.2,527.5,112.3z"/>
		<path id="l-2" class="st2" d="M567.3,112.3v-101c0-4.9,2.9-7.7,8.1-7.7h2.1c5.2,0,8.1,2.8,8.1,7.7v101c0,4.9-2.9,7.7-8.1,7.7h-2.1
			C570.3,120,567.3,117.2,567.3,112.3z"/>
		<path id="o" class="st2" d="M603.9,76.1c0-31.6,23.3-45.6,47-45.6s47.2,14,47.2,45.6c0,31.9-23.3,45.9-47,45.9
			C627.2,122,603.9,108,603.9,76.1z M679.9,76.1c0-19.2-11.7-31-29-31s-28.8,11.7-28.8,31s11.5,31.2,29,31.2S680,95.5,679.9,76.1
			L679.9,76.1z"/>
	</g>
</g>
</svg>
