<?xml version="1.0" encoding="utf-8"?>
<!-- Generator: Adobe Illustrator 25.4.0, SVG Export Plug-In . SVG Version: 6.00 Build 0)  -->
<svg version="1.1" id="Layer_1" focusable="false" xmlns="http://www.w3.org/2000/svg" xmlns:xlink="http://www.w3.org/1999/xlink"
	 x="0px" y="0px" viewBox="0 0 600 600" style="enable-background:new 0 0 600 600;" xml:space="preserve">
<style type="text/css">
	.st0{fill:#FFFFFF;}
</style>
<path class="st0" d="M244,281.2c31.8-15.2,48.4-38.2,48.4-74c0-70.6-52.6-87.8-113.3-87.8H12v354.4h171.8
	c64.4,0,124.9-30.9,124.9-102.9C308.7,326.4,287.6,293.5,244,281.2L244,281.2z M89.9,179.9H163c28.1,0,53.4,7.9,53.4,40.5
	c0,30.1-19.7,42.2-47.5,42.2h-79C89.9,262.6,89.9,179.9,89.9,179.9z M173.2,413.6H89.9V316h84.9c34.3,0,56,14.3,56,50.6
	C230.8,402.4,204.9,413.6,173.2,413.6L173.2,413.6z M531.7,172.9H388V138h143.7V172.9L531.7,172.9z M588,349.2
	c0-75.9-44.4-139.2-124.9-139.2c-78.2,0-131.3,58.8-131.3,135.8c0,79.9,50.3,134.7,131.3,134.7c61.3,0,101-27.6,120.1-86.3H521
	c-6.7,21.9-34.3,33.5-55.7,33.5c-41.3,0-63-24.2-63-65.3h185.1C587.7,358.2,588,353.7,588,349.2z M402.4,318
	c2.3-33.7,24.7-54.8,58.5-54.8c35.4,0,53.2,20.8,56.2,54.8H402.4z"/>
</svg>
