<?xml version="1.0" encoding="utf-8"?>
<!-- Generator: Adobe Illustrator 25.4.0, SVG Export Plug-In . SVG Version: 6.00 Build 0)  -->
<svg version="1.1" id="Layer_1" focusable="false" xmlns="http://www.w3.org/2000/svg" xmlns:xlink="http://www.w3.org/1999/xlink"
	 x="0px" y="0px" viewBox="0 0 600 600" style="enable-background:new 0 0 600 600;" xml:space="preserve">
<style type="text/css">
	.st0{fill:#FFFFFF;}
</style>
<path class="st0" d="M300,52C163.3,52,52,163.3,52,300s111.3,248,248,248s248-111.3,248-248S436.7,52,300,52z M464,166.4
	c29.5,36,47.4,82,47.8,132c-7-1.5-77-15.7-147.5-6.8c-5.8-14-11.2-26.4-18.6-41.6C424,217.9,459.5,172.4,464,166.4L464,166.4z
	 M440.4,141.9c-3.8,5.4-35.7,48.3-111,76.5c-34.7-63.8-73.2-116.2-79-124C317.5,78.2,388.3,95.7,440.4,141.9z M209.9,108.6
	c5.6,7.7,43.4,60.1,78.5,122.5c-99.1,26.3-186.4,25.9-195.8,25.8C106.4,191.2,150.7,136.6,209.9,108.6z M88.2,300.3
	c0-2.2,0-4.3,0.1-6.5c9.3,0.2,111.9,1.5,217.7-30.1c6.1,11.9,11.9,23.9,17.2,35.9C246.6,321.2,177,383.2,142.6,442
	C108.8,404.4,88.2,354.7,88.2,300.3z M170,467.4c22.1-45.2,82.2-103.6,167.6-132.8c29.7,77.3,42,142.1,45.2,160.6
	C314.6,524.3,232.7,516.4,170,467.4z M418.4,475.9c-2.2-12.9-13.4-74.9-41.2-151c66.4-10.6,124.7,6.8,131.9,9.1
	C499.7,392.9,465.9,443.8,418.4,475.9z"/>
</svg>
