<svg width="28" height="28" viewBox="0 0 28 28" fill="none" xmlns="http://www.w3.org/2000/svg">
<path d="M23.5156 9.125C24.4531 8.42188 25.2969 7.57812 25.9531 6.59375C25.1094 6.96875 24.125 7.25 23.1406 7.34375C24.1719 6.73438 24.9219 5.79688 25.2969 4.625C24.3594 5.1875 23.2812 5.60938 22.2031 5.84375C21.2656 4.85938 20 4.29688 18.5938 4.29688C15.875 4.29688 13.6719 6.5 13.6719 9.21875C13.6719 9.59375 13.7188 9.96875 13.8125 10.3438C9.73438 10.1094 6.07812 8.14062 3.64062 5.1875C3.21875 5.89062 2.98438 6.73438 2.98438 7.67188C2.98438 9.35938 3.82812 10.8594 5.1875 11.75C4.39062 11.7031 3.59375 11.5156 2.9375 11.1406V11.1875C2.9375 13.5781 4.625 15.5469 6.875 16.0156C6.5 16.1094 6.03125 16.2031 5.60938 16.2031C5.28125 16.2031 5 16.1562 4.67188 16.1094C5.28125 18.0781 7.10938 19.4844 9.26562 19.5312C7.57812 20.8438 5.46875 21.6406 3.17188 21.6406C2.75 21.6406 2.375 21.5938 2 21.5469C4.15625 22.9531 6.73438 23.75 9.54688 23.75C18.5938 23.75 23.5156 16.2969 23.5156 9.78125C23.5156 9.54688 23.5156 9.35938 23.5156 9.125Z" fill="white"/>
</svg>
